<svg width="271" height="257" viewBox="0 0 271 257" fill="none" xmlns="http://www.w3.org/2000/svg">
<path d="M138.373 108.724L155.051 114.337V133.875L138.373 147.799L121.694 142.185V122.648L138.373 108.724Z" stroke="#B9CADB" stroke-width="0.8"/>
<path d="M138.373 89.6629L172.206 100.766V139.841L138.373 167.813L104.539 156.71V117.635L138.373 89.6629Z" stroke="#B9CADB" stroke-width="0.8" stroke-dasharray="1.6 1.6"/>
<path d="M138.373 69.6489L189.361 86.4797V145.569L138.373 187.827L87.3845 170.996V111.907L138.373 69.6489Z" stroke="#B9CADB" stroke-width="0.8" stroke-dasharray="1.6 1.6"/>
<path d="M138.373 50.5879L206.516 72.67V150.82L138.373 206.888L70.2297 184.806V106.656L138.373 50.5879Z" stroke="#B9CADB" stroke-width="0.8" stroke-dasharray="1.6 1.6"/>
<path d="M138.373 30.5739L223.67 58.3934V156.557L138.373 226.902L53.0747 199.082V100.928L138.373 30.5739Z" stroke="#B9CADB" stroke-width="0.8" stroke-dasharray="1.6 1.6"/>
<path d="M120.598 127.108C120.979 127.013 121.284 127.041 121.532 127.203C121.77 127.365 121.894 127.622 121.894 127.975C121.894 128.328 121.761 128.68 121.494 129.033C121.351 129.214 121.074 129.509 120.645 129.9C120.121 130.377 119.826 130.768 119.75 131.063L121.894 130.529V130.949L119.168 131.625C119.168 131.254 119.302 130.882 119.578 130.51C119.74 130.291 120.026 129.967 120.464 129.567C120.788 129.262 120.998 129.042 121.103 128.9C121.313 128.623 121.417 128.356 121.417 128.089C121.417 127.823 121.341 127.67 121.198 127.565C121.046 127.46 120.836 127.451 120.579 127.518C120.302 127.584 120.083 127.737 119.931 127.966C119.769 128.185 119.683 128.48 119.683 128.842L119.216 128.957C119.216 128.499 119.349 128.099 119.597 127.765C119.845 127.432 120.188 127.203 120.598 127.108ZM123.972 126.269C124.458 126.145 124.82 126.269 125.077 126.641C125.296 126.955 125.401 127.413 125.401 128.032C125.401 128.652 125.296 129.166 125.077 129.586C124.829 130.081 124.458 130.386 123.972 130.51C123.486 130.634 123.114 130.51 122.866 130.139C122.647 129.824 122.542 129.367 122.542 128.747C122.542 128.128 122.647 127.613 122.866 127.194C123.114 126.698 123.476 126.393 123.972 126.269ZM123.972 126.669C123.609 126.765 123.343 127.022 123.181 127.451C123.066 127.756 123.009 128.147 123.009 128.623C123.009 129.1 123.066 129.462 123.181 129.71C123.343 130.062 123.6 130.196 123.972 130.1C124.343 130.005 124.601 129.748 124.763 129.319C124.877 129.014 124.944 128.614 124.944 128.147C124.944 127.68 124.877 127.308 124.763 127.06C124.601 126.708 124.343 126.574 123.972 126.669ZM129.909 126.717C130.214 126.641 130.443 126.688 130.614 126.879C130.757 127.041 130.834 127.279 130.834 127.613C130.834 127.947 130.757 128.213 130.614 128.452C130.452 128.709 130.214 128.88 129.909 128.957C129.604 129.033 129.366 128.976 129.204 128.804C129.051 128.633 128.985 128.394 128.985 128.07C128.985 127.746 129.051 127.46 129.204 127.232C129.366 126.965 129.595 126.793 129.909 126.717ZM129.413 124.916L129.776 124.82L127.488 129.633L127.117 129.729L129.413 124.916ZM127.002 125.602C127.307 125.526 127.536 125.573 127.708 125.764C127.85 125.926 127.927 126.164 127.927 126.498C127.927 126.831 127.85 127.098 127.708 127.337C127.546 127.594 127.307 127.765 127.002 127.842C126.697 127.918 126.459 127.861 126.297 127.689C126.145 127.518 126.078 127.279 126.078 126.955C126.078 126.631 126.145 126.345 126.297 126.117C126.459 125.85 126.688 125.678 127.002 125.602ZM129.909 127.032C129.728 127.079 129.604 127.184 129.528 127.365C129.452 127.518 129.423 127.718 129.423 127.966C129.423 128.213 129.461 128.385 129.528 128.499C129.604 128.642 129.738 128.69 129.909 128.652C130.081 128.614 130.205 128.49 130.29 128.309C130.357 128.156 130.395 127.966 130.395 127.727C130.395 127.489 130.357 127.308 130.29 127.184C130.205 127.041 130.081 126.993 129.909 127.032ZM127.002 125.907C126.821 125.955 126.697 126.059 126.621 126.241C126.545 126.393 126.516 126.593 126.516 126.841C126.516 127.089 126.554 127.26 126.621 127.375C126.697 127.518 126.831 127.565 127.002 127.527C127.174 127.489 127.298 127.365 127.383 127.184C127.45 127.032 127.488 126.841 127.488 126.603C127.488 126.364 127.45 126.183 127.374 126.069C127.298 125.926 127.164 125.878 126.993 125.917L127.002 125.907Z" fill="#A0B0C8"/>
<path d="M114.356 109.677L114.795 109.562V112.336L115.462 112.174V112.555L114.795 112.717V113.641L114.347 113.756V112.831L112.298 113.346V112.898L114.356 109.677ZM114.337 110.296L112.698 112.869L114.356 112.46V110.296H114.337ZM117.311 108.867C117.797 108.743 118.159 108.867 118.416 109.238C118.636 109.553 118.74 110.01 118.74 110.63C118.74 111.249 118.636 111.764 118.416 112.183C118.169 112.679 117.797 112.984 117.311 113.108C116.825 113.232 116.453 113.108 116.205 112.736C115.986 112.422 115.881 111.964 115.881 111.345C115.881 110.725 115.986 110.21 116.205 109.791C116.453 109.296 116.815 108.991 117.311 108.867ZM117.311 109.267C116.949 109.362 116.682 109.62 116.52 110.048C116.405 110.353 116.348 110.744 116.348 111.221C116.348 111.697 116.405 112.059 116.52 112.307C116.682 112.66 116.939 112.793 117.311 112.698C117.683 112.603 117.94 112.345 118.102 111.916C118.216 111.611 118.283 111.211 118.283 110.744C118.283 110.277 118.216 109.906 118.102 109.658C117.94 109.305 117.683 109.172 117.311 109.267ZM123.248 109.315C123.553 109.238 123.782 109.286 123.954 109.477C124.097 109.639 124.173 109.877 124.173 110.21C124.173 110.544 124.097 110.811 123.954 111.049C123.792 111.306 123.553 111.478 123.248 111.554C122.943 111.631 122.705 111.573 122.543 111.402C122.391 111.23 122.324 110.992 122.324 110.668C122.324 110.344 122.391 110.058 122.543 109.829C122.705 109.562 122.934 109.391 123.248 109.315ZM122.753 107.513L123.115 107.418L120.828 112.231L120.456 112.326L122.753 107.513ZM120.342 108.2C120.647 108.123 120.875 108.171 121.047 108.362C121.19 108.524 121.266 108.762 121.266 109.095C121.266 109.429 121.19 109.696 121.047 109.934C120.885 110.191 120.647 110.363 120.342 110.439C120.037 110.515 119.798 110.458 119.636 110.287C119.484 110.115 119.417 109.877 119.417 109.553C119.417 109.229 119.484 108.943 119.636 108.714C119.798 108.447 120.027 108.276 120.342 108.2ZM123.248 109.629C123.067 109.677 122.943 109.782 122.867 109.963C122.791 110.115 122.762 110.315 122.762 110.563C122.762 110.811 122.8 110.982 122.867 111.097C122.943 111.24 123.077 111.287 123.248 111.249C123.42 111.211 123.544 111.087 123.63 110.906C123.696 110.754 123.734 110.563 123.734 110.325C123.734 110.087 123.696 109.906 123.63 109.782C123.544 109.639 123.42 109.591 123.248 109.629ZM120.342 108.505C120.16 108.552 120.037 108.657 119.96 108.838C119.884 108.991 119.856 109.191 119.856 109.439C119.856 109.686 119.894 109.858 119.96 109.972C120.037 110.115 120.17 110.163 120.342 110.125C120.513 110.087 120.637 109.963 120.723 109.782C120.79 109.629 120.828 109.439 120.828 109.2C120.828 108.962 120.79 108.781 120.713 108.667C120.637 108.524 120.504 108.476 120.332 108.514L120.342 108.505Z" fill="#A0B0C8"/>
<path d="M105.827 92.665C106.58 92.4744 107.018 92.7317 107.133 93.4274L106.666 93.5418C106.57 93.0939 106.294 92.9414 105.818 93.0557C105.494 93.132 105.246 93.3512 105.065 93.7229C104.884 94.066 104.798 94.4662 104.798 94.9332C104.798 94.9523 104.798 95.0095 104.798 95.0762H104.817C104.922 94.8379 105.065 94.6283 105.255 94.4662C105.436 94.3042 105.646 94.1899 105.894 94.1327C106.285 94.0374 106.599 94.085 106.837 94.2756C107.076 94.4662 107.19 94.7617 107.19 95.162C107.19 95.5622 107.057 95.9339 106.799 96.258C106.532 96.582 106.208 96.8012 105.808 96.906C105.312 97.0299 104.941 96.9346 104.683 96.6297C104.445 96.3437 104.331 95.8863 104.331 95.2573C104.331 94.6283 104.455 94.0469 104.712 93.5704C104.979 93.0748 105.351 92.7698 105.808 92.6554L105.827 92.665ZM105.808 94.552C105.541 94.6187 105.312 94.7617 105.141 94.9904C104.96 95.2191 104.874 95.4669 104.874 95.7529C104.874 96.0388 104.95 96.258 105.122 96.3914C105.293 96.5439 105.513 96.582 105.799 96.5153C106.084 96.4486 106.294 96.2961 106.466 96.0674C106.637 95.8291 106.723 95.5718 106.723 95.2763C106.723 94.9809 106.637 94.7807 106.475 94.6473C106.304 94.5044 106.084 94.4758 105.799 94.5425L105.808 94.552ZM109.201 91.8263C109.687 91.7024 110.049 91.8263 110.306 92.198C110.526 92.5125 110.63 92.9699 110.63 93.5894C110.63 94.2089 110.526 94.7236 110.306 95.1429C110.059 95.6385 109.687 95.9435 109.201 96.0674C108.715 96.1913 108.343 96.0674 108.095 95.6957C107.876 95.3812 107.771 94.9237 107.771 94.3042C107.771 93.6847 107.876 93.1701 108.095 92.7508C108.343 92.2552 108.705 91.9502 109.201 91.8263ZM109.201 92.2266C108.839 92.3219 108.572 92.5792 108.41 93.0081C108.295 93.313 108.238 93.7038 108.238 94.1803C108.238 94.6568 108.295 95.019 108.41 95.2668C108.572 95.6194 108.829 95.7528 109.201 95.6575C109.573 95.5622 109.83 95.3049 109.992 94.876C110.106 94.5711 110.173 94.1708 110.173 93.7038C110.173 93.2368 110.106 92.8651 109.992 92.6173C109.83 92.2647 109.573 92.1313 109.201 92.2266ZM115.138 92.2742C115.443 92.198 115.672 92.2456 115.844 92.4362C115.987 92.5983 116.063 92.8365 116.063 93.1701C116.063 93.5037 115.987 93.7705 115.844 94.0088C115.682 94.2661 115.443 94.4376 115.138 94.5139C114.833 94.5901 114.595 94.5329 114.433 94.3614C114.281 94.1898 114.214 93.9516 114.214 93.6276C114.214 93.3035 114.281 93.0176 114.433 92.7889C114.595 92.522 114.824 92.3505 115.138 92.2742ZM114.643 90.473L115.005 90.3777L112.718 95.1906L112.346 95.2859L114.643 90.473ZM112.232 91.1592C112.537 91.0829 112.765 91.1306 112.937 91.3212C113.08 91.4832 113.156 91.7215 113.156 92.055C113.156 92.3886 113.08 92.6554 112.937 92.8937C112.775 93.151 112.537 93.3226 112.232 93.3988C111.927 93.4751 111.688 93.4179 111.526 93.2463C111.374 93.0748 111.307 92.8365 111.307 92.5125C111.307 92.1885 111.374 91.9025 111.526 91.6738C111.688 91.4069 111.917 91.2354 112.232 91.1592ZM115.138 92.5887C114.957 92.6364 114.833 92.7412 114.757 92.9223C114.681 93.0748 114.652 93.2749 114.652 93.5227C114.652 93.7705 114.69 93.9421 114.757 94.0564C114.833 94.1994 114.967 94.247 115.138 94.2089C115.31 94.1708 115.434 94.0469 115.52 93.8658C115.586 93.7133 115.624 93.5227 115.624 93.2845C115.624 93.0462 115.586 92.8651 115.52 92.7412C115.434 92.5983 115.31 92.5506 115.138 92.5887ZM112.232 91.4641C112.051 91.5118 111.927 91.6166 111.85 91.7977C111.774 91.9502 111.746 92.1503 111.746 92.3981C111.746 92.6459 111.784 92.8175 111.85 92.9318C111.927 93.0748 112.06 93.1224 112.232 93.0843C112.403 93.0462 112.527 92.9223 112.613 92.7412C112.68 92.5887 112.718 92.3981 112.718 92.1599C112.718 91.9216 112.68 91.7405 112.603 91.6262C112.527 91.4832 112.394 91.4355 112.222 91.4737L112.232 91.4641Z" fill="#A0B0C8"/>
<path d="M97.6681 75.6344C98.0875 75.5295 98.4306 75.5581 98.6688 75.7201C98.888 75.8631 99.0024 76.0918 99.0024 76.3873C99.0024 76.6065 98.9548 76.7971 98.8499 76.9781C98.7356 77.1688 98.5735 77.3308 98.3639 77.4547C98.5735 77.4642 98.7546 77.5404 98.9071 77.6834C99.0691 77.8359 99.1454 78.0456 99.1454 78.3124C99.1454 78.6746 99.0215 78.9986 98.7641 79.275C98.4973 79.5609 98.1351 79.7706 97.6681 79.885C97.2012 79.9993 96.8295 79.9803 96.5721 79.8182C96.3243 79.6657 96.1909 79.3989 96.1909 79.0463C96.1909 78.7794 96.2672 78.5316 96.4292 78.3029C96.5817 78.0837 96.7532 77.9217 96.9724 77.8168C96.7532 77.7882 96.5912 77.7025 96.4864 77.569C96.3815 77.4451 96.3339 77.2736 96.3339 77.0544C96.3339 76.759 96.4387 76.4826 96.6674 76.2252C96.9057 75.9393 97.2393 75.7487 97.6681 75.6439V75.6344ZM97.6681 76.0156C97.3727 76.0918 97.144 76.2157 96.9915 76.4063C96.8485 76.5683 96.7818 76.7494 96.7818 76.9496C96.7818 77.1497 96.8485 77.3117 96.9724 77.407C97.1249 77.5214 97.3536 77.5405 97.6777 77.4642C98.0017 77.388 98.2304 77.245 98.3829 77.0639C98.5068 76.9114 98.5735 76.7208 98.5735 76.5112C98.5735 76.3015 98.4973 76.1681 98.3639 76.0728C98.2018 75.9679 97.9731 75.9489 97.6872 76.0156H97.6681ZM97.6681 77.8264C97.3346 77.9121 97.0868 78.0551 96.9057 78.2648C96.7342 78.4554 96.6579 78.6746 96.6579 78.9224C96.6579 79.1702 96.7342 79.3417 96.9057 79.4465C97.0773 79.5609 97.3346 79.5704 97.6681 79.4942C98.0017 79.418 98.2495 79.2655 98.4306 79.0653C98.5926 78.8747 98.6784 78.665 98.6784 78.4173C98.6784 78.1695 98.5926 77.9884 98.4306 77.8835C98.2495 77.7597 97.9922 77.7501 97.6681 77.8264ZM101.099 74.7766C101.585 74.6527 101.947 74.7766 102.205 75.1483C102.424 75.4628 102.529 75.9203 102.529 76.5397C102.529 77.1592 102.424 77.6739 102.205 78.0932C101.957 78.5888 101.585 78.8938 101.099 79.0177C100.613 79.1416 100.241 79.0177 99.9936 78.646C99.7744 78.3315 99.6695 77.874 99.6695 77.2545C99.6695 76.6351 99.7744 76.1204 99.9936 75.7011C100.241 75.2055 100.604 74.9005 101.099 74.7766ZM101.099 75.1769C100.737 75.2722 100.47 75.5295 100.308 75.9584C100.194 76.2634 100.137 76.6541 100.137 77.1306C100.137 77.6072 100.194 77.9693 100.308 78.2171C100.47 78.5697 100.727 78.7032 101.099 78.6079C101.471 78.5126 101.728 78.2552 101.89 77.8264C102.005 77.5214 102.071 77.1211 102.071 76.6541C102.071 76.1871 102.005 75.8154 101.89 75.5676C101.728 75.215 101.471 75.0816 101.099 75.1769ZM107.037 75.2245C107.342 75.1483 107.57 75.196 107.742 75.3866C107.885 75.5486 107.961 75.7868 107.961 76.1204C107.961 76.454 107.885 76.7208 107.742 76.9591C107.58 77.2164 107.342 77.388 107.037 77.4642C106.732 77.5405 106.493 77.4833 106.331 77.3117C106.179 77.1402 106.112 76.9019 106.112 76.5779C106.112 76.2538 106.179 75.9679 106.331 75.7392C106.493 75.4723 106.722 75.3008 107.037 75.2245ZM106.541 73.4233L106.903 73.328L104.616 78.1409L104.244 78.2362L106.541 73.4233ZM104.13 74.1095C104.435 74.0332 104.664 74.0809 104.835 74.2715C104.978 74.4335 105.054 74.6718 105.054 75.0053C105.054 75.3389 104.978 75.6058 104.835 75.844C104.673 76.1013 104.435 76.2729 104.13 76.3491C103.825 76.4254 103.587 76.3682 103.425 76.1967C103.272 76.0251 103.205 75.7868 103.205 75.4628C103.205 75.1388 103.272 74.8529 103.425 74.6241C103.587 74.3573 103.815 74.1857 104.13 74.1095ZM107.037 75.539C106.856 75.5867 106.732 75.6915 106.655 75.8726C106.579 76.0251 106.551 76.2252 106.551 76.473C106.551 76.7208 106.589 76.8924 106.655 77.0067C106.732 77.1497 106.865 77.1974 107.037 77.1592C107.208 77.1211 107.332 76.9972 107.418 76.8161C107.485 76.6636 107.523 76.473 107.523 76.2348C107.523 75.9965 107.485 75.8154 107.418 75.6915C107.332 75.5486 107.208 75.5009 107.037 75.539ZM104.13 74.4144C103.949 74.4621 103.825 74.5669 103.749 74.748C103.672 74.9005 103.644 75.1006 103.644 75.3484C103.644 75.5962 103.682 75.7678 103.749 75.8821C103.825 76.0251 103.958 76.0728 104.13 76.0346C104.301 75.9965 104.425 75.8726 104.511 75.6915C104.578 75.539 104.616 75.3484 104.616 75.1102C104.616 74.8719 104.578 74.6908 104.502 74.5765C104.425 74.4335 104.292 74.3859 104.12 74.424L104.13 74.4144Z" fill="#A0B0C8"/>
<path d="M88.5003 57.9927L88.8624 57.8974V61.9764L88.3954 62.0908V58.5836C88.1381 58.9076 87.8141 59.1744 87.4329 59.3841V58.9171C87.6139 58.8218 87.8141 58.6884 88.0047 58.5264C88.1953 58.3548 88.3573 58.1737 88.5003 57.9831V57.9927ZM91.1974 57.2398C91.6835 57.1159 92.0456 57.2398 92.3029 57.6114C92.5221 57.926 92.627 58.3834 92.627 59.0029C92.627 59.6224 92.5221 60.137 92.3029 60.5564C92.0551 61.0519 91.6835 61.3569 91.1974 61.4808C90.7114 61.6047 90.3397 61.4808 90.0919 61.1091C89.8727 60.7946 89.7678 60.3372 89.7678 59.7177C89.7678 59.0982 89.8727 58.5836 90.0919 58.1642C90.3397 57.6686 90.7018 57.3637 91.1974 57.2398ZM91.1974 57.64C90.8352 57.7353 90.5684 57.9927 90.4064 58.4215C90.292 58.7265 90.2348 59.1173 90.2348 59.5938C90.2348 60.0703 90.292 60.4325 90.4064 60.6803C90.5684 61.0329 90.8257 61.1663 91.1974 61.071C91.5691 60.9757 91.8264 60.7184 91.9884 60.2895C92.1028 59.9845 92.1695 59.5843 92.1695 59.1173C92.1695 58.6503 92.1028 58.2786 91.9884 58.0308C91.8264 57.6782 91.5691 57.5447 91.1974 57.64ZM94.6284 56.382C95.1144 56.2581 95.4766 56.382 95.7339 56.7537C95.9531 57.0682 96.058 57.5257 96.058 58.1452C96.058 58.7646 95.9531 59.2793 95.7339 59.6986C95.4861 60.1942 95.1144 60.4992 94.6284 60.6231C94.1423 60.747 93.7706 60.6231 93.5228 60.2514C93.3036 59.9369 93.1988 59.4794 93.1988 58.8599C93.1988 58.2405 93.3036 57.7258 93.5228 57.3065C93.7706 56.8109 94.1328 56.5059 94.6284 56.382ZM94.6284 56.7823C94.2662 56.8776 93.9994 57.1349 93.8373 57.5638C93.723 57.8688 93.6658 58.2595 93.6658 58.736C93.6658 59.2126 93.723 59.5747 93.8373 59.8225C93.9994 60.1751 94.2567 60.3086 94.6284 60.2133C95.0001 60.118 95.2574 59.8606 95.4194 59.4318C95.5338 59.1268 95.6005 58.7265 95.6005 58.2595C95.6005 57.7925 95.5338 57.4208 95.4194 57.173C95.2574 56.8204 95.0001 56.687 94.6284 56.7823ZM100.566 56.8299C100.871 56.7537 101.1 56.8014 101.271 56.992C101.414 57.154 101.49 57.3922 101.49 57.7258C101.49 58.0594 101.414 58.3262 101.271 58.5645C101.109 58.8218 100.871 58.9934 100.566 59.0696C100.261 59.1459 100.023 59.0887 99.8606 58.9171C99.7081 58.7456 99.6414 58.5073 99.6414 58.1833C99.6414 57.8592 99.7081 57.5733 99.8606 57.3446C100.023 57.0777 100.251 56.9062 100.566 56.8299ZM100.07 55.0287L100.432 54.9334L98.1451 59.7463L97.7734 59.8416L100.07 55.0287ZM97.6591 55.7149C97.9641 55.6386 98.1928 55.6863 98.3643 55.8769C98.5073 56.0389 98.5835 56.2772 98.5835 56.6107C98.5835 56.9443 98.5073 57.2112 98.3643 57.4494C98.2023 57.7068 97.9641 57.8783 97.6591 57.9545C97.3541 58.0308 97.1158 57.9736 96.9538 57.8021C96.8013 57.6305 96.7346 57.3922 96.7346 57.0682C96.7346 56.7442 96.8013 56.4583 96.9538 56.2295C97.1158 55.9627 97.3446 55.7911 97.6591 55.7149ZM100.566 57.1445C100.385 57.1921 100.261 57.2969 100.185 57.478C100.108 57.6305 100.08 57.8306 100.08 58.0784C100.08 58.3262 100.118 58.4978 100.185 58.6121C100.261 58.7551 100.394 58.8028 100.566 58.7646C100.737 58.7265 100.861 58.6026 100.947 58.4215C101.014 58.269 101.052 58.0784 101.052 57.8402C101.052 57.6019 101.014 57.4208 100.947 57.2969C100.861 57.154 100.737 57.1063 100.566 57.1445ZM97.6591 56.0199C97.478 56.0675 97.3541 56.1723 97.2779 56.3534C97.2016 56.5059 97.173 56.706 97.173 56.9538C97.173 57.2016 97.2111 57.3732 97.2779 57.4876C97.3541 57.6305 97.4875 57.6782 97.6591 57.64C97.8306 57.6019 97.9545 57.478 98.0403 57.2969C98.107 57.1445 98.1451 56.9538 98.1451 56.7156C98.1451 56.4773 98.107 56.2962 98.0308 56.1819C97.9545 56.0389 97.8211 55.9913 97.6495 56.0294L97.6591 56.0199Z" fill="#A0B0C8"/>
<path d="M137.896 128.862V30.6977" stroke="#B8C8D8"/>
<path d="M120.008 8.46307C120.657 8.79664 121.2 9.14926 121.638 9.52095L121.143 10.15C120.752 9.76875 120.218 9.39706 119.532 9.02537L120.008 8.46307ZM125.793 15.4394C125.25 15.5728 124.659 15.7158 124.021 15.8587C123.373 16.0112 122.858 16.0779 122.458 16.0779C122.058 16.0589 121.714 15.9064 121.409 15.6395C121.276 15.5061 121.143 15.468 121.019 15.4966C120.79 15.5538 120.399 16.0875 119.865 17.1167L119.351 16.7737C119.865 15.8397 120.313 15.2297 120.714 14.9533V12.0751L119.341 12.4182V11.7511L121.371 11.246V14.8294C121.448 14.8676 121.524 14.9152 121.61 14.9915C121.857 15.2011 122.115 15.3345 122.391 15.4013C122.696 15.4489 123.153 15.4013 123.744 15.2774C124.269 15.1535 124.917 15.001 125.698 14.8104C126.117 14.7055 126.546 14.5912 126.994 14.4768C127.433 14.3624 127.766 14.2671 127.995 14.1909L127.833 14.9247L125.793 15.4299V15.4394ZM122.067 11.0458L124.564 10.4263V8.42495C123.906 8.68227 123.22 8.93006 122.496 9.17786L122.353 8.56791C124.107 8.00561 125.65 7.38613 126.985 6.69993L127.213 7.26223C126.604 7.5672 125.946 7.86265 125.241 8.15809V10.2643L127.738 9.64485V10.2739L125.241 10.8933V14.4101L124.564 14.5816V11.0649L122.067 11.6844V11.0554V11.0458ZM134.457 4.69853L135.143 4.52698V5.6897L136.954 5.24177V5.86125L135.143 6.30918V7.68157L137.506 7.09068V7.73875L135.152 8.32964V9.94983L137.087 9.46377V10.0833L135.152 10.5693V12.4182C135.495 12.3706 135.886 12.3039 136.325 12.1895C136.763 12.0751 137.135 11.9703 137.497 11.8559L137.363 12.5612L136.792 12.7041C135.353 13.0663 134.361 13.1616 133.809 12.9901C133.38 12.8471 132.998 12.5612 132.655 12.1514C132.408 12.8566 132.112 13.4761 131.75 14.0098L131.178 13.7525C131.902 12.6755 132.369 11.3127 132.579 9.67344L133.218 9.60673C133.132 10.2357 133.018 10.8171 132.884 11.3603C133.189 11.8178 133.513 12.1418 133.875 12.3134C134.028 12.3801 134.228 12.4182 134.466 12.4373V8.49166L131.74 9.16833V8.52025L132.646 8.29152V5.83266L133.313 5.67064V8.1295L134.457 7.84359V4.689V4.69853ZM130.749 5.75641L131.35 5.88031C130.883 7.04303 130.13 8.16762 129.081 9.22551L128.881 8.60603C129.739 7.70063 130.359 6.73805 130.749 5.74688V5.75641ZM131.035 7.96748L131.626 8.10091C131.359 8.72992 131.016 9.33987 130.597 9.94029V14.3148L129.93 14.4768V10.798C129.634 11.1411 129.32 11.4842 128.977 11.8178L128.776 11.2078C129.806 10.169 130.559 9.08255 131.035 7.96748ZM138.783 4.02186L141.738 3.28802V6.29965L140.794 6.53791V8.02467L141.852 7.75781V8.40589L140.794 8.67274V10.4263C141.233 10.1976 141.652 9.96889 142.052 9.74015V10.4168C141.023 11.0077 139.813 11.6272 138.431 12.2657L138.24 11.6463C138.412 11.57 138.593 11.4938 138.764 11.408V7.99608L139.374 7.84359V11.1221C139.641 10.9982 139.908 10.8648 140.156 10.7504V6.6904L138.783 7.0335V4.02186ZM141.071 5.82313V4.08858L139.451 4.48886V6.22341L141.071 5.82313ZM146.408 7.5958L143.168 8.40589V10.2548L146.884 9.33034V9.98795L142.51 11.0744V3.04975L146.741 1.99187V2.64947L143.168 3.53581V5.15599L146.408 4.3459V7.58627V7.5958ZM143.168 5.79453V7.76734L145.76 7.11927V5.14646L143.168 5.79453ZM154.576 3.5644V1.49629L155.233 1.33427V3.97421L152.174 4.73665C152.098 4.99397 152.021 5.23224 151.945 5.46097L155.824 4.49839V7.33847C155.824 7.85312 155.557 8.18669 155.023 8.32011L154.223 8.52025L154.051 7.9103L154.804 7.74828C155.042 7.6911 155.166 7.55767 155.166 7.35753V5.27989L153.422 5.71829C153.804 6.20435 154.166 6.74758 154.499 7.32894L153.946 7.73875C153.861 7.5672 153.775 7.41472 153.699 7.27176C152.965 7.58627 151.802 8.04373 150.211 8.61556L150.049 8.0342C150.201 7.97701 150.296 7.91983 150.344 7.84359C150.592 7.40519 150.821 6.89054 151.049 6.29965L149.238 6.74758V9.74968L148.581 9.9117V6.29012L151.287 5.61345C151.364 5.38472 151.43 5.13693 151.507 4.88914L149.162 5.4705V2.84008L149.82 2.67807V4.74618L154.576 3.5644ZM153.213 5.76594L151.707 6.13763C151.478 6.74758 151.24 7.27176 151.011 7.72922C151.85 7.43378 152.65 7.1288 153.413 6.80477C153.222 6.51885 153.041 6.26153 152.86 6.01374L153.213 5.75641V5.76594ZM150.658 2.28732C151.259 2.35403 151.831 2.45886 152.383 2.59229C152.774 2.24919 153.127 1.89657 153.451 1.50582L153.937 1.67737C153.603 2.06811 153.27 2.41121 152.946 2.72572C153.356 2.83055 153.746 2.96398 154.128 3.10694L153.813 3.65971C153.346 3.4691 152.879 3.30708 152.412 3.19271C151.917 3.59299 151.297 4.02186 150.535 4.47933L150.23 4.05999C150.821 3.74548 151.345 3.41191 151.821 3.04022C151.335 2.93539 150.849 2.84008 150.363 2.79243L150.658 2.27779V2.28732ZM152.326 0.19061C152.441 0.39075 152.546 0.629012 152.641 0.905396L156.281 0V0.629012L148.104 2.66854V2.02999L151.955 1.06741C151.85 0.848213 151.735 0.657603 151.621 0.476524L152.326 0.19061Z" fill="#6E6262"/>
<path d="M132.122 18.2128L132.656 18.0794C132.341 18.6608 132.103 19.2516 131.931 19.8425C131.703 20.5669 131.598 21.253 131.598 21.9106C131.598 22.5683 131.703 23.1973 131.931 23.8072C132.103 24.3028 132.341 24.7698 132.656 25.2082L132.122 25.3416C131.788 24.9318 131.531 24.4648 131.34 23.9692C131.112 23.3688 131.007 22.7303 131.007 22.0727C131.007 21.4151 131.112 20.7003 131.34 19.995C131.531 19.3946 131.788 18.8037 132.122 18.2319V18.2128ZM133.571 18.6036L134.18 18.4511V21.8916L136.153 19.5662L136.963 19.366L135.229 21.3865L137.135 23.264L136.353 23.4641L134.809 21.8916L134.18 22.6159V24.0074L133.571 24.1598V18.6131V18.6036ZM139.327 18.6703C139.927 18.5178 140.337 18.6703 140.566 19.1087C140.718 18.8132 140.899 18.575 141.119 18.4034C141.309 18.2319 141.538 18.1175 141.814 18.0508C142.224 17.946 142.558 17.9936 142.815 18.1938C143.063 18.4034 143.187 18.7275 143.187 19.1754V21.7582L142.577 21.9106V19.4232C142.577 19.0706 142.501 18.8323 142.358 18.6989C142.205 18.5559 141.957 18.5273 141.624 18.6131C141.366 18.6798 141.147 18.8228 140.976 19.061C140.795 19.3088 140.709 19.5757 140.709 19.8997V22.3681L140.099 22.5206V20.0331C140.099 19.3279 139.794 19.061 139.194 19.2135C138.908 19.2802 138.679 19.4518 138.498 19.7186C138.317 19.976 138.221 20.2714 138.221 20.5764V22.9781L137.611 23.1306V19.1849L138.221 19.0324V19.5566C138.517 19.0515 138.889 18.7561 139.336 18.6417L139.327 18.6703ZM144.092 15.2202L144.626 15.0868C144.95 15.4966 145.217 15.9541 145.407 16.4592C145.627 17.0596 145.741 17.6982 145.741 18.3748C145.741 19.0515 145.627 19.7282 145.407 20.443C145.207 21.0434 144.95 21.6343 144.626 22.2061L144.092 22.3395C144.397 21.7486 144.645 21.1673 144.816 20.5764C145.036 19.8521 145.15 19.1563 145.15 18.5083C145.15 17.8602 145.036 17.2217 144.816 16.6117C144.645 16.1066 144.397 15.6396 144.092 15.2107V15.2202Z" fill="#6A80A0"/>
<path d="M138.373 29.6211C138.639 29.5544 138.849 29.2876 138.849 29.0303C138.849 28.7729 138.639 28.6109 138.373 28.6681C138.106 28.7253 137.896 29.0017 137.896 29.259C137.896 29.5163 138.106 29.6783 138.373 29.6211Z" fill="#B8C8D8"/>
<path d="M137.896 128.861L223.67 57.9163" stroke="#B8C8D8"/>
<path d="M234.374 44.7553C235.022 45.0889 235.566 45.4415 236.004 45.8132L235.509 46.4422C235.118 46.061 234.584 45.6893 233.898 45.3176L234.374 44.7553ZM240.159 51.7317C239.616 51.8651 239.025 52.008 238.387 52.151C237.739 52.3035 237.224 52.3702 236.824 52.3702C236.423 52.3511 236.08 52.1987 235.775 51.9318C235.642 51.7984 235.509 51.7602 235.385 51.7888C235.156 51.846 234.765 52.3797 234.231 53.409L233.717 53.0659C234.231 52.1319 234.679 51.522 235.08 51.2456V48.3674L233.707 48.7105V48.0434L235.737 47.5382V51.1217C235.814 51.1598 235.89 51.2075 235.976 51.2837C236.223 51.4934 236.481 51.6268 236.757 51.6935C237.062 51.7412 237.519 51.6935 238.11 51.5696C238.635 51.4457 239.283 51.2933 240.064 51.1026C240.483 50.9978 240.912 50.8834 241.36 50.7691C241.799 50.6547 242.132 50.5594 242.361 50.4832L242.199 51.217L240.159 51.7221V51.7317ZM236.433 47.3381L238.93 46.7186V44.7172C238.272 44.9745 237.586 45.2223 236.862 45.4701L236.719 44.8602C238.473 44.2979 240.016 43.6784 241.351 42.9922L241.579 43.5545C240.969 43.8595 240.312 44.1549 239.607 44.4504V46.5566L242.104 45.9371V46.5661L239.607 47.1856V50.7024L238.93 50.8739V47.3572L236.433 47.9766V47.3476V47.3381ZM248.823 40.9908L249.509 40.8193V41.982L251.32 41.534V42.1535L249.509 42.6015V43.9738L251.872 43.383V44.031L249.518 44.6219V46.2421L251.453 45.756V46.3755L249.518 46.8616V48.7105C249.861 48.6628 250.252 48.5961 250.691 48.4818C251.129 48.3674 251.501 48.2626 251.863 48.1482L251.729 48.8535L251.158 48.9964C249.718 49.3586 248.727 49.4539 248.175 49.2823C247.746 49.1394 247.364 48.8535 247.021 48.4436C246.774 49.1489 246.478 49.7684 246.116 50.3021L245.544 50.0448C246.268 48.9678 246.735 47.605 246.945 45.9657L247.584 45.899C247.498 46.528 247.384 47.1094 247.25 47.6526C247.555 48.1101 247.879 48.4341 248.241 48.6057C248.394 48.6724 248.594 48.7105 248.832 48.7296V44.7839L246.106 45.4606V44.8125L247.012 44.5838V42.1249L247.679 41.9629V44.4218L248.823 44.1359V40.9813V40.9908ZM245.115 42.0487L245.716 42.1726C245.249 43.3353 244.496 44.4599 243.447 45.5178L243.247 44.8983C244.105 43.9929 244.725 43.0303 245.115 42.0392V42.0487ZM245.401 44.2598L245.992 44.3932C245.725 45.0222 245.382 45.6321 244.963 46.2326V50.6071L244.296 50.7691V47.0903C244 47.4334 243.686 47.7765 243.343 48.1101L243.142 47.5001C244.172 46.4613 244.925 45.3748 245.401 44.2598ZM256.371 40.5143C256.199 40.8288 256.028 41.1338 255.837 41.4292L260.679 40.2188C260.65 41.067 260.621 41.8104 260.602 42.468L261.412 42.2679V42.9064L260.574 43.1161C260.536 43.8214 260.507 44.3932 260.478 44.8316L261.26 44.641V45.2319L260.431 45.4415C260.402 45.7179 260.374 45.8799 260.354 45.9657C260.259 46.2898 260.078 46.5661 259.811 46.7853C259.544 46.9855 259.163 47.1475 258.649 47.2714C258.41 47.3286 258.134 47.4048 257.819 47.4906L257.619 46.9092C257.962 46.8425 258.277 46.7853 258.563 46.7091C258.82 46.6424 259.049 46.5566 259.259 46.4613C259.468 46.3469 259.621 46.1659 259.716 45.9181C259.735 45.8704 259.754 45.756 259.773 45.6036L255.237 46.7377C255.389 45.9371 255.523 45.1461 255.618 44.3551L254.665 44.5933V43.9548L255.685 43.6975C255.761 42.9446 255.808 42.1916 255.828 41.4387C255.627 41.7437 255.418 42.0392 255.199 42.306L254.76 41.8867C255.408 41.1052 255.932 40.1617 256.342 39.0561L257.028 39.0275C256.933 39.2848 256.828 39.5422 256.723 39.7804L261.126 38.6844V39.323L256.371 40.5047V40.5143ZM256.266 44.193C256.19 44.8221 256.104 45.4129 255.999 45.9562L259.83 45.0031C259.859 44.5647 259.888 44.0024 259.926 43.2877L256.266 44.2026V44.193ZM259.954 42.6396C259.973 42.144 259.992 41.5912 260.011 41.0099L256.447 41.8962C256.418 42.4776 256.38 43.0303 256.333 43.545L259.954 42.6396ZM257.724 41.7342C258.201 41.9248 258.601 42.1345 258.925 42.3727L258.487 42.916C258.201 42.6777 257.8 42.468 257.295 42.2584L257.724 41.7342ZM257.638 43.9643C258.115 44.193 258.506 44.4313 258.83 44.6982L258.382 45.2509C258.096 44.9936 257.705 44.7458 257.209 44.498L257.638 43.9738V43.9643ZM253.369 40.0378C253.94 40.276 254.427 40.5429 254.827 40.8478L254.341 41.4673C253.988 41.1719 253.502 40.8955 252.873 40.6286L253.369 40.0378ZM253.216 42.3918C253.788 42.6491 254.274 42.935 254.674 43.24L254.188 43.8499C253.836 43.5545 253.35 43.2781 252.721 42.9922L253.216 42.3918ZM254.198 44.9364L254.789 45.0222C254.388 46.223 253.931 47.3762 253.435 48.4722L252.797 48.3579C253.331 47.2237 253.798 46.0896 254.198 44.9364ZM262.327 39.3897L263.433 39.1133V37.3692L264.119 37.1977V38.9417L265.196 38.6749V39.3325L264.119 39.5994V41.6579C264.538 41.3816 264.939 41.1052 265.329 40.8097V41.5055C264.929 41.7914 264.529 42.0677 264.119 42.3441V44.9841C264.119 45.5368 263.852 45.8895 263.328 46.0229L262.499 46.2326L262.356 45.6131C262.604 45.5845 262.851 45.5368 263.09 45.4797C263.328 45.4225 263.433 45.2605 263.433 44.9936V42.7825C263.071 42.9827 262.718 43.1923 262.365 43.383L262.203 42.7254C262.623 42.5252 263.033 42.306 263.433 42.0868V39.7804L262.327 40.0568V39.3992V39.3897ZM265.596 38.3413L266.654 38.0745C266.673 37.5979 266.692 37.0833 266.702 36.5496L267.388 36.378C267.369 36.9213 267.359 37.4359 267.34 37.9029L270.8 37.0357V37.6933L267.302 38.5701C267.264 39.0561 267.236 39.504 267.197 39.9139L270.333 39.1324V39.7137C270.104 40.9241 269.685 42.001 269.056 42.9446C269.599 43.2686 270.247 43.4878 271 43.5831L270.647 44.2979C269.847 44.174 269.161 43.9262 268.608 43.5545C268.093 44.174 267.483 44.7458 266.778 45.2509L266.425 44.7172C267.083 44.2598 267.645 43.7451 268.112 43.1733C267.617 42.7349 267.245 42.1821 266.978 41.5245C266.94 41.7056 266.911 41.8771 266.873 42.0392C266.559 43.3448 266.035 44.5361 265.291 45.6131L264.853 45.1747C265.501 44.2121 265.958 43.1447 266.244 41.9534C266.416 41.1719 266.549 40.0949 266.626 38.7321L265.596 38.9894V38.3318V38.3413ZM267.274 40.5143C267.521 41.3911 267.95 42.0773 268.551 42.5919C269.084 41.7914 269.466 40.8955 269.694 39.9139L267.274 40.5143ZM269.037 35.9301C269.485 36.2256 269.828 36.5019 270.076 36.7497L269.561 37.2358C269.304 36.9594 268.961 36.6735 268.522 36.378L269.037 35.9301Z" fill="#6E6262"/>
<path d="M234.764 58.3745L235.298 58.241C234.984 58.8224 234.745 59.4133 234.574 60.0042C234.345 60.7285 234.24 61.4147 234.24 62.0723C234.24 62.7299 234.345 63.3589 234.574 63.9689C234.745 64.4644 234.984 64.9314 235.298 65.3698L234.764 65.5033C234.431 65.0935 234.174 64.6265 233.983 64.1309C233.754 63.5305 233.649 62.8919 233.649 62.2343C233.649 61.5767 233.754 60.8619 233.983 60.1567C234.174 59.5562 234.431 58.9654 234.764 58.3935V58.3745ZM237.938 59.8422C238.539 59.6897 238.948 59.8422 239.177 60.2806C239.33 59.9851 239.511 59.7469 239.73 59.5753C239.92 59.4038 240.149 59.2894 240.426 59.2227C240.835 59.1178 241.169 59.1655 241.426 59.3656C241.674 59.5753 241.798 59.8993 241.798 60.3473V62.93L241.188 63.0825V60.5951C241.188 60.2424 241.112 60.0042 240.969 59.8708C240.816 59.7278 240.569 59.6992 240.235 59.785C239.978 59.8517 239.758 59.9946 239.587 60.2329C239.406 60.4807 239.32 60.7476 239.32 61.0716V63.54L238.71 63.6925V61.205C238.71 60.4998 238.405 60.2329 237.805 60.3854C237.519 60.4521 237.29 60.6237 237.109 60.8905C236.928 61.1478 236.833 61.4433 236.833 61.7483V64.1499L236.223 64.3024V60.3568L236.833 60.2043V60.7285C237.128 60.2234 237.5 59.9279 237.948 59.8136L237.938 59.8422ZM242.703 56.3921L243.237 56.2587C243.561 56.6685 243.828 57.126 244.019 57.6311C244.238 58.2315 244.352 58.8701 244.352 59.5467C244.352 60.2234 244.238 60.9 244.019 61.6148C243.818 62.2153 243.561 62.8061 243.237 63.378L242.703 63.5114C243.008 62.9205 243.256 62.3391 243.428 61.7483C243.647 61.0239 243.761 60.3282 243.761 59.6801C243.761 59.0321 243.647 58.3935 243.428 57.7836C243.256 57.2785 243.008 56.8115 242.703 56.3826V56.3921Z" fill="#6A80A0"/>
<path d="M224.623 57.6782C225.148 57.5448 225.577 57.2302 225.577 56.9634C225.577 56.6965 225.148 56.5917 224.623 56.7251C224.099 56.8586 223.67 57.1731 223.67 57.4399C223.67 57.7068 224.099 57.8116 224.623 57.6782Z" fill="#B8C8D8"/>
<path d="M137.896 128.862L223.67 156.081" stroke="#B8C8D8"/>
<path d="M241.369 154.803L241.76 155.251C241.036 156.042 240.216 156.757 239.282 157.405V157.424C240.273 157.596 241.179 157.872 242.018 158.244L241.617 158.94C240.874 158.539 240.111 158.254 239.33 158.082C239.416 159.264 239.568 160.055 239.797 160.465C240.159 161.16 240.588 161.437 241.064 161.341C241.198 161.303 241.312 161.179 241.408 160.96C241.503 160.751 241.579 160.303 241.636 159.635L242.294 159.693C242.199 160.531 242.018 161.179 241.741 161.608C241.531 161.847 241.322 162.009 241.103 162.066C240.378 162.237 239.768 161.923 239.282 161.122C238.787 160.303 238.539 158.377 238.539 155.356L233.554 156.595V155.909L239.225 154.499V155.166C239.225 155.728 239.225 156.252 239.254 156.729C240.026 156.166 240.731 155.518 241.369 154.803ZM246.783 152.669L251.348 151.535V152.211L246.783 153.345V152.669ZM246.525 155.156L251.767 153.85V154.527L250.223 154.908V159.073C250.223 159.626 249.909 159.979 249.299 160.131L247.898 160.484L247.755 159.845C248.212 159.759 248.641 159.674 249.061 159.569C249.366 159.492 249.528 159.33 249.528 159.083V155.089L246.525 155.842V155.166V155.156ZM245.277 152.526L245.896 152.659C245.363 153.85 244.505 154.994 243.323 156.1L243.123 155.461C244.114 154.508 244.829 153.526 245.277 152.526ZM245.725 154.584L246.344 154.718C246.068 155.318 245.725 155.919 245.306 156.5V161.17L244.629 161.341V157.367C244.248 157.806 243.838 158.244 243.38 158.673L243.18 158.034C244.343 156.929 245.191 155.776 245.725 154.584ZM255.637 150.639L258.067 150.029V149.257L258.705 149.095V149.867L261.098 149.266V149.895L258.705 150.496V151.306L260.783 150.791V153.221L258.705 153.736V156.652L258.067 156.814V154.174C257.581 155.147 256.828 156.052 255.808 156.91L255.379 156.471C256.428 155.68 257.171 154.851 257.619 154.003L255.989 154.413V151.982L258.067 151.468V150.658L255.637 151.268V150.639ZM260.154 152.773V151.554L258.705 151.916V153.136L260.154 152.773ZM258.067 153.298V152.078L256.628 152.44V153.66L258.067 153.298ZM259.458 153.85C260.135 154.222 260.707 154.622 261.174 155.061L260.716 155.633C260.297 155.204 259.735 154.794 259.01 154.384L259.458 153.85ZM253.464 150.562C254.121 150.896 254.674 151.249 255.122 151.639L254.636 152.24C254.236 151.859 253.692 151.496 252.997 151.134L253.464 150.572V150.562ZM259.02 157.596C258.496 157.729 257.924 157.863 257.314 158.006C256.704 158.149 256.199 158.215 255.818 158.206C255.436 158.187 255.103 158.034 254.807 157.758C254.674 157.625 254.55 157.586 254.436 157.615C254.207 157.672 253.835 158.206 253.321 159.207L252.806 158.863C253.302 157.939 253.75 157.339 254.131 157.072V154.174L252.777 154.508V153.879L254.769 153.383V156.948C254.846 156.986 254.922 157.034 255.008 157.11C255.236 157.329 255.484 157.472 255.751 157.529C256.046 157.586 256.475 157.558 257.047 157.434C257.552 157.32 258.181 157.167 258.925 156.986C259.382 156.872 259.84 156.748 260.307 156.624C260.774 156.5 261.136 156.395 261.383 156.319L261.212 157.043L259.02 157.586V157.596ZM264.281 152.955L269.866 151.563V152.068C269.332 152.85 268.684 153.574 267.912 154.222C268.77 154.375 269.761 154.384 270.895 154.251L270.599 154.918C269.284 155.023 268.169 154.975 267.264 154.737C266.301 155.432 265.186 156.052 263.928 156.576L263.633 156.052C264.738 155.614 265.729 155.108 266.587 154.537C265.882 154.27 265.3 153.898 264.862 153.403L264.281 153.545V152.955ZM265.586 153.221C266.025 153.612 266.568 153.889 267.226 154.07C267.893 153.555 268.474 152.983 268.97 152.373L265.586 153.221ZM263.728 150.963V151.706C263.69 153.736 263.347 155.442 262.699 156.824L262.184 156.49C262.737 155.299 263.023 153.755 263.042 151.878V148.771L266.711 147.856C266.597 147.637 266.482 147.446 266.349 147.265L267.073 146.969C267.188 147.179 267.302 147.417 267.407 147.675L270.676 146.855V147.503L263.728 149.238V150.324L265.329 149.924V149.152L265.996 148.99V149.762L268.522 149.133V148.351L269.189 148.189V148.971L270.657 148.609V149.238L269.189 149.6V151.087L265.329 152.049V150.562L263.728 150.963ZM265.996 150.4V151.306L268.522 150.677V149.771L265.996 150.4Z" fill="#6E6262"/>
<path d="M234.764 168.928L235.298 168.795C234.984 169.376 234.745 169.967 234.574 170.558C234.345 171.282 234.24 171.968 234.24 172.626C234.24 173.283 234.345 173.912 234.574 174.522C234.745 175.018 234.984 175.485 235.298 175.923L234.764 176.057C234.431 175.647 234.174 175.18 233.983 174.684C233.754 174.084 233.649 173.445 233.649 172.788C233.649 172.13 233.754 171.415 233.983 170.71C234.174 170.11 234.431 169.519 234.764 168.947V168.928ZM236.213 169.319L236.823 169.166V172.607L238.796 170.281L239.606 170.081L237.871 172.102L239.778 173.979L238.996 174.179L237.452 172.607L236.823 173.331V174.722L236.213 174.875V169.328V169.319ZM241.97 169.385C242.57 169.233 242.98 169.385 243.208 169.824C243.361 169.528 243.542 169.29 243.761 169.119C243.952 168.947 244.181 168.833 244.457 168.766C244.867 168.661 245.2 168.709 245.458 168.909C245.705 169.119 245.829 169.443 245.829 169.891V172.473L245.219 172.626V170.138C245.219 169.786 245.143 169.547 245 169.414C244.848 169.271 244.6 169.242 244.266 169.328C244.009 169.395 243.79 169.538 243.618 169.776C243.437 170.024 243.351 170.291 243.351 170.615V173.083L242.741 173.236V170.748C242.741 170.043 242.437 169.776 241.836 169.929C241.55 169.995 241.321 170.167 241.14 170.434C240.959 170.691 240.864 170.987 240.864 171.292V173.693L240.254 173.846V169.9L240.864 169.748V170.272C241.159 169.767 241.531 169.471 241.979 169.357L241.97 169.385ZM249.289 165.354L249.832 165.221L247.135 172.912L246.582 173.045L249.289 165.354ZM250.585 165.735L251.195 165.583V167.841C251.328 167.556 251.519 167.317 251.748 167.136C251.957 166.965 252.196 166.841 252.463 166.774C252.92 166.66 253.282 166.698 253.52 166.917C253.768 167.127 253.883 167.479 253.883 167.984V170.472L253.273 170.624V168.232C253.273 167.87 253.177 167.603 253.015 167.451C252.834 167.298 252.577 167.26 252.253 167.346C251.948 167.422 251.7 167.603 251.5 167.899C251.29 168.194 251.195 168.528 251.195 168.899V171.149L250.585 171.301V165.754V165.735ZM254.788 163.934L255.322 163.801C255.646 164.21 255.913 164.668 256.103 165.173C256.322 165.773 256.437 166.412 256.437 167.089C256.437 167.765 256.322 168.442 256.103 169.157C255.903 169.757 255.646 170.348 255.322 170.92L254.788 171.053C255.093 170.462 255.341 169.881 255.512 169.29C255.732 168.566 255.846 167.87 255.846 167.222C255.846 166.574 255.732 165.935 255.512 165.325C255.341 164.82 255.093 164.353 254.788 163.924V163.934Z" fill="#6A80A0"/>
<path d="M224.623 157.748C225.148 157.615 225.577 157.081 225.577 156.557C225.577 156.033 225.148 155.709 224.623 155.842C224.099 155.976 223.67 156.509 223.67 157.034C223.67 157.558 224.099 157.882 224.623 157.748Z" fill="#B8C8D8"/>
<path d="M137.896 128.862V227.026" stroke="#B8C8D8"/>
<path d="M120.008 240.054C120.657 240.388 121.2 240.74 121.638 241.112L121.143 241.741C120.752 241.36 120.218 240.988 119.532 240.616L120.008 240.054ZM125.793 247.03C125.25 247.164 124.659 247.307 124.021 247.45C123.373 247.602 122.858 247.669 122.458 247.669C122.058 247.65 121.714 247.497 121.409 247.23C121.276 247.097 121.143 247.059 121.019 247.087C120.79 247.145 120.399 247.678 119.865 248.708L119.351 248.365C119.865 247.431 120.313 246.821 120.714 246.544V243.666L119.341 244.009V243.342L121.371 242.837V246.42C121.448 246.458 121.524 246.506 121.61 246.582C121.857 246.792 122.115 246.925 122.391 246.992C122.696 247.04 123.153 246.992 123.744 246.868C124.269 246.744 124.917 246.592 125.698 246.401C126.117 246.296 126.546 246.182 126.994 246.068C127.433 245.953 127.766 245.858 127.995 245.782L127.833 246.516L125.793 247.021V247.03ZM122.067 242.637L124.564 242.017V240.016C123.906 240.273 123.22 240.521 122.496 240.769L122.353 240.159C124.107 239.597 125.65 238.977 126.985 238.291L127.213 238.853C126.604 239.158 125.946 239.454 125.241 239.749V241.855L127.738 241.236V241.865L125.241 242.484V246.001L124.564 246.173V242.656L122.067 243.275V242.646V242.637ZM134.457 236.289L135.143 236.118V237.281L136.954 236.833V237.452L135.143 237.9V239.273L137.506 238.682V239.33L135.152 239.921V241.541L137.087 241.055V241.674L135.152 242.16V244.009C135.495 243.962 135.886 243.895 136.325 243.78C136.763 243.666 137.135 243.561 137.497 243.447L137.363 244.152L136.792 244.295C135.353 244.657 134.361 244.753 133.809 244.581C133.38 244.438 132.998 244.152 132.655 243.742C132.408 244.448 132.112 245.067 131.75 245.601L131.178 245.343C131.902 244.266 132.369 242.904 132.579 241.264L133.218 241.198C133.132 241.827 133.018 242.408 132.884 242.951C133.189 243.409 133.513 243.733 133.875 243.904C134.028 243.971 134.228 244.009 134.466 244.028V240.083L131.74 240.759V240.111L132.646 239.882V237.424L133.313 237.262V239.72L134.457 239.435V236.28V236.289ZM130.749 237.347L131.35 237.471C130.883 238.634 130.13 239.759 129.081 240.816L128.881 240.197C129.739 239.292 130.359 238.329 130.749 237.338V237.347ZM131.035 239.558L131.626 239.692C131.359 240.321 131.016 240.931 130.597 241.531V245.906L129.93 246.068V242.389C129.634 242.732 129.32 243.075 128.977 243.409L128.776 242.799C129.806 241.76 130.559 240.673 131.035 239.558ZM141.423 235.279V242.303L140.756 242.465V241.827L139.346 242.179V243.047L138.679 243.209V235.956L141.423 235.27V235.279ZM139.346 241.541L140.756 241.188V238.891L139.346 239.244V241.541ZM139.346 238.605L140.756 238.253V236.07L139.346 236.423V238.605ZM142.796 237.776C143.387 238.529 143.844 239.196 144.159 239.778L143.587 240.321C143.253 239.692 142.805 238.996 142.234 238.262L142.796 237.767V237.776ZM144.969 242.322L143.301 242.742L143.158 242.113C143.711 241.998 144.235 241.884 144.74 241.76C145.016 241.693 145.159 241.503 145.159 241.207V236.051L141.862 236.871V236.213L145.159 235.394V233.716L145.855 233.545V235.222L147.027 234.927V235.584L145.855 235.88V241.207C145.855 241.808 145.56 242.189 144.969 242.332V242.322ZM148.009 236.613L149.944 236.127V232.477L150.63 232.306V235.956L156.405 234.517V235.184L153.27 235.965C153.67 237.395 154.757 238.31 156.52 238.729L156.119 239.463C154.194 238.92 153.032 237.814 152.612 236.127L150.63 236.623V240.073C151.345 239.72 152.059 239.33 152.765 238.882L152.946 239.492C152.012 240.044 151.011 240.578 149.944 241.093L149.724 240.521C149.867 240.407 149.944 240.283 149.944 240.13V236.795L148.009 237.281V236.613ZM154.957 231.305L155.424 231.658C154.661 232.706 153.508 233.764 151.983 234.831L151.573 234.393C153.089 233.345 154.213 232.325 154.957 231.305Z" fill="#6E6262"/>
<path d="M133.589 249.432L134.122 249.298C133.808 249.879 133.57 250.47 133.398 251.061C133.169 251.786 133.065 252.472 133.065 253.129C133.065 253.787 133.169 254.416 133.398 255.026C133.57 255.522 133.808 255.989 134.122 256.427L133.589 256.56C133.255 256.151 132.998 255.684 132.807 255.188C132.578 254.588 132.474 253.949 132.474 253.291C132.474 252.634 132.578 251.919 132.807 251.214C132.998 250.613 133.255 250.022 133.589 249.451V249.432ZM135.171 251.814L137.935 251.128C138.03 250.585 138.087 249.984 138.125 249.327L135.361 250.013V249.479L141.385 247.973V248.507L138.678 249.184C138.63 249.851 138.573 250.442 138.478 250.985L141.604 250.204V250.728L138.802 251.423C139.336 252.739 140.346 253.606 141.842 254.016L141.499 254.54C139.926 254.073 138.878 253.129 138.335 251.69C138.201 252.243 138.049 252.72 137.849 253.12C137.334 254.149 136.467 255.14 135.247 256.093L134.904 255.731C136.038 254.864 136.848 253.978 137.325 253.044C137.525 252.662 137.687 252.195 137.811 251.662L135.161 252.319V251.795L135.171 251.814ZM142.633 247.182L143.167 247.049C143.491 247.459 143.758 247.916 143.948 248.421C144.168 249.022 144.282 249.66 144.282 250.337C144.282 251.014 144.168 251.69 143.948 252.405C143.748 253.005 143.491 253.596 143.167 254.168L142.633 254.302C142.938 253.711 143.186 253.129 143.357 252.538C143.577 251.814 143.691 251.118 143.691 250.47C143.691 249.822 143.577 249.184 143.357 248.574C143.186 248.069 142.938 247.602 142.633 247.173V247.182Z" fill="#6A80A0"/>
<path d="M138.373 228.808C138.639 228.741 138.849 228.265 138.849 227.741C138.849 227.217 138.639 226.845 138.373 226.902C138.106 226.959 137.896 227.445 137.896 227.969C137.896 228.494 138.106 228.865 138.373 228.808Z" fill="#B8C8D8"/>
<path d="M137.896 128.862L53.0747 198.615" stroke="#B8C8D8"/>
<path d="M5.90839 212.158L6.60412 211.987V213.664L8.50068 213.188V217.505L7.83355 217.667V217.181L6.60412 217.486V220.679L5.90839 220.85V217.657L4.71708 217.953V218.439L4.05948 218.601V214.284L5.90839 213.826V212.149V212.158ZM4.71708 217.324L5.90839 217.028V214.484L4.71708 214.779V217.324ZM6.60412 216.857L7.83355 216.552V214.007L6.60412 214.312V216.857ZM0.361652 214.856L0.228225 214.246C1.39094 213.845 2.42977 213.369 3.33516 212.826L3.57343 213.407C3.18268 213.626 2.77286 213.845 2.33446 214.045V215.618L3.56389 215.313V215.971L2.33446 216.276V216.752C2.81099 217.086 3.28751 217.467 3.77357 217.905L3.39235 218.572C2.98254 218.067 2.62991 217.657 2.33446 217.353V221.784L1.66733 221.946V217.562C1.32423 218.563 0.876298 219.516 0.304469 220.412L0.0185547 219.764C0.761932 218.725 1.28611 217.619 1.60062 216.457L0.199634 216.809V216.152L1.66733 215.789V214.35C1.24799 214.522 0.819115 214.684 0.361652 214.856ZM13.3517 214.608L11.398 215.094C11.3122 215.446 11.2169 215.78 11.112 216.085L13.609 215.465V218.858L12.9991 219.011V218.458L11.4933 218.83V219.402L10.8833 219.554V216.704C10.626 217.324 10.321 217.886 9.95885 218.372L9.59669 217.886C10.1209 217.162 10.5116 216.285 10.7689 215.237L10.0256 215.418V214.827L10.9119 214.608C10.9786 214.246 11.0358 213.874 11.0739 213.493L9.79683 213.807V213.197L11.1311 212.864C11.1502 212.501 11.1692 212.13 11.1788 211.749L10.0827 212.025V211.434L13.3517 210.614V212.311L13.8854 212.177V212.787L13.3517 212.921V214.589V214.608ZM11.7982 211.615C11.7887 211.996 11.7696 212.378 11.7506 212.73L12.7227 212.492V211.386L11.7982 211.615ZM11.6934 213.359C11.6457 213.75 11.5886 214.122 11.5314 214.474L12.7227 214.179V213.102L11.6934 213.359ZM11.4933 218.229L12.9991 217.858V216.256L11.4933 216.628V218.229ZM15.8582 212.12L14.1523 212.549V211.892L15.2769 211.615C15.01 211.11 14.7432 210.672 14.4668 210.29L15.0481 209.871C15.334 210.262 15.6104 210.7 15.8677 211.196L15.2959 211.615L16.3729 211.348C16.6493 210.691 16.8875 210.014 17.0877 209.299L17.7357 209.366C17.5356 210.024 17.3069 210.624 17.0591 211.177L18.1169 210.91V211.568L16.5349 211.958V213.34L17.9168 212.997V213.636L16.5349 213.979V215.361L18.3266 214.913V215.57L16.5349 216.018V218.21L15.8582 218.382V216.19L14.0855 216.628V215.971L15.8582 215.532V214.15L14.381 214.522V213.883L15.8582 213.512V212.13V212.12ZM19.4417 210.128L20.8045 209.785V208.48L21.4907 208.308V209.614L22.7583 209.299V209.957L21.4907 210.271V211.844L22.8917 211.491V212.158L21.4526 212.521C21.4336 212.768 21.405 213.016 21.3764 213.254C21.9101 213.626 22.4628 214.074 23.0156 214.579L22.6344 215.265C22.1007 214.674 21.6432 214.227 21.2715 213.912C20.9951 215.323 20.471 216.504 19.6895 217.448L19.1844 217.124C20.1088 215.999 20.633 214.522 20.7664 212.692L19.3083 213.054V212.387L20.8045 212.015V210.443L19.4417 210.786V210.128ZM27.1804 207.222V212.454L26.5228 212.616V208.022L23.9782 208.661V213.254L23.3206 213.416V208.184L27.1804 207.222ZM26.9231 215.504L26.1321 215.704C25.6365 215.828 25.3982 215.618 25.3982 215.094V212.949L26.0177 212.797V214.798C26.0177 215.008 26.113 215.094 26.3227 215.037L26.8087 214.913C26.9708 214.875 27.0851 214.798 27.1518 214.684C27.2376 214.541 27.2948 214.16 27.3329 213.559L27.9238 213.607C27.8666 214.398 27.7523 214.903 27.5998 215.113C27.4473 215.294 27.2281 215.427 26.9231 215.504ZM24.9408 209.213L25.5603 209.061V210.748C25.5412 212.168 25.2839 213.369 24.7978 214.341C24.3213 215.237 23.5398 216.056 22.4724 216.771L22.1102 216.276C23.1586 215.589 23.8924 214.817 24.3118 213.988C24.7025 213.14 24.9122 212.101 24.9408 210.9V209.213ZM31.6216 206.507L33.0131 206.164V205.401L33.6516 205.239V206.002L35.186 205.62V204.858L35.8341 204.696V205.458L37.3113 205.087V205.697L35.8341 206.068V206.783L35.186 206.945V206.23L33.6516 206.612V207.326L33.0131 207.488V206.774L31.6216 207.117V206.507ZM34.2997 211.825C34.1853 212.092 34.0424 212.349 33.8899 212.578C33.4515 213.235 32.6891 213.855 31.5931 214.446L31.3453 213.931C32.2983 213.435 32.975 212.892 33.3943 212.301C33.4896 212.158 33.5849 212.006 33.6612 211.853L31.4406 212.406V211.777L33.9471 211.148C34.0233 210.9 34.0805 210.643 34.1282 210.376L32.1268 210.872V207.984L36.6919 206.85V209.738L34.7381 210.224C34.7 210.5 34.6428 210.748 34.5856 210.986L37.3304 210.3V210.929L34.9192 211.529C35.472 212.044 36.3106 212.359 37.4352 212.473L36.9778 213.13C35.7388 212.902 34.8525 212.473 34.2997 211.806V211.825ZM30.6972 209.804V214.655L30.0491 214.817V210.071C29.7537 211.043 29.382 211.949 28.9245 212.797L28.6291 212.13C29.2867 211.053 29.7632 209.9 30.0491 208.67V208.613L28.9436 208.889V208.27L30.0491 207.994V206.145L30.6972 205.983V207.832L31.6979 207.584V208.203L30.6972 208.451V209.08C31.107 209.471 31.5263 209.938 31.9647 210.472L31.6026 211.101C31.25 210.557 30.945 210.128 30.6972 209.804ZM36.0724 209.366V208.718L32.7462 209.547V210.195L36.0724 209.366ZM32.7462 209.032L36.0724 208.203V207.565L32.7462 208.394V209.032Z" fill="#6E6262"/>
<path d="M19.0611 222.709L19.5948 222.575C19.2803 223.157 19.042 223.748 18.8705 224.338C18.6418 225.063 18.5369 225.749 18.5369 226.407C18.5369 227.064 18.6418 227.693 18.8705 228.303C19.042 228.799 19.2803 229.266 19.5948 229.704L19.0611 229.838C18.7275 229.428 18.4702 228.961 18.2796 228.465C18.0509 227.865 17.946 227.226 17.946 226.569C17.946 225.911 18.0509 225.196 18.2796 224.491C18.4702 223.891 18.7275 223.3 19.0611 222.728V222.709ZM20.5097 222.947L27.1906 221.279V221.803L23.2641 222.785V223.119C23.2641 223.586 23.2355 224.024 23.1878 224.443L26.4758 223.624C26.4568 225.644 26.3805 226.874 26.209 227.312C26.0279 227.75 25.7229 228.027 25.294 228.132C24.9891 228.208 24.6174 228.284 24.1885 228.379L24.0551 227.884C24.503 227.789 24.8747 227.712 25.1606 227.646C25.4847 227.55 25.6848 227.322 25.7801 226.959C25.8563 226.607 25.9135 225.701 25.9231 224.262L23.1306 224.958C23.0258 225.682 22.8638 226.34 22.635 226.902C22.2348 227.846 21.5867 228.665 20.7099 229.352L20.4049 228.951C21.2722 228.265 21.8726 227.474 22.2157 226.597C22.5397 225.692 22.7018 224.586 22.7303 223.262V222.928L20.5193 223.481V222.957L20.5097 222.947ZM29.03 220.736L33.9096 219.516V222.976L29.03 224.196V220.736ZM33.3664 222.594V220.193L29.5732 221.136V223.538L33.3664 222.594ZM32.8517 223.652C33.6999 224.358 34.348 224.996 34.7959 225.558L34.3194 226.016C33.862 225.387 33.2234 224.739 32.4038 224.043L32.8422 223.652H32.8517ZM30.0688 224.358L30.5549 224.472C30.0212 225.568 29.3922 226.55 28.6583 227.426L28.1723 227.207C28.9156 226.359 29.5446 225.406 30.0688 224.358ZM35.7204 218.563L36.2541 218.43C36.5781 218.839 36.845 219.297 37.0356 219.802C37.2548 220.402 37.3692 221.041 37.3692 221.718C37.3692 222.394 37.2548 223.071 37.0356 223.786C36.8355 224.386 36.5781 224.977 36.2541 225.549L35.7204 225.682C36.0254 225.091 36.2732 224.51 36.4447 223.919C36.6639 223.195 36.7783 222.499 36.7783 221.851C36.7783 221.203 36.6639 220.564 36.4447 219.954C36.2732 219.449 36.0254 218.982 35.7204 218.553V218.563Z" fill="#6A80A0"/>
<path d="M52.1217 200.759C52.6459 200.626 53.0748 200.092 53.0748 199.568C53.0748 199.044 52.6459 198.72 52.1217 198.853C51.5976 198.987 51.1687 199.52 51.1687 200.045C51.1687 200.569 51.5976 200.893 52.1217 200.759Z" fill="#B8C8D8"/>
<path d="M137.896 128.862L53.0747 100.452" stroke="#B8C8D8"/>
<path d="M2.16342 103.396L2.81149 103.529C2.58276 104.292 2.29685 105.016 1.96328 105.731V112.259L1.26755 112.431V107.027C0.943518 107.551 0.600421 108.066 0.228732 108.561L0 107.885C0.99117 106.493 1.71549 104.987 2.16342 103.386V103.396ZM3.37379 103.577L7.87218 102.452V105.454L5.95655 105.931V106.97L8.70133 106.284V106.951L6.63322 107.465C7.17646 108.285 7.91983 108.923 8.86335 109.4L8.42495 110.105C7.4719 109.514 6.6904 108.676 6.07092 107.608L5.95655 107.637V111.239L5.27036 111.411V107.808L5.15599 107.837C4.51745 109.324 3.71689 110.553 2.75431 111.535L2.36356 111.011C3.27849 110.153 4.02186 109.152 4.59369 107.98L2.62088 108.476V107.808L5.27036 107.151V106.112L3.37379 106.588V103.586V103.577ZM7.19552 104.968V103.281L4.05046 104.063V105.75L7.19552 104.968ZM10.8266 109.943L9.87358 110.181L9.73063 109.552C10.0261 109.495 10.312 109.448 10.5884 109.381C10.8362 109.324 10.9601 109.152 10.9601 108.895V106.608C10.5693 106.836 10.1786 107.065 9.77828 107.284L9.60673 106.636C10.0737 106.417 10.5217 106.179 10.9601 105.931V103.748L9.75922 104.044V103.386L10.9601 103.091V101.29L11.6558 101.118V102.919L12.6946 102.662V103.32L11.6558 103.577V105.512C12.0275 105.264 12.3896 105.016 12.7518 104.749V105.426C12.3896 105.683 12.0179 105.931 11.6558 106.179V108.895C11.6558 109.457 11.3794 109.81 10.8266 109.953V109.943ZM17.4217 101.461L13.9431 102.328V104.139L17.4217 103.272V101.461ZM13.9431 104.797C13.924 106.531 13.5142 108.113 12.7232 109.552L12.2086 109.219C12.8947 107.999 13.2474 106.55 13.2569 104.883V101.842L15.3631 101.318C15.2297 100.946 15.0772 100.622 14.9247 100.336L15.6491 100.041C15.7825 100.365 15.9159 100.727 16.0493 101.147L18.0889 100.641V103.767L13.9431 104.797ZM20.3476 101.718L23.1877 101.013V100.413L23.8739 100.241V100.842L26.6758 100.146V100.746L23.8739 101.442V102.366L27.7623 101.394V101.995L25.9229 102.452V103.367L27.3525 103.015V103.615L25.9229 103.968V105.464C25.9229 105.988 25.637 106.322 25.0747 106.465L23.6928 106.808L23.5498 106.198C24.0073 106.112 24.4362 106.026 24.8364 105.921C25.1033 105.855 25.2367 105.702 25.2367 105.473V104.139L19.852 105.483V104.883L25.2367 103.539V102.624L19.2897 104.111V103.51L23.1877 102.538V101.614L20.3476 102.319V101.718ZM21.4627 105.35C21.9773 105.721 22.368 106.064 22.6349 106.379L22.1012 106.884C21.8057 106.55 21.4055 106.198 20.9099 105.826L21.4627 105.35ZM20.6907 100.098C20.462 100.594 20.1951 101.07 19.8997 101.509L19.3088 101.28C19.8615 100.489 20.2713 99.6598 20.5287 98.8116L21.1767 98.7926C21.1005 99.0213 21.0338 99.2405 20.9575 99.4502L23.3973 98.8402V99.4216L21.7867 99.8218C22.0345 100.098 22.2346 100.346 22.3871 100.594L21.7676 100.975C21.577 100.622 21.3388 100.298 21.0719 99.9934L20.6907 100.089V100.098ZM24.5601 99.1071C24.398 99.4692 24.217 99.8028 24.0264 100.117L23.4545 99.8981C23.8739 99.2405 24.1693 98.5638 24.3599 97.849L25.008 97.8204C24.9508 98.0301 24.8841 98.2493 24.8174 98.459L27.5622 97.7728V98.3542L25.8371 98.783C26.0945 99.0499 26.2946 99.3167 26.4376 99.5645L25.8467 99.9267C25.6465 99.5741 25.4083 99.25 25.1224 98.9546L24.5601 99.0975V99.1071ZM31.6126 102.824V103.472C30.7739 104.025 29.8304 104.539 28.763 105.006L28.6772 104.358C29.7923 103.882 30.7739 103.367 31.6126 102.824ZM30.4499 96.3718L31.098 96.4671C30.6024 97.7919 30.0973 98.8688 29.5826 99.7075C30.0401 99.5455 30.4976 99.3739 30.955 99.1833C31.1361 98.8116 31.3267 98.4304 31.5268 98.0301L32.1273 98.0968C31.2314 99.86 30.4976 101.156 29.9067 101.957C30.5929 101.661 31.2886 101.318 31.9748 100.937V101.556C30.9645 102.109 29.9924 102.557 29.068 102.9L28.8869 102.328C29.0108 102.252 29.1156 102.157 29.2014 102.062C29.5826 101.604 30.0401 100.889 30.5738 99.8981C30.021 100.117 29.4683 100.336 28.9155 100.537L28.7439 99.9457C28.8488 99.879 28.9441 99.7742 29.0299 99.6312C29.5731 98.6496 30.0496 97.5536 30.4499 96.3718ZM33.0517 96.7721L32.1082 97.0104V96.3623L36.2921 95.3235V95.7523C36.1396 96.6482 35.9871 97.4202 35.8346 98.0682L37.045 97.7633V98.1445C36.8449 99.5073 36.4065 100.737 35.7203 101.814C36.2158 102.224 36.7972 102.548 37.4643 102.795L37.0355 103.472C36.3683 103.196 35.787 102.853 35.3104 102.414C34.7386 103.167 34.0334 103.834 33.2137 104.444L32.8325 103.91C33.6331 103.32 34.3097 102.662 34.853 101.957C34.2812 101.328 33.8428 100.556 33.5473 99.6598C33.2614 101.737 32.6324 103.453 31.6698 104.778L31.1647 104.454C32.4036 102.757 33.0327 100.365 33.0517 97.2867V96.7721ZM35.2533 101.375C35.806 100.508 36.1682 99.555 36.3588 98.5257L35.0341 98.8593C35.2056 98.2303 35.3867 97.3249 35.5868 96.1431L33.7189 96.6101V97.1247C33.7189 97.4773 33.7189 97.8204 33.6903 98.154C33.9285 99.4883 34.4527 100.565 35.2533 101.385V101.375Z" fill="#6E6262"/>
<path d="M11.4366 114.061L11.9703 113.927C11.6558 114.508 11.4175 115.099 11.246 115.69C11.0173 116.415 10.9124 117.101 10.9124 117.758C10.9124 118.416 11.0173 119.045 11.246 119.655C11.4175 120.151 11.6558 120.618 11.9703 121.056L11.4366 121.189C11.103 120.78 10.8457 120.313 10.6551 119.817C10.4264 119.217 10.3215 118.578 10.3215 117.92C10.3215 117.263 10.4264 116.548 10.6551 115.843C10.8457 115.242 11.103 114.651 11.4366 114.08V114.061ZM15.1344 115.852L14.2004 116.081V115.604L16.6593 114.995V115.471L15.6395 115.728C15.5728 116.033 15.5061 116.329 15.4299 116.624L16.6879 116.31V116.748C16.564 117.339 16.3734 117.882 16.097 118.378C16.3067 118.454 16.5163 118.54 16.7165 118.645L16.4306 119.14C16.24 119.035 16.0303 118.94 15.8016 118.854C15.4013 119.426 14.8771 119.922 14.2481 120.351L13.9812 119.941C14.534 119.569 14.9915 119.15 15.3536 118.683C15.0391 118.578 14.7056 118.483 14.3434 118.387C14.4864 117.997 14.6198 117.615 14.7437 117.263L14.1814 117.406V116.929L14.9057 116.748C15.001 116.434 15.0772 116.129 15.1535 115.852H15.1344ZM15.6586 118.225C15.9064 117.816 16.0779 117.377 16.2018 116.901L15.2679 117.129C15.1726 117.444 15.0677 117.739 14.9629 118.025C15.2011 118.082 15.4299 118.149 15.6586 118.216V118.225ZM18.7274 114.346L19.2039 114.432C18.9562 115.747 18.6131 116.853 18.1937 117.739C18.2223 117.835 18.2604 117.93 18.2985 118.006C18.4987 118.397 18.6798 118.578 18.8418 118.54C18.9752 118.473 19.0991 118.025 19.2325 117.177L19.7472 117.377C19.6423 117.825 19.528 118.206 19.4041 118.53C19.2516 118.912 19.08 119.131 18.8894 119.178C18.6131 119.245 18.3462 119.074 18.0698 118.654C18.0031 118.559 17.9364 118.454 17.8792 118.33C17.5742 118.845 17.2311 119.274 16.869 119.617L16.564 119.255C16.9833 118.864 17.3455 118.368 17.66 117.768C17.5552 117.463 17.4503 117.091 17.3741 116.691C17.2407 116.052 17.1454 115.204 17.0977 114.156L13.8383 114.966V116.586C13.8192 118.197 13.6191 119.541 13.2379 120.598L12.7709 120.303C13.114 119.398 13.295 118.197 13.3141 116.71V114.575L17.0786 113.632C17.0596 113.346 17.0596 113.05 17.0596 112.745L17.6124 112.602C17.6124 112.917 17.6124 113.212 17.6124 113.489L18.4892 113.27C18.3843 113.05 18.27 112.85 18.1461 112.669L18.6607 112.459C18.7655 112.66 18.8704 112.888 18.9752 113.155L19.5089 113.022V113.536L17.6314 114.003C17.66 114.861 17.7267 115.576 17.8125 116.157C17.8697 116.481 17.9269 116.767 17.984 117.025C18.289 116.243 18.5368 115.347 18.7274 114.327V114.346ZM21.3292 114.327V115.624L22.2632 115.395V114.099L21.3292 114.327ZM22.2632 113.584V112.25L21.3292 112.478V113.813L22.2632 113.584ZM21.3197 116.148C21.2625 117.167 21.0719 118.054 20.7669 118.797L20.3285 118.511C20.6526 117.73 20.8146 116.796 20.8337 115.709V112.088L22.7969 111.602V117.577C22.7969 118.035 22.6063 118.311 22.2251 118.406L21.7105 118.53L21.5675 118.044C21.7391 118.016 21.9011 117.987 22.0536 117.949C22.187 117.911 22.2632 117.768 22.2632 117.52V115.909L21.3197 116.148ZM23.3974 113.975L23.8358 113.918C23.7786 114.69 23.6642 115.404 23.4641 116.043L22.9875 116.014C23.2067 115.395 23.3497 114.709 23.3974 113.965V113.975ZM26.8665 113.05C27.0571 113.594 27.2286 114.194 27.3811 114.833L26.9618 115.128C26.8188 114.413 26.6568 113.803 26.4852 113.26L26.8665 113.041V113.05ZM24.4457 110.896L24.9699 110.763V112.002L26.3709 111.649C26.3709 114.203 26.3327 115.795 26.266 116.415C26.1898 117.063 25.8086 117.463 25.1224 117.634C24.9985 117.663 24.7983 117.701 24.5029 117.758L24.3695 117.272C24.6268 117.225 24.8555 117.177 25.0461 117.129C25.4559 117.025 25.6847 116.748 25.7514 116.31C25.8086 115.871 25.8372 114.547 25.8467 112.316L24.9699 112.536V113.003C24.9508 115.176 24.4171 116.882 23.3878 118.14L22.9494 117.873C23.9215 116.71 24.4171 115.137 24.4362 113.136V112.669L23.1305 112.993V112.459L24.4362 112.135V110.896H24.4457ZM29.6494 113.784L34.1192 112.669V113.069C33.6903 113.698 33.1756 114.27 32.5562 114.794C33.2423 114.909 34.0334 114.918 34.9388 114.813L34.7005 115.347C33.6522 115.433 32.7563 115.385 32.032 115.204C31.26 115.766 30.3737 116.262 29.3634 116.681L29.1252 116.262C30.0115 115.909 30.8025 115.509 31.4887 115.052C30.9264 114.842 30.4594 114.537 30.1068 114.146L29.6398 114.261V113.784H29.6494ZM30.6977 113.994C31.0503 114.299 31.4792 114.528 32.0129 114.67C32.5466 114.251 33.0136 113.803 33.4044 113.317L30.6977 113.994ZM29.211 112.183V112.774C29.1824 114.394 28.906 115.766 28.3913 116.872L27.9815 116.605C28.4199 115.652 28.6487 114.413 28.6677 112.907V110.42L31.6031 109.686C31.5078 109.514 31.422 109.362 31.3172 109.219L31.8986 108.981C31.9939 109.152 32.0796 109.343 32.1654 109.543L34.7768 108.895V109.41L29.2205 110.792V111.659L30.4976 111.335V110.715L31.0313 110.582V111.201L33.0517 110.696V110.067L33.5854 109.934V110.563L34.7577 110.267V110.773L33.5854 111.068V112.259L30.4976 113.031V111.84L29.2205 112.164L29.211 112.183ZM31.0217 111.735V112.459L33.0422 111.954V111.23L31.0217 111.735ZM35.7298 107.999L36.2635 107.866C36.5875 108.276 36.8544 108.733 37.045 109.238C37.2642 109.839 37.3786 110.477 37.3786 111.154C37.3786 111.83 37.2642 112.507 37.045 113.222C36.8449 113.822 36.5875 114.413 36.2635 114.985L35.7298 115.118C36.0348 114.528 36.2826 113.946 36.4541 113.355C36.6733 112.631 36.7877 111.935 36.7877 111.287C36.7877 110.639 36.6733 110.001 36.4541 109.391C36.2826 108.885 36.0348 108.418 35.7298 107.99V107.999Z" fill="#6A80A0"/>
<path d="M52.1217 100.689C52.6459 100.556 53.0748 100.241 53.0748 99.9744C53.0748 99.7075 52.6459 99.6027 52.1217 99.7361C51.5976 99.8695 51.1687 100.184 51.1687 100.451C51.1687 100.718 51.5976 100.823 52.1217 100.689Z" fill="#B8C8D8"/>
<path d="M138.439 55.3431L197.662 79.6935L212.243 153.383L138.449 200.197L70.239 185.539L96.2763 114.88L138.449 55.3336L138.439 55.3431Z" fill="url(#paint0_linear_2_1223)"/>
<path d="M138.058 79.265L202.169 75.2908L211.29 152.383L138.067 190.762L76.9102 178.906L116.843 121.342L138.067 79.2555L138.058 79.265Z" fill="url(#paint1_linear_2_1223)"/>
<path d="M138.173 30.6306L197.919 79.4363L217.943 154.918L138.163 226.959L53.0654 199.091L95.619 114.861L138.163 30.6306H138.173Z" fill="url(#paint2_radial_2_1223)"/>
<path d="M138.525 50.55L223.67 58.6509V156.415L138.525 208.746L102.757 158.216L95.9619 114.928L138.525 50.5404V50.55Z" fill="url(#paint3_linear_2_1223)"/>
<path d="M138.353 74.4234L199.977 77.6066L215.093 153.603L138.353 182.118L107.284 154.155L53.084 100.604L138.363 74.4234H138.353Z" fill="url(#paint4_linear_2_1223)"/>
<path d="M138.439 55.3431L197.662 79.6935L212.243 153.383L138.449 200.197L70.239 185.539L96.2763 114.88L138.449 55.3336L138.439 55.3431Z" stroke="#1A469F" stroke-linejoin="round"/>
<path d="M137.896 57.3832C138.944 57.1163 139.802 56.0584 139.802 55.0005C139.802 53.9426 138.944 53.3041 137.896 53.571C136.848 53.8378 135.99 54.8957 135.99 55.9536C135.99 57.0115 136.848 57.65 137.896 57.3832Z" fill="#1A469F" stroke="#F7F9FA" stroke-width="0.8"/>
<path d="M197.938 80.5326C198.462 80.3991 198.891 79.6558 198.891 78.8647C198.891 78.0737 198.462 77.54 197.938 77.6734C197.414 77.8069 196.985 78.5502 196.985 79.3413C196.985 80.1323 197.414 80.666 197.938 80.5326Z" fill="#1A469F" stroke="#F7F9FA"/>
<path d="M212.234 155.118C213.282 154.851 214.14 153.793 214.14 152.735C214.14 151.678 213.282 151.039 212.234 151.306C211.185 151.573 210.328 152.631 210.328 153.689C210.328 154.746 211.185 155.385 212.234 155.118Z" fill="#1A469F" stroke="#F7F9FA" stroke-width="0.8"/>
<path d="M137.896 202.247C138.944 201.98 139.802 200.922 139.802 199.864C139.802 198.806 138.944 198.167 137.896 198.434C136.848 198.701 135.99 199.759 135.99 200.817C135.99 201.875 136.848 202.513 137.896 202.247Z" fill="#1A469F" stroke="#F7F9FA" stroke-width="0.8"/>
<path d="M69.2765 187.903C70.3248 187.636 71.1826 186.579 71.1826 185.521C71.1826 184.463 70.3248 183.824 69.2765 184.091C68.2281 184.358 67.3704 185.416 67.3704 186.474C67.3704 187.532 68.2281 188.17 69.2765 187.903Z" fill="#1A469F" stroke="#F7F9FA" stroke-width="0.8"/>
<path d="M95.962 117.396C97.0199 117.13 97.8681 116.072 97.8681 115.014C97.8681 113.956 97.0199 113.317 95.962 113.584C94.9041 113.851 94.0559 114.909 94.0559 115.967C94.0559 117.025 94.9041 117.663 95.962 117.396Z" fill="#1A469F" stroke="#F7F9FA" stroke-width="0.8"/>
<path d="M138.058 79.265L202.169 75.2908L211.29 152.383L138.067 190.762L76.9102 178.906L116.843 121.342L138.067 79.2555L138.058 79.265Z" stroke="#4584D7" stroke-linejoin="round"/>
<path d="M137.896 82.1624C138.944 81.8956 139.802 80.8377 139.802 79.7798C139.802 78.7219 138.944 78.0834 137.896 78.3502C136.848 78.6171 135.99 79.675 135.99 80.7328C135.99 81.7907 136.848 82.4293 137.896 82.1624Z" fill="#4584D7" stroke="#F7F9FA" stroke-width="0.8"/>
<path d="M201.75 78.6267C202.799 78.3598 203.656 77.3019 203.656 76.244C203.656 75.1861 202.799 74.5476 201.75 74.8145C200.702 75.0813 199.844 76.1392 199.844 77.1971C199.844 78.255 200.702 78.8935 201.75 78.6267Z" fill="#4584D7" stroke="#F7F9FA" stroke-width="0.8"/>
<path d="M211.281 155.356C212.329 155.09 213.187 154.032 213.187 152.974C213.187 151.916 212.329 151.277 211.281 151.544C210.232 151.811 209.375 152.869 209.375 153.927C209.375 154.985 210.232 155.623 211.281 155.356Z" fill="#4584D7" stroke="#F7F9FA" stroke-width="0.8"/>
<path d="M137.896 193.669C138.944 193.402 139.802 192.344 139.802 191.286C139.802 190.229 138.944 189.59 137.896 189.857C136.848 190.124 135.99 191.182 135.99 192.239C135.99 193.297 136.848 193.936 137.896 193.669Z" fill="#4584D7" stroke="#F7F9FA" stroke-width="0.8"/>
<path d="M76.901 182.194C77.9589 181.927 78.8071 180.87 78.8071 179.812C78.8071 178.754 77.9589 178.115 76.901 178.382C75.8431 178.649 74.9949 179.707 74.9949 180.765C74.9949 181.823 75.8526 182.461 76.901 182.194Z" fill="#4584D7" stroke="#F7F9FA" stroke-width="0.8"/>
<path d="M116.929 124.554C117.977 124.287 118.835 123.229 118.835 122.171C118.835 121.113 117.977 120.474 116.929 120.741C115.881 121.008 115.023 122.066 115.023 123.124C115.023 124.182 115.881 124.82 116.929 124.554Z" fill="#4584D7" stroke="#F7F9FA" stroke-width="0.8"/>
<path d="M138.173 30.6306L197.919 79.4363L217.943 154.918L138.163 226.959L53.0654 199.091L95.619 114.861L138.163 30.6306H138.173Z" stroke="#F97C8C" stroke-width="0.8" stroke-linejoin="round"/>
<path d="M137.896 33.557C138.944 33.2901 139.802 32.2322 139.802 31.1743C139.802 30.1164 138.944 29.4779 137.896 29.7448C136.848 30.0116 135.99 31.0695 135.99 32.1274C135.99 33.1853 136.848 33.8238 137.896 33.557Z" fill="#F97C8C" stroke="#F7F9FA" stroke-width="0.8"/>
<path d="M197.938 81.4858C198.986 81.2189 199.844 80.161 199.844 79.1032C199.844 78.0453 198.986 77.4067 197.938 77.6736C196.89 77.9404 196.032 78.9983 196.032 80.0562C196.032 81.1141 196.89 81.7526 197.938 81.4858Z" fill="#F97C8C" stroke="#F7F9FA" stroke-width="0.8"/>
<path d="M217.952 157.51C219.001 157.243 219.858 156.185 219.858 155.127C219.858 154.07 219.001 153.431 217.952 153.698C216.904 153.965 216.046 155.023 216.046 156.08C216.046 157.138 216.904 157.777 217.952 157.51Z" fill="#F97C8C" stroke="#F7F9FA" stroke-width="0.8"/>
<path d="M137.896 228.932C138.944 228.665 139.802 227.607 139.802 226.549C139.802 225.491 138.944 224.853 137.896 225.12C136.848 225.387 135.99 226.444 135.99 227.502C135.99 228.56 136.848 229.199 137.896 228.932Z" fill="#F97C8C" stroke="#F7F9FA" stroke-width="0.8"/>
<path d="M53.0748 201.474C54.1232 201.207 54.9809 200.149 54.9809 199.091C54.9809 198.033 54.1232 197.395 53.0748 197.662C52.0264 197.929 51.1687 198.987 51.1687 200.044C51.1687 201.102 52.0264 201.741 53.0748 201.474Z" fill="#F97C8C" stroke="#F7F9FA" stroke-width="0.8"/>
<path d="M95.962 117.396C97.0199 117.13 97.8681 116.072 97.8681 115.014C97.8681 113.956 97.0199 113.317 95.962 113.584C94.9041 113.851 94.0559 114.909 94.0559 115.967C94.0559 117.025 94.9041 117.663 95.962 117.396Z" fill="#F97C8C" stroke="#F7F9FA" stroke-width="0.8"/>
<path d="M138.525 50.55L223.67 58.6509V156.415L138.525 208.746L102.757 158.216L95.9619 114.928L138.525 50.5404V50.55Z" stroke="#82AED8" stroke-linejoin="round"/>
<path d="M137.896 52.6179C138.944 52.3511 139.802 51.2932 139.802 50.2353C139.802 49.1774 138.944 48.5389 137.896 48.8057C136.848 49.0726 135.99 50.1305 135.99 51.1884C135.99 52.2462 136.848 52.8848 137.896 52.6179Z" fill="#82AED8" stroke="#F7F9FA" stroke-width="0.8"/>
<path d="M222.717 61.0139C223.766 60.747 224.623 59.6891 224.623 58.6312C224.623 57.5734 223.766 56.9348 222.717 57.2017C221.669 57.4685 220.811 58.5264 220.811 59.5843C220.811 60.6422 221.669 61.2807 222.717 61.0139Z" fill="#82AED8" stroke="#F7F9FA" stroke-width="0.8"/>
<path d="M222.717 159.178C223.766 158.911 224.623 157.853 224.623 156.795C224.623 155.737 223.766 155.099 222.717 155.366C221.669 155.633 220.811 156.69 220.811 157.748C220.811 158.806 221.669 159.445 222.717 159.178Z" fill="#82AED8" stroke="#F7F9FA" stroke-width="0.8"/>
<path d="M137.896 211.777C138.944 211.51 139.802 210.452 139.802 209.394C139.802 208.336 138.944 207.698 137.896 207.965C136.848 208.232 135.99 209.29 135.99 210.347C135.99 211.405 136.848 212.044 137.896 211.777Z" fill="#82AED8" stroke="#F7F9FA" stroke-width="0.8"/>
<path d="M102.633 160.522C103.682 160.255 104.539 159.197 104.539 158.139C104.539 157.081 103.682 156.443 102.633 156.71C101.585 156.976 100.727 158.034 100.727 159.092C100.727 160.15 101.575 160.789 102.633 160.522Z" fill="#82AED8" stroke="#F7F9FA" stroke-width="0.8"/>
<path d="M95.962 117.396C97.0199 117.13 97.8681 116.072 97.8681 115.014C97.8681 113.956 97.0199 113.317 95.962 113.584C94.9041 113.851 94.0559 114.909 94.0559 115.967C94.0559 117.025 94.9041 117.663 95.962 117.396Z" fill="#82AED8" stroke="#F7F9FA" stroke-width="0.8"/>
<path d="M138.353 74.4234L199.977 77.6066L215.093 153.603L138.353 182.118L107.284 154.155L53.084 100.604L138.363 74.4234H138.353Z" stroke="#CF4353" stroke-linejoin="round"/>
<path d="M137.896 77.3972C138.944 77.1303 139.802 76.0724 139.802 75.0145C139.802 73.9567 138.944 73.3181 137.896 73.585C136.848 73.8518 135.99 74.9097 135.99 75.9676C135.99 77.0255 136.848 77.664 137.896 77.3972Z" fill="#CF4353" stroke="#F7F9FA" stroke-width="0.8"/>
<path d="M199.844 80.0562C200.893 79.7894 201.75 78.7315 201.75 77.6736C201.75 76.6157 200.893 75.9772 199.844 76.244C198.796 76.5109 197.938 77.5688 197.938 78.6266C197.938 79.6845 198.796 80.3231 199.844 80.0562Z" fill="#CF4353" stroke="#F7F9FA" stroke-width="0.8"/>
<path d="M214.14 156.548C215.188 156.281 216.046 155.223 216.046 154.165C216.046 153.107 215.188 152.469 214.14 152.735C213.092 153.002 212.234 154.06 212.234 155.118C212.234 156.176 213.092 156.815 214.14 156.548Z" fill="#CF4353" stroke="#F7F9FA" stroke-width="0.8"/>
<path d="M137.896 185.092C138.944 184.825 139.802 183.767 139.802 182.709C139.802 181.651 138.944 181.013 137.896 181.279C136.848 181.546 135.99 182.604 135.99 183.662C135.99 184.72 136.848 185.359 137.896 185.092Z" fill="#CF4353" stroke="#F7F9FA" stroke-width="0.8"/>
<path d="M107.399 156.481C108.447 156.214 109.305 155.156 109.305 154.098C109.305 153.04 108.447 152.402 107.399 152.668C106.35 152.935 105.492 153.993 105.492 155.051C105.492 156.109 106.35 156.748 107.399 156.481Z" fill="#CF4353" stroke="#F7F9FA" stroke-width="0.8"/>
<path d="M53.0748 103.31C54.1232 103.043 54.9809 101.985 54.9809 100.927C54.9809 99.8695 54.1232 99.231 53.0748 99.4978C52.0264 99.7647 51.1687 100.823 51.1687 101.88C51.1687 102.938 52.0264 103.577 53.0748 103.31Z" fill="#CF4353" stroke="#F7F9FA" stroke-width="0.8"/>
<path d="M137.896 130.768C138.944 130.501 139.802 129.443 139.802 128.385C139.802 127.327 138.944 126.689 137.896 126.956C136.848 127.223 135.99 128.28 135.99 129.338C135.99 130.396 136.848 131.035 137.896 130.768Z" fill="#B8C8D8"/>
<defs>
<linearGradient id="paint0_linear_2_1223" x1="70.0007" y1="185" x2="138.001" y2="128" gradientUnits="userSpaceOnUse">
<stop stop-color="#1A469F" stop-opacity="0.2"/>
<stop offset="1" stop-color="#1A469F" stop-opacity="0.06"/>
</linearGradient>
<linearGradient id="paint1_linear_2_1223" x1="77" y1="179.5" x2="138" y2="128.5" gradientUnits="userSpaceOnUse">
<stop stop-color="#4584D7" stop-opacity="0.2"/>
<stop offset="1" stop-color="#4584D7" stop-opacity="0.06"/>
</linearGradient>
<radialGradient id="paint2_radial_2_1223" cx="0" cy="0" r="1" gradientTransform="matrix(84.5 -70.5 -55.4081 -114.438 52.999 199.5)" gradientUnits="userSpaceOnUse">
<stop stop-color="#F97C8C" stop-opacity="0.2"/>
<stop offset="1" stop-color="#F97C8C" stop-opacity="0.06"/>
</radialGradient>
<linearGradient id="paint3_linear_2_1223" x1="95.999" y1="116" x2="137.999" y2="128" gradientUnits="userSpaceOnUse">
<stop stop-color="#82AED8" stop-opacity="0.2"/>
<stop offset="1" stop-color="#82AED8" stop-opacity="0.06"/>
</linearGradient>
<linearGradient id="paint4_linear_2_1223" x1="53" y1="101.5" x2="138" y2="128" gradientUnits="userSpaceOnUse">
<stop stop-color="#CF4353" stop-opacity="0.2"/>
<stop offset="1" stop-color="#CF4353" stop-opacity="0.06"/>
</linearGradient>
</defs>
</svg>
