<svg width="42" height="43" viewBox="0 0 42 43" fill="none" xmlns="http://www.w3.org/2000/svg">
<path d="M27.5 0C34.5284 8.54349e-05 40.0741 6.21351 40.0742 13.6816C40.0742 18.9619 36.9817 23.7748 34.0439 27.1777C32.5593 28.8975 31.077 30.2995 29.9668 31.2715C29.4111 31.758 28.9465 32.1383 28.6191 32.3984C28.4556 32.5284 28.3261 32.6288 28.2363 32.6973C28.1915 32.7315 28.1561 32.7582 28.1318 32.7764C28.1199 32.7853 28.1102 32.7919 28.1035 32.7969C28.1002 32.7994 28.0977 32.8023 28.0957 32.8037C28.0948 32.8043 28.0934 32.8042 28.0928 32.8047L28.0918 32.8057C27.7397 33.0641 27.2603 33.0641 26.9082 32.8057L27.5 32L26.9072 32.8057L26.9062 32.8047L26.9043 32.8037C26.9023 32.8022 26.8998 32.7993 26.8965 32.7969C26.8898 32.7919 26.8801 32.7853 26.8682 32.7764C26.8439 32.7582 26.8085 32.7315 26.7637 32.6973C26.6739 32.6288 26.5445 32.5284 26.3809 32.3984C26.0534 32.1382 25.588 31.758 25.0322 31.2715C23.9221 30.2995 22.4405 28.8973 20.9561 27.1777C18.0184 23.7748 14.9258 18.9618 14.9258 13.6816C14.9259 6.21351 20.4716 8.52944e-05 27.5 0ZM27.5 8C24.4837 8.00021 22.333 10.8649 22.333 14C22.333 17.1351 24.4837 19.9998 27.5 20C30.5163 19.9998 32.666 17.1351 32.666 14C32.666 10.8649 30.5163 8.00021 27.5 8Z" fill="#8F7F7F"/>
<path d="M11.0068 28.2309C11.3087 28.1901 11.6106 28.1493 11.8172 28.115C12.0239 28.0807 12.1261 28.0542 12.3495 28.0418" stroke="#8F7F7F" stroke-width="2" stroke-linecap="round"/>
<path fill-rule="evenodd" clip-rule="evenodd" d="M34.1846 28.7133C34.3433 28.1844 34.9008 27.8837 35.4297 28.0424C37.2912 28.6008 38.8706 29.2863 40.0068 30.0922C41.1169 30.8796 41.9997 31.9297 42 33.2426C42 34.5557 41.1171 35.6064 40.0068 36.3939C38.8706 37.1999 37.2913 37.8853 35.4297 38.4437C33.0766 39.1497 30.1817 39.6791 26.9639 39.975C26.9875 39.8191 27 39.6606 27 39.5004C27 38.9727 26.8671 38.467 26.626 37.9965C29.7942 37.7136 32.6108 37.2008 34.8545 36.5277C36.6119 36.0005 37.9618 35.3927 38.8496 34.7631C39.7633 34.115 40 33.5862 40 33.2426C39.9997 32.899 39.7629 32.3708 38.8496 31.723C37.9618 31.0934 36.612 30.4856 34.8545 29.9584C34.3257 29.7996 34.026 29.2421 34.1846 28.7133ZM6.57031 28.0424C7.09923 27.8837 7.65666 28.1844 7.81543 28.7133C7.974 29.2421 7.67428 29.7996 7.14551 29.9584C5.38805 30.4856 4.0382 31.0934 3.15039 31.723C2.23714 32.3708 2.00028 32.899 2 33.2426C2 33.5862 2.23669 34.115 3.15039 34.7631C4.03819 35.3927 5.38805 36.0005 7.14551 36.5277C9.16199 37.1326 11.6415 37.607 14.4229 37.9027C14.1502 38.3993 14 38.9375 14 39.5004C14 39.626 14.0089 39.7504 14.0234 39.8734C11.2103 39.5651 8.67384 39.0748 6.57031 38.4437C4.70874 37.8853 3.12944 37.1999 1.99316 36.3939C0.882914 35.6064 0 34.5557 0 33.2426C0.00026987 31.9297 0.883078 30.8796 1.99316 30.0922C3.12944 29.2863 4.70878 28.6008 6.57031 28.0424Z" fill="#8F7F7F"/>
<ellipse cx="20.5" cy="39.5" rx="4.5" ry="3.5" fill="#8F7F7F"/>
</svg>
