<svg width="39" height="39" viewBox="0 0 39 39" fill="none" xmlns="http://www.w3.org/2000/svg">
<g clip-path="url(#clip0_2_834)">
<path d="M13.975 26C17.2059 26 19.825 23.3809 19.825 20.15C19.825 16.9192 17.2059 14.3 13.975 14.3C10.7441 14.3 8.125 16.9192 8.125 20.15C8.125 23.3809 10.7441 26 13.975 26Z" fill="#59A6FF" stroke="#59A6FF" stroke-width="2" stroke-linecap="round" stroke-linejoin="round"/>
<path d="M29.25 27.625C31.4937 27.625 33.3125 25.8062 33.3125 23.5625C33.3125 21.3188 31.4937 19.5 29.25 19.5C27.0063 19.5 25.1875 21.3188 25.1875 23.5625C25.1875 25.8062 27.0063 27.625 29.25 27.625Z" fill="#59A6FF" stroke="#59A6FF" stroke-width="2" stroke-linecap="round" stroke-linejoin="round"/>
<path d="M24.7001 39C24.7001 32.5384 19.7528 27.3 13.6501 27.3C7.54735 27.3 2.6001 32.5384 2.6001 39" fill="#59A6FF"/>
<path d="M24.7001 39C24.7001 32.5384 19.7528 27.3 13.6501 27.3C7.54735 27.3 2.6001 32.5384 2.6001 39" stroke="#59A6FF" stroke-width="2" stroke-linecap="round" stroke-linejoin="round"/>
<path d="M37.7 39C37.7 32.5384 33.9168 27.3 29.25 27.3C24.5833 27.3 20.8 32.5384 20.8 39" fill="#59A6FF"/>
<path d="M37.7 39C37.7 32.5384 33.9168 27.3 29.25 27.3C24.5833 27.3 20.8 32.5384 20.8 39" stroke="#59A6FF" stroke-width="2" stroke-linecap="round" stroke-linejoin="round"/>
<path d="M21.6667 29.4666C23.4001 31.0492 26.6803 36.0134 26.6803 39.4951" stroke="#F7F9FA"/>
</g>
<defs>
<clipPath id="clip0_2_834">
<rect width="39" height="39" fill="white"/>
</clipPath>
</defs>
</svg>
