<svg width="24" height="24" viewBox="0 0 24 24" fill="none" xmlns="http://www.w3.org/2000/svg">
<path d="M4.5 7.00018L2 10.0345C2 10.0345 2.92457 13.5175 5.5 16.0003C10.4448 20.7672 17.667 17.652 20.5 15.5003C23.1784 13.3155 21.8584 12.8348 21 13.0003L18.5 13.5003C23.0327 6.34988 21.7877 5.58653 20.5 6.00033L16 8.00033C13.1156 9.58928 11.75 8.75033 11 8.00033L9.5 6.50013C7.25 4.50003 5.0151 6.42088 4.5 7.00018Z" fill="#E8989B"/>
<path d="M7 11C7.55228 11 8 10.5523 8 10C8 9.44772 7.55228 9 7 9C6.44772 9 6 9.44772 6 10C6 10.5523 6.44772 11 7 11Z" fill="#F7F9FA"/>
<path d="M20 12C18.5 13 14.8 15 12 15" stroke="#F7F9FA"/>
</svg>
