<svg width="32" height="22" viewBox="0 0 32 22" fill="none" xmlns="http://www.w3.org/2000/svg">
<path d="M-0.000106812 16.3221C3.8203 12.4992 5.68713 11.1449 9.12498 9.18756C10.3322 8.5002 14.1644 8.67112 19.2205 8.54488C23.111 6.30696 26.1765 2.55543 27.5804 1.32234C27.9643 1.02267 28.3851 0.770192 29.0737 0" stroke="#2552C8" stroke-linecap="round"/>
<path d="M1.06302 18.4803C4.88342 14.6574 6.75026 13.3031 10.1881 11.3458C11.3954 10.6584 15.2276 10.8293 20.2836 10.7031C24.1741 8.46517 27.2396 4.71363 28.6436 3.48054C29.0274 3.18088 29.4482 2.9284 30.1368 2.1582" stroke="#2552C8" stroke-opacity="0.5" stroke-linecap="round"/>
<path d="M1.90302 20.1602C5.72342 16.3373 7.59025 14.9831 11.0281 13.0257C12.2353 12.3383 16.0676 12.5093 21.1236 12.383C25.0141 10.1451 28.0796 6.39357 29.4836 5.16047C29.8674 4.86081 30.2882 4.60833 30.9768 3.83813" stroke="#2552C8" stroke-opacity="0.5" stroke-linecap="round"/>
<path d="M2.74302 21.8404C6.56342 18.0175 8.43026 16.6633 11.8681 14.7059C13.0754 14.0185 16.9076 14.1894 21.9636 14.0632C25.8541 11.8253 28.9196 8.07374 30.3236 6.84065C30.7074 6.54099 31.1282 6.2885 31.8168 5.51831" stroke="#2552C8" stroke-opacity="0.5" stroke-linecap="round"/>
</svg>
