<svg width="48" height="46" viewBox="0 0 48 46" fill="none" xmlns="http://www.w3.org/2000/svg">
<path d="M9 27.6037C11.7614 27.6037 14 25.4729 14 22.8445C14 25.4729 16.2386 27.6037 19 27.6037C21.7614 27.6037 24 25.4729 24 22.8445C24 25.4729 26.2386 27.6037 29 27.6037C31.7614 27.6037 34 25.4729 34 22.8445C34 25.4729 36.2386 27.6037 39 27.6037C41.7614 27.6037 44 25.4729 44 22.8445C44 33.3583 35.0457 41.8815 24 41.8815C12.9543 41.8815 4 33.3583 4 22.8445C4 25.4729 6.23858 27.6037 9 27.6037Z" stroke="#70A0D8" stroke-width="3" stroke-linecap="round" stroke-linejoin="round"/>
<path d="M28 12.374C28 14.4767 26.2091 16.1814 24 16.1814C21.7909 16.1814 20 14.4767 20 12.374C20 10.2713 24 3.80737 24 3.80737C24 3.80737 28 10.2713 28 12.374Z" stroke="#70A0D8" stroke-width="3" stroke-linecap="round" stroke-linejoin="round"/>
</svg>
