<svg width="36" height="36" viewBox="0 0 36 36" fill="none" xmlns="http://www.w3.org/2000/svg">
<path d="M20.0826 12.2531C20.3805 12.1655 20.8288 12.0875 21.0321 12C21.0713 12.079 21.3734 13.1509 21.3882 13.2248C21.403 13.2986 21.4223 13.3951 21.4469 13.4832C21.5293 13.9544 21.8197 14.4598 22 15C22.0632 15.1892 22 16 21.8119 16.6827C21.6925 17.116 21.6991 17.3555 21.651 17.5728C21.5872 17.8607 21.4846 18.1187 21.3828 18.3671C21.2948 18.582 21.2126 18.8197 21.144 19.0252C21.0707 19.2447 20.9907 19.4575 20.8656 19.6791C20.6314 20.0935 20.4073 20.3029 20.2417 20.4484C20.0365 20.6287 20.191 20.8462 20 21C19.7754 21.1809 19.2645 21.314 19.1012 21.4183C18.8555 21.5752 18.557 21.8322 18.212 21.9796C17.5399 22.2666 17.2262 22.3301 17.0194 22.3832C16.79 22.4421 16.2131 23.1424 16 23C15.8242 22.8826 15.7405 22.6026 15.6804 22.3832C15.6268 22.1879 15.289 21.8162 15.2415 21.3204C15.2172 21.0672 15.2125 20.8672 15.1242 20.6531C15.0417 20.453 14.9973 20.1382 14.9246 19.7901C14.8756 19.5557 14.9883 19.2514 14.9246 19.0252C14.8365 18.713 15.0187 18.2307 15 18C14.9709 17.642 15.0458 17.2169 15.1243 16.8245C15.1925 16.4837 15.2864 16.3163 15.3827 16.0938C15.4756 15.8795 15.6772 15.7643 15.802 15.4894C15.895 15.2845 15.9231 14.937 16.2752 14.5435C16.4408 14.3586 16.6237 14.2141 16.8897 14.1152C17.1527 14.0175 17.528 13.8092 17.7862 13.6374C17.9623 13.5203 18.1705 13.3672 18.3371 13.2476C18.5975 13.0605 18.9733 12.669 19.322 12.5553C19.5914 12.4674 19.8762 12.3138 20.0826 12.2531Z" fill="#E8989B"/>
<path d="M25.2982 8.53681C23.6674 11.5243 21.5719 11.4262 20.0374 12.1891C17.6383 13.3818 14.2038 15.8279 15.5627 22.4005C15.8683 23.879 18.0251 25.8722 16.4418 28.7461" stroke="#E8989B" stroke-width="1.4" stroke-linecap="round"/>
<path d="M20.5636 6.04797C19.4235 9.31782 20.9012 10.845 21.3476 12.5335C21.999 14.9971 22.498 20.4971 16.718 22.8725C15.3153 23.4489 12.4884 23.3536 11.4013 26.5102" stroke="#E8989B" stroke-width="1.4" stroke-linecap="round"/>
<path d="M16.4014 16.166L20.8779 18.3208" stroke="#F7F9FA" stroke-linecap="round"/>
<path d="M16.4639 19.1084L19.5743 20.6739" stroke="#F7F9FA" stroke-linecap="round"/>
<path d="M18.3298 14.1318L21.4403 15.6974" stroke="#F7F9FA" stroke-linecap="round"/>
<path d="M21.998 7.66211L24.2381 8.68195" stroke="#E8989B" stroke-linecap="round"/>
<path d="M12.7617 25.208L15.1861 26.3459" stroke="#E8989B" stroke-linecap="round"/>
</svg>
