<svg width="24" height="24" viewBox="0 0 24 24" fill="none" xmlns="http://www.w3.org/2000/svg">
<path d="M11.5176 10.5175L15.5 6.5351M11.5176 10.5175C11.5176 10.5175 11.1568 6.34315 13.5 4C15.8431 1.65686 20.0029 2.01754 20.0029 2.01754C20.0029 2.01754 20.3431 6.15685 18 8.5C15.6568 10.8431 11.5176 10.5175 11.5176 10.5175Z" stroke="#A19898" stroke-width="2" stroke-linecap="round" stroke-linejoin="round"/>
<path d="M11.4856 15.9855L8.00005 12.5M11.4856 15.9855C11.4856 15.9855 11.9246 12.4217 10 10.5C8.0755 8.57829 4.51613 9.01444 4.51613 9.01444C4.51613 9.01444 4.07547 12.5783 6.00005 14.5C7.9246 16.4217 11.4856 15.9855 11.4856 15.9855Z" stroke="#A19898" stroke-width="2" stroke-linecap="round" stroke-linejoin="round"/>
<path d="M11.5 2V22" stroke="#A19898" stroke-width="2" stroke-linecap="round" stroke-linejoin="round"/>
</svg>
