<svg width="32" height="22" viewBox="0 0 32 22" fill="none" xmlns="http://www.w3.org/2000/svg">
<g opacity="0.5">
<path d="M0 16.3221C3.8204 12.4992 5.68724 11.1449 9.12509 9.18756C10.3323 8.5002 14.1645 8.67112 19.2206 8.54488C23.1111 6.30696 26.1766 2.55543 27.5805 1.32234C27.9644 1.02267 28.3852 0.770192 29.0738 0" stroke="#BFA7EC" stroke-linecap="round"/>
<path d="M1.06313 18.4803C4.88353 14.6574 6.75037 13.3031 10.1882 11.3458C11.3955 10.6584 15.2277 10.8293 20.2837 10.7031C24.1742 8.46517 27.2397 4.71363 28.6437 3.48054C29.0275 3.18088 29.4483 2.9284 30.1369 2.1582" stroke="#B698ED" stroke-opacity="0.5" stroke-linecap="round"/>
<path d="M1.90312 20.1605C5.72352 16.3375 7.59036 14.9833 11.0282 13.0259C12.2355 12.3386 16.0677 12.5095 21.1237 12.3833C25.0142 10.1453 28.0797 6.39381 29.4837 5.16072C29.8675 4.86105 30.2883 4.60857 30.9769 3.83838" stroke="#B698ED" stroke-opacity="0.5" stroke-linecap="round"/>
<path d="M2.74313 21.8404C6.56353 18.0175 8.43037 16.6633 11.8682 14.7059C13.0755 14.0185 16.9077 14.1894 21.9637 14.0632C25.8542 11.8253 28.9197 8.07374 30.3237 6.84065C30.7075 6.54099 31.1283 6.2885 31.8169 5.51831" stroke="#B698ED" stroke-opacity="0.5" stroke-linecap="round"/>
</g>
</svg>
