<svg width="141" height="141" viewBox="0 0 141 141" fill="none" xmlns="http://www.w3.org/2000/svg">
<mask id="path-1-inside-1_2_756" fill="white">
<path d="M140.49 70.2452C140.49 56.352 136.371 42.7708 128.652 31.2191C120.933 19.6673 109.962 10.6638 97.1269 5.3471C84.2912 0.0304045 70.1673 -1.36068 56.541 1.34974C42.9148 4.06017 30.3983 10.7504 20.5743 20.5743C10.7504 30.3983 4.06017 42.9148 1.34974 56.541C-1.36068 70.1673 0.0304046 84.2912 5.3471 97.1269C10.6638 109.962 19.6673 120.933 31.2191 128.652C42.7708 136.371 56.352 140.49 70.2452 140.49V122.78C59.8548 122.78 49.6976 119.699 41.0583 113.926C32.419 108.154 25.6854 99.949 21.7092 90.3495C17.7329 80.75 16.6926 70.1869 18.7196 59.9961C20.7467 49.8053 25.7502 40.4445 33.0973 33.0973C40.4445 25.7502 49.8053 20.7467 59.9961 18.7196C70.1869 16.6926 80.75 17.7329 90.3495 21.7092C99.949 25.6854 108.154 32.419 113.926 41.0583C119.699 49.6976 122.78 59.8548 122.78 70.2452H140.49Z"/>
</mask>
<path d="M140.49 70.2452C140.49 56.352 136.371 42.7708 128.652 31.2191C120.933 19.6673 109.962 10.6638 97.1269 5.3471C84.2912 0.0304045 70.1673 -1.36068 56.541 1.34974C42.9148 4.06017 30.3983 10.7504 20.5743 20.5743C10.7504 30.3983 4.06017 42.9148 1.34974 56.541C-1.36068 70.1673 0.0304046 84.2912 5.3471 97.1269C10.6638 109.962 19.6673 120.933 31.2191 128.652C42.7708 136.371 56.352 140.49 70.2452 140.49V122.78C59.8548 122.78 49.6976 119.699 41.0583 113.926C32.419 108.154 25.6854 99.949 21.7092 90.3495C17.7329 80.75 16.6926 70.1869 18.7196 59.9961C20.7467 49.8053 25.7502 40.4445 33.0973 33.0973C40.4445 25.7502 49.8053 20.7467 59.9961 18.7196C70.1869 16.6926 80.75 17.7329 90.3495 21.7092C99.949 25.6854 108.154 32.419 113.926 41.0583C119.699 49.6976 122.78 59.8548 122.78 70.2452H140.49Z" stroke="url(#paint0_linear_2_756)" stroke-width="40" mask="url(#path-1-inside-1_2_756)"/>
<defs>
<linearGradient id="paint0_linear_2_756" x1="70.2452" y1="0" x2="70.2452" y2="140.49" gradientUnits="userSpaceOnUse">
<stop stop-color="#659AD7"/>
<stop offset="1" stop-color="#F4F4F4"/>
</linearGradient>
</defs>
</svg>
