<svg width="20" height="20" viewBox="0 0 20 20" fill="none" xmlns="http://www.w3.org/2000/svg">
<path d="M7.91667 8.33333C9.5275 8.33333 10.8333 7.0275 10.8333 5.41667C10.8333 3.80584 9.5275 2.5 7.91667 2.5C6.30583 2.5 5 3.80584 5 5.41667C5 7.0275 6.30583 8.33333 7.91667 8.33333Z" stroke="#578DCA" stroke-width="1.6" stroke-linecap="round" stroke-linejoin="round"/>
<path d="M13.5864 2.91675C14.4334 3.42712 14.9999 4.35579 14.9999 5.41675C14.9999 6.47771 14.4334 7.40637 13.5864 7.91675" stroke="#578DCA" stroke-width="1.6" stroke-linecap="round" stroke-linejoin="round"/>
<path d="M1.66675 17.0001V17.5001H14.1667V17.0001C14.1667 15.1332 14.1667 14.1998 13.8035 13.4868C13.4839 12.8596 12.9739 12.3496 12.3467 12.03C11.6337 11.6667 10.7002 11.6667 8.83341 11.6667H7.00008C5.13325 11.6667 4.19983 11.6667 3.48678 12.03C2.85957 12.3496 2.34964 12.8596 2.03006 13.4868C1.66675 14.1998 1.66675 15.1332 1.66675 17.0001Z" stroke="#578DCA" stroke-width="1.6" stroke-linecap="round" stroke-linejoin="round"/>
<path d="M18.3332 17.5V17C18.3332 15.1332 18.3332 14.1998 17.9699 13.4867C17.6503 12.8595 17.1404 12.3496 16.5132 12.03" stroke="#578DCA" stroke-width="1.6" stroke-linecap="round" stroke-linejoin="round"/>
</svg>
