<svg width="107" height="53" viewBox="0 0 107 53" fill="none" xmlns="http://www.w3.org/2000/svg">
<path d="M-0.483017 -0.129208C-0.411658 -0.395969 -0.137555 -0.554375 0.129207 -0.483017L4.47636 0.679852C4.74312 0.751209 4.90153 1.02531 4.83017 1.29208C4.75881 1.55884 4.48471 1.71724 4.21795 1.64589L0.35381 0.612225L-0.67985 4.47636C-0.75121 4.74312 -1.02531 4.90153 -1.29207 4.83017C-1.55884 4.75881 -1.71724 4.48471 -1.64588 4.21795L-0.483017 -0.129208ZM107 52.8584L107.029 53.3576C94.631 54.0686 74.4106 52.266 53.9736 44.5583C33.5317 36.8487 12.8403 23.2179 -0.432908 0.250179L0 0L0.432908 -0.250179C13.5597 22.4641 34.035 35.9698 54.3264 43.6226C74.6227 51.2773 94.7023 53.0629 106.971 52.3592L107 52.8584Z" fill="#D8D1D1"/>
</svg>
