<svg width="1920" height="251" viewBox="0 0 1920 251" fill="none" xmlns="http://www.w3.org/2000/svg">
<path d="M43.1535 54.9969C23.1095 55.0033 10.7232 55.4224 0 56.6922V137L1920 131.133V43.3584C1915.78 40.7678 1911.68 38.2534 1908.79 36.6724C1900.94 33.1866 1874.38 31.9294 1855.2 29.7991L1852.74 29.2433C1838.1 25.9306 1827.38 23.5067 1816.95 22.5068C1800.26 20.9067 1775.16 19.1903 1759.01 17.1097C1745.8 15.4081 1739.55 12.5468 1730.9 10.3317C1716.76 6.70932 1698.17 -4.88094 1653.05 2.3028C1631.52 5.73151 1613.84 11.6921 1602.44 12.5667C1592.72 13.3128 1579.18 14.7907 1560.79 17.3415C1531.88 21.3512 1519.54 21.9468 1510.4 22.3004C1502.12 22.6211 1484.74 25.6577 1469.2 27.1736C1450.79 28.9705 1436.58 29.4154 1422.07 31.3008C1412.34 32.5643 1395.08 34.3704 1379.86 35.1073C1366.81 35.739 1354.6 37.3833 1339.52 38.9201C1327.12 40.1837 1317.54 44.5132 1252.73 40.3868C1232.78 39.1169 1224.97 37.7788 1219.98 37.0026C1210.46 35.5231 1194.02 34.2269 1180.26 33.4088C1169.47 32.7675 1155.75 32.7708 1142.15 30.1134C1121.1 25.999 1112.95 24.923 1102.49 23.7767C1093.79 22.8243 1085.62 20.3593 1036.47 20.0749C1000.26 19.8654 935.14 19.8654 901.103 20.1892C867.065 20.513 864.224 21.4341 856.857 21.4559C823.627 21.5543 813.752 20.7436 784.792 20.6051C762.887 20.5003 722.626 19.6484 699.937 20.9321C662.679 23.0401 651.493 23.8376 642.865 25.6974C631.627 28.1197 616.862 26.9152 597.794 26.9546C544.426 27.0648 535.062 27.9346 526.417 28.7377L526.2 28.7578C517.072 29.6054 507.09 30.7928 497.034 33.7389C487.26 36.6026 471.657 38.9325 457.517 39.9741C445.882 40.8313 426.863 42.1074 415.524 44.8473C404.975 47.3966 394.299 49.8451 366.78 50.1332C346.767 50.3428 309.805 49.5183 290.209 50.5586C262.222 52.0444 237.205 50.7564 221.278 53.8445C207.638 56.489 199.681 58.2377 192.552 61.2543C185.298 64.3243 155.294 66.2447 136.491 64.9434C127.363 64.3116 117.308 64.463 109.187 63.5687C100.48 62.6099 90.388 60.3481 78.5686 58.9082C69.0306 57.7462 57.7649 54.9923 43.1535 54.9969Z" fill="url(#paint0_linear_2_1362)"/>
<path opacity="0.5" d="M40.8277 113.388C27.1901 110.881 6.74641 106.465 0 102.049V251H1920V70.5059C1904.36 70.5059 1889.18 70.5059 1880.14 69.9415C1862.97 66.6941 1849.58 62.383 1828.09 55.4703L1826.63 55C1767.18 55.0332 1756.71 61.4227 1744.48 65.2681C1733.11 68.8457 1722.34 83.6401 1621.07 72.9795C1597.42 70.4893 1569.05 66.8781 1530.28 69.128C1506.53 70.5059 1492.04 73.6715 1477 77.1631C1462.78 80.4669 1448.17 84.2299 1397.6 84.8995C1356.23 85.4474 1278.65 85.4474 1238.41 86.0118C1198.17 86.5762 1195.48 88.0344 1192.5 88.7842C1179.39 92.0879 1162.45 90.386 1148.77 97.085C1137.42 102.647 1123.47 116.005 1101.55 116.168C1066.99 116.426 1054.54 114.051 1039.74 112.002C1027.8 110.35 1014.91 100.659 996.483 100.937C957.921 101.518 915.851 104.85 878.796 105.095C837.355 105.369 807.565 105.009 802.371 101.468C790.999 93.7149 742.99 84.8548 714.617 94.0469C698.423 99.293 684.837 100.421 671.472 104.008C654.027 108.69 629.096 106.714 614.937 102.572C590.447 95.4083 567.893 93.9538 552.209 91.7974C530.172 88.7676 499.287 97.8087 474.778 97.9068C410.509 98.1641 394.786 90.8477 363.616 90.7017C305.139 90.4278 264.041 91.5586 256.909 91.814C249.259 92.0879 238.704 92.487 228.228 96.2716C207.639 103.709 179.821 89.771 115.668 99.293C85.693 103.742 64.8865 117.81 40.8277 113.388Z" fill="url(#paint1_linear_2_1362)"/>
<defs>
<linearGradient id="paint0_linear_2_1362" x1="960" y1="0" x2="960" y2="137" gradientUnits="userSpaceOnUse">
<stop stop-color="#F7EBEB"/>
<stop offset="1" stop-color="#F7F9FA"/>
</linearGradient>
<linearGradient id="paint1_linear_2_1362" x1="960" y1="55" x2="960" y2="251" gradientUnits="userSpaceOnUse">
<stop stop-color="#F6BEBE"/>
<stop offset="1" stop-color="#F7F9FA"/>
</linearGradient>
</defs>
</svg>
