<svg width="118" height="117" viewBox="0 0 118 117" fill="none" xmlns="http://www.w3.org/2000/svg">
<path d="M117.473 61.9551C117.386 64.0397 117.04 66.7459 116.631 68.784C116.504 69.4212 116.511 69.0881 116.418 69.5258C116.234 70.3777 116.088 71.1877 115.866 72.0232C115.791 72.3 115.792 71.9338 115.716 72.224C115.295 73.8119 114.89 75.3153 114.351 76.8942C111.689 84.6536 107.523 91.7408 101.933 97.8533C100.094 99.8756 97.636 102.111 95.4667 103.908C95.214 104.119 95.4126 104.052 95.3679 104.097C94.6594 104.785 94.821 104.463 94.3037 104.842C92.247 106.341 89.8936 107.907 87.7889 109.154C86.8919 109.682 87.8725 109.294 86.9171 109.737C86.8507 109.767 87.0436 109.57 86.7898 109.702C86.2151 110.002 85.137 110.583 84.6837 110.8C83.812 111.22 83.6686 111.289 82.8396 111.672C81.7028 112.193 80.3198 112.731 79.0704 113.219C78.8035 113.323 79.1875 113.266 78.7633 113.438C78.3402 113.613 77.1971 114.004 76.802 114.111C76.4081 114.22 76.5538 114.105 76.4807 114.114C75.8784 114.185 74.5949 114.742 74.4196 114.792C71.28 115.747 68.4807 116.19 65.4336 116.559C63.1313 116.836 60.6655 117.006 58.4459 117C58.4275 117 58.4091 117 58.3908 116.999C55.7322 116.985 53.5034 116.795 50.9454 116.482C50.6762 116.448 50.9795 116.583 50.6504 116.54C47.1523 116.087 43.7196 115.299 40.4009 114.159C40.0679 114.044 40.525 114.105 40.1944 113.985C38.1631 113.273 35.0973 111.827 33.7955 111.598C32.4779 110.975 30.9097 110.148 29.8107 109.442C29.1036 108.986 29.8552 109.315 28.945 108.831C28.7404 108.721 28.9606 108.943 28.6568 108.771C27.377 108.048 26.0432 107.154 24.8298 106.35C24.583 106.187 24.6081 106.291 24.5322 106.253C23.894 105.931 23.0555 105.088 22.8621 104.921C21.377 103.66 20.2698 102.771 18.9316 101.548C18.6224 101.263 18.9237 101.67 18.624 101.398C17.072 99.9794 15.5605 98.404 14.2437 96.8232C13.9514 96.4711 14.2881 96.7361 14.1519 96.5651C13.555 95.8098 13.3008 95.743 12.7457 95.0028C12.6292 94.8464 12.7522 94.8887 12.7359 94.8562C12.4834 94.3481 12.0559 94.0701 11.9657 93.9583C10.829 92.5479 10.3084 91.4962 9.3379 90.0503C9.22224 89.8764 9.40282 90.3207 9.08265 89.8278C6.95113 86.5427 5.10442 82.8047 3.80195 79.158C3.59947 78.5902 3.81308 78.9697 3.80722 78.9313C3.7094 78.3082 3.41814 77.9935 3.34646 77.8099C2.78747 76.364 2.50962 74.9401 2.03553 73.9799C0.690258 68.8833 -0.0635199 63.6556 0.00414006 58.4165C0.0208786 57.1192 0.0865348 55.8496 0.206243 54.5629C0.213767 54.4805 0.287815 54.6338 0.302538 54.4696C0.497729 52.4961 0.343998 52.8749 0.327407 51.5431C0.323794 51.2069 0.647653 50.234 0.675882 50.1496C0.773195 49.837 0.849352 50.1864 0.874674 50.0808C1.08408 49.2123 0.649351 49.2866 0.856555 48.0886C0.863873 48.0513 0.910872 48.2216 0.936122 48.1227C1.01486 47.8154 1.04254 47.5019 1.12719 47.2038C1.32389 46.5236 1.56763 46.3149 1.69325 45.2381C1.71089 45.102 1.42822 45.2505 1.69727 44.2013C1.79766 43.7837 2.3021 41.931 2.47986 41.4276C2.6505 40.9211 2.61546 41.2942 2.62969 41.2586C3.15617 39.9133 3.03403 40.4475 3.39997 39.8115C3.77091 39.1801 3.3757 39.2541 3.4357 38.9637C3.49417 38.6731 3.93834 37.7099 4.06053 37.4796C4.18062 37.2484 4.10887 37.5668 4.2071 37.3582C4.86621 35.9807 4.29227 36.6714 4.4293 36.1836C4.76175 35.0341 5.38123 34.2891 5.86932 33.3243C6.00242 33.0628 5.84496 33.2531 5.95397 33.0147C6.39079 32.0719 6.74522 31.5546 7.24216 30.4837C7.32251 30.3083 7.65153 29.3952 8.0656 28.921C8.12429 28.8541 8.05398 29.1006 8.29104 28.7279C8.64336 28.1715 9.28395 27.1683 9.65584 26.5652C9.9301 26.1193 9.50965 26.5608 9.90221 26.0299C10.0777 25.7949 9.82712 26.28 10.1528 25.8365C10.4746 25.3929 11.2802 24.2499 11.5983 23.8236C11.9131 23.3962 11.675 23.5809 11.6961 23.5432C11.8246 23.3145 12.4171 22.4803 12.4746 22.4105C15.288 18.821 18.3577 15.9169 21.762 13.0901C22.0302 12.869 21.7964 12.9478 21.8368 12.9134C22.7464 12.1427 22.152 12.9039 22.852 12.4523C22.6512 12.3895 23.055 12.1095 23.7161 11.5939C24.0349 11.3462 23.8185 11.423 23.8439 11.3955C24.2665 10.9572 24.6857 10.8231 24.7885 10.7832C25.1693 10.635 25.4577 10.2936 25.7188 10.1965C25.9789 10.1001 25.5204 10.5269 26.1841 10.0784C26.3368 9.90178 25.7503 10.0977 26.2436 9.73731C28.0925 8.34315 31.9319 6.36843 33.6284 5.6263C35.3084 4.85904 35.8631 4.62882 36.8675 4.24577C38.6948 3.57837 37.9899 3.72439 39.1078 3.26268C40.2371 2.81451 39.7748 3.28958 39.9597 3.29318C40.1414 3.29948 40.2975 3.17873 40.5102 3.14656C40.7221 3.11493 40.3001 3.29643 40.777 3.15682C41.2543 3.01317 42.5187 2.5223 42.6736 2.41332C42.996 2.17864 42.3604 2.19278 43.6541 1.90165C43.7286 1.88545 43.5091 2.02314 43.7932 1.95739C46.0372 1.43703 48.3994 0.980355 50.6853 0.73089C50.9997 0.696914 50.7308 0.819758 50.9137 0.801226C52.822 0.625443 52.1291 0.565251 53.1579 0.300541C52.944 0.540367 53.5283 0.603736 54.9798 0.515839C55.8558 0.468129 55.6951 0.383831 56.2574 0.294232C56.4258 0.267004 57.0456 0.314204 57.1568 0.268188C57.5248 0.118268 56.9347 -0.0446893 58.4459 0.0110906C58.4465 0.0111173 58.4472 0.0111441 58.4478 0.0111709C58.4712 0.0122585 58.4601 0.0228346 58.4459 0.0362892C58.4273 0.0539901 58.4034 0.0766744 58.4459 0.0892579C58.4628 0.094249 58.49 0.0976566 58.5321 0.0986008C60.0119 0.141586 60.1871 -0.00802278 61.7824 0.0534081C63.0394 0.10088 65.244 0.402724 66.6485 0.624936C66.5855 0.858832 67.9156 0.999904 68.4824 0.932866C69.3917 1.09698 70.3674 1.28161 71.2361 1.50023C71.534 1.57539 71.3216 1.59974 71.3577 1.61566C71.9089 1.86294 72.3339 1.80031 72.5288 1.84189C74.6405 2.30662 76.2861 2.94078 78.2626 3.52128C78.3324 3.54233 78.5023 3.42197 78.9774 3.73135C79.0075 3.75203 78.3433 3.58361 79.2489 3.93182C80.1557 4.27893 81.8053 5.06059 83.0536 5.56319C83.3555 5.68217 84.1606 5.91438 84.7033 6.30987C84.7754 6.3626 84.6676 6.36231 84.7687 6.44377C85.0951 6.70629 85.3732 6.65775 85.7312 7.01175C86.0876 7.36615 86.9158 7.93303 88.1249 8.53722C88.1633 8.55683 88.507 8.60365 88.8695 8.82904C89.4479 9.18724 90.2441 9.73206 90.8317 10.1275C91.1134 10.3168 90.9804 10.1259 91.0301 10.1575C92.9461 11.409 94.2066 12.4494 96.0571 14.0488C96.3964 14.341 97.4444 15.1044 98.0179 15.7653C98.6422 16.4929 97.6644 16.1062 99.2855 17.5602C99.9299 18.1505 101.095 18.594 101.948 19.9647C104.035 22.23 105.644 24.5878 107.39 27.1276C107.469 27.2417 107.828 27.5346 107.998 27.8145C108.251 28.2298 108.329 28.493 108.502 28.7926C109.223 30.0502 109.909 31.1893 110.527 32.4454C110.76 32.9231 110.616 32.7876 110.887 33.3591C111.155 33.9305 111.419 34.2739 111.724 35.0778C111.953 35.6869 112.029 36.3536 112.323 37.157C112.508 37.1186 112.728 37.6669 113.132 38.6366C113.209 38.8227 113.198 38.5975 113.237 38.6844C113.4 39.0384 113.468 39.3957 113.621 39.7335C113.658 39.8158 113.72 39.7994 113.754 39.8657C114.045 40.4291 114.213 41.4597 114.237 41.6345C114.339 42.3092 114.505 42.5906 114.606 43.1022C114.705 43.6129 114.458 42.8762 114.593 43.467C114.872 44.687 115.24 46.2573 115.471 47.5037C115.564 48.0017 115.584 47.6464 115.599 47.7173C115.814 48.7455 115.883 49.8135 116.13 50.3638C115.789 51.1439 116.267 50.9826 116.34 52.4943C116.344 52.6121 116.153 52.7826 116.076 52.3347C115.999 51.8861 115.985 51.1951 115.853 50.5799C115.823 50.4327 115.509 49.6236 115.478 49.5108C115.245 48.6276 115.524 48.4503 115.533 48.3991C115.623 47.8264 115.217 46.8457 115.145 46.5811C114.824 45.3633 114.616 44.3276 114.297 43.3243C114.087 42.6705 113.872 42.6625 113.728 42.1472C113.239 40.4424 113.304 39.7503 112.495 38.2583C112.317 37.9397 112.244 38.3506 111.936 37.0889C111.918 37.0093 111.706 36.0633 111.391 35.5939C111.352 35.5351 111.293 35.5629 111.252 35.481C110.974 34.9329 110.853 34.5388 110.547 33.945C110.242 33.353 109.853 32.6465 109.522 31.9612C109.323 31.5476 109.15 30.9725 109.069 30.7643C108.845 30.1756 108.391 29.6655 108.285 29.2813C108.176 28.893 108.702 29.4697 108.235 28.5545C108.071 28.6087 107.878 28.6236 107.702 28.6597C106.552 26.749 105.352 24.9068 103.973 23.141C103.802 22.9226 103.905 23.202 103.719 22.97C102.934 21.9941 102.281 21.1106 101.397 20.1556C100.712 19.4171 99.8866 18.6787 99.129 17.9521C98.816 17.3583 97.6457 16.3168 96.8095 15.551C96.517 15.2818 96.5707 15.2612 96.3691 15.0618C95.6031 14.3147 95.8693 14.7729 95.6302 14.6029C94.5975 13.8857 94.7621 13.5167 93.5827 12.6119C93.5207 12.5622 92.6304 12.1489 92.5163 12.0834C91.791 11.6567 92.4473 11.943 92.031 11.6229C91.2679 11.0428 90.7448 10.6212 89.7698 10.0573C89.4848 9.89256 88.7541 9.57926 88.2607 9.16537C88.1958 9.1109 88.2706 9.07673 88.215 9.03843C87.2006 8.3541 87.061 8.52838 86.4202 8.24904C85.7783 7.96993 84.899 7.34158 84.7214 7.20458C84.261 6.84499 85.1341 7.36367 85.1655 7.37014C85.5483 7.42687 84.8431 7.07772 84.309 6.79896C84.3261 6.57143 83.5607 6.21013 83.7539 6.51242C83.7764 6.54557 84.2055 6.73565 84.309 6.79896C83.7434 6.74447 82.91 6.36547 82.0576 5.77272C81.6566 5.49807 82.117 5.57465 80.7613 5.03978C80.1453 4.80301 80.3262 5.03316 79.7728 4.8529C78.5074 4.44135 76.9328 3.73882 75.6123 3.35347C75.1364 3.21444 75.5745 3.43199 75.2487 3.34043C74.3841 3.10002 73.6345 2.82846 72.7494 2.63287C72.6697 2.6155 72.8423 2.74458 72.5709 2.67676C70.5089 2.17013 68.6971 1.75669 66.496 1.44264C65.4344 1.28604 63.5186 1.13153 62.41 1.05421C61.1629 0.958286 59.7566 0.85538 58.4459 0.827535C57.7233 0.811439 57.0426 0.816725 56.4571 0.84707C55.3852 0.906493 55.6273 0.983111 55.1686 1.06289C54.2852 1.21559 52.712 1.16232 52.4974 1.15796C52.4916 1.15602 53.4068 1.04953 52.9131 1.05363C52.6196 0.992933 52.508 1.15659 52.4974 1.15796C52.3545 1.14577 50.514 1.34807 50.1565 1.42401C49.9609 1.46109 50.0823 1.52258 49.9803 1.54058C47.5443 1.97125 45.1402 2.5054 42.7215 3.1538C42.6787 3.16433 42.7186 3.0619 42.6182 3.0878C41.2165 3.45092 40.3604 3.84514 39.2589 4.30005C38.1578 4.75821 37.271 5.08798 36.561 5.21746C35.7353 5.5746 34.5237 6.04245 33.8349 6.32702C33.145 6.6106 33.1268 6.81399 33.0697 6.84497C31.2922 7.85319 30.2129 8.33427 28.3943 9.42169C27.5268 9.93651 25.8752 11.0605 25.005 11.7181C24.3152 12.2333 23.876 12.5127 23.2633 13.0187C23.1806 13.0873 23.3129 13.0807 23.2888 13.1031C22.6485 13.7196 22.8688 13.3126 22.7044 13.3998C22.1116 13.72 21.7472 13.9272 20.9188 14.7099C20.7268 14.8906 20.3292 15.5936 19.9888 15.9248C19.5449 16.3563 19.6516 16.1274 19.193 16.5868C19.1541 16.6263 19.2021 16.6607 18.9106 16.9343C17.5587 18.2052 16.1357 19.6503 14.8853 21.121C14.7146 21.3217 15.0048 21.1255 14.7602 21.4168C13.6128 22.7837 12.4194 24.3332 11.3919 25.7371C11.1388 26.0828 11.2378 25.8249 11.1688 25.8903C10.745 26.2947 10.4417 27.0666 10.3727 27.1803C8.71776 29.8999 7.40485 31.9713 6.12635 34.9613C6.05419 35.124 5.68094 36.4428 5.3131 36.9454C5.28782 36.9792 4.91307 37.4778 4.82711 38.0153C4.82211 38.0486 5.03164 37.7278 4.79294 38.3361C4.55404 38.9463 4.25708 39.9488 3.89535 40.777C3.78064 41.0388 3.42147 41.6329 3.30937 42.4842C3.29929 42.5401 3.2287 43.8768 2.92508 44.2793C2.87614 44.3447 2.68376 44.2143 2.55388 45.2253C2.53043 45.4185 2.65541 45.0872 2.56952 45.5902C2.43883 46.3615 2.17322 47.3628 2.09918 48.3225C2.08562 48.4902 2.10612 49.214 1.91383 49.7622C1.88373 49.8476 1.83884 49.6697 1.78672 49.9656C1.53952 51.3742 1.42229 52.8786 1.27199 54.3248C1.21991 54.8394 1.12274 54.5677 1.06006 55.1061C0.99634 55.6465 0.925548 56.7248 0.969265 57.2932C1.01258 57.8596 1.20139 57.2449 1.20806 58.0907C1.20932 58.1993 1.21074 58.3079 1.21231 58.4165C1.2645 61.9688 1.48549 65.4954 2.12196 68.9926C2.22098 69.5252 2.19818 69.073 2.35486 69.854C2.89329 72.7593 4.4589 77.5985 5.34428 80.0033C6.02979 81.9383 4.95444 79.5887 5.52279 81.0541C5.80187 81.7635 6.33763 82.4209 6.42083 82.5825C7.23863 84.1684 7.72915 85.309 8.54492 86.6964C8.71437 86.9816 8.62752 86.6568 8.77122 86.8994C9.26297 87.7262 9.75755 88.6101 10.2623 89.3801C10.4892 89.7249 10.5026 89.6254 10.707 89.9448C11.1986 90.7071 11.6353 91.3831 12.1072 92.1354C12.1504 92.2041 11.763 91.8114 12.1579 92.3572C12.7981 93.2391 13.5844 94.3472 14.4401 95.2684C14.695 95.5411 14.8151 95.4569 15.2613 96.1277C15.3563 96.2671 15.0769 96.229 15.8147 96.8204C15.9368 96.9236 17.1486 97.9279 17.5934 98.5639C17.7094 98.7331 17.9702 99.2044 18.3075 99.501C18.3536 99.5407 18.2356 99.3137 18.5067 99.5667C19.462 100.458 20.4706 101.384 21.5126 102.23C21.7912 102.455 21.4362 102.049 21.8499 102.386C22.9864 103.31 24.4272 104.439 25.5876 105.281C26.0154 105.592 25.6765 105.439 25.7037 105.467C26.1432 105.922 26.5417 105.989 26.717 106.095C27.8109 106.753 28.5983 107.333 29.6239 107.91C29.9074 108.068 29.7476 107.885 29.8071 107.911C30.4214 108.186 29.9185 108.06 30.2798 108.283C31.295 108.91 32.4709 109.519 33.5616 110.034C33.9613 110.222 33.5534 109.925 33.9114 110.094C36.0322 111.087 38.2974 112.002 40.4516 112.766C40.8584 112.91 40.5788 112.892 40.6593 112.935C41.2167 113.237 42.1309 113.352 42.3351 113.395C43.2646 113.595 43.6075 113.751 44.4223 113.946C48.4017 114.921 53.4315 115.603 57.3035 115.674C57.6897 115.684 58.0702 115.69 58.4459 115.693C62.9555 115.706 66.6485 115.354 70.9895 114.391C71.288 114.323 70.9666 114.3 71.2231 114.24C74.5304 113.462 77.7373 112.461 80.861 111.102C81.1174 110.991 80.7124 111.068 81.1219 110.885C81.962 110.509 83.0147 110.025 83.8607 109.634C84.2725 109.444 83.7622 109.784 84.1761 109.59C85.1394 109.137 86.147 108.601 87.0865 108.04C87.4854 107.801 86.8342 108.076 87.3549 107.771C90.8965 105.678 94.1442 103.255 97.2831 100.521C97.4976 100.333 97.808 100.298 98.2234 99.851C98.2211 99.7825 98.1777 99.741 98.1543 99.6879C102.451 95.5102 106.133 90.7693 108.989 85.4696C109.108 85.2464 108.817 85.5866 109.047 85.1543C110.376 82.643 111.46 80.1116 112.516 77.4027C112.619 77.1336 112.736 77.3313 112.983 76.5147C113.029 76.3717 113.396 75.1397 113.45 74.8123C113.458 74.7676 113.315 74.9685 113.429 74.5728C114.095 72.2657 114.662 69.8247 115.084 67.463C115.152 67.081 115.173 67.5025 115.222 67.2301C115.566 65.3072 115.712 63.1826 115.879 61.3124C115.987 60.0683 116.112 60.5351 116.277 59.8712C116.301 59.7773 116.317 58.9955 116.401 58.9553C116.613 58.8524 116.841 59.237 117.069 59.0826C117.12 59.0504 117.07 57.9849 117.186 58.616C117.195 58.6603 117.226 59.4326 117.261 59.6231C117.286 59.7559 117.377 59.5191 117.406 59.7901C117.435 60.0613 117.355 60.3557 117.379 60.8033C117.402 61.2523 117.512 61.0541 117.473 61.9551ZM30.7575 7.69315C30.1102 7.95652 30.1683 8.26784 30.7877 7.84336C30.8176 7.82261 30.7908 7.67953 30.7575 7.69315ZM105.508 24.8103C105.087 23.9954 104.555 23.6186 104.855 24.1907C105.15 24.7627 105.635 25.0583 105.508 24.8103ZM110.419 32.8206C110.038 31.8228 109.583 31.8706 110.168 32.8427C110.202 32.8995 110.441 32.879 110.419 32.8206ZM116.159 62.9746C116.165 62.9655 116.21 62.4056 116.206 62.3918C116.132 62.0875 116.044 63.2053 116.159 62.9746ZM113.957 41.4649C113.918 41.1321 113.56 40.2387 113.619 40.6543C113.668 40.988 114.009 41.8796 113.957 41.4649ZM6.01395 33.3611C6.00489 33.3689 5.82847 33.7315 5.85506 33.7351C5.93975 33.7446 6.16017 33.2291 6.01395 33.3611ZM116.463 57.1194C116.415 54.7819 116.644 53.3155 116.751 55.8921C116.765 56.3558 116.592 54.8984 116.589 55.4902C116.582 56.5677 116.821 57.2826 116.706 58.3961C116.687 58.5958 116.468 57.2514 116.463 57.1152C116.463 57.1166 116.463 57.118 116.463 57.1194ZM30.2329 7.57125C30.2184 7.57401 29.7288 7.84523 29.7194 7.85583C29.5029 8.08709 30.4873 7.5412 30.2329 7.57125ZM0.209524 56.0669C0.196461 56.0965 0.151924 57.3966 0.162473 57.4401C0.299498 58.1192 0.387192 55.4976 0.209524 56.0669ZM66.6697 0.634472C67.2861 0.623928 68.0194 0.729744 68.4796 0.932267C67.8808 0.82195 67.2716 0.725286 66.6697 0.634472Z" fill="#522324"/>
<path d="M35.2653 39.3258L58.9584 32.5209L82.6289 39.3258V53.2809C82.6289 67.9488 73.0907 80.9706 58.9505 85.6073C44.8066 80.9707 35.2653 67.9459 35.2653 53.2745V39.3258Z" stroke="#522324" stroke-width="2" stroke-linejoin="round"/>
<path d="M47.1062 57.1218L56.3158 66.1852L72.1037 50.6479" stroke="#522324" stroke-width="2" stroke-linecap="round" stroke-linejoin="round"/>
</svg>
