<svg width="118" height="117" viewBox="0 0 118 117" fill="none" xmlns="http://www.w3.org/2000/svg">
<path d="M117.474 61.9552C117.386 64.0399 117.04 66.746 116.631 68.7842C116.504 69.4213 116.511 69.0882 116.418 69.526C116.234 70.3778 116.088 71.1879 115.866 72.0233C115.792 72.3001 115.792 71.934 115.716 72.2242C115.295 73.8121 114.89 75.3154 114.351 76.8943C111.689 84.6538 107.523 91.741 101.933 97.8535C100.095 99.8758 97.6362 102.111 95.4669 103.908C95.2142 104.119 95.4128 104.053 95.3681 104.097C94.6596 104.785 94.8212 104.463 94.3039 104.842C92.2472 106.341 89.8938 107.907 87.7891 109.154C86.8921 109.682 87.8726 109.294 86.9173 109.737C86.8509 109.768 87.0438 109.571 86.79 109.702C86.2153 110.003 85.1372 110.584 84.6839 110.801C83.8121 111.22 83.6687 111.289 82.8398 111.672C81.7029 112.194 80.32 112.732 79.0706 113.219C78.8037 113.324 79.1877 113.266 78.7635 113.439C78.3403 113.613 77.1973 114.004 76.8022 114.111C76.4083 114.22 76.5539 114.105 76.4809 114.114C75.8786 114.186 74.5951 114.742 74.4197 114.792C71.2802 115.747 68.4808 116.19 65.4337 116.559C63.1315 116.836 60.6657 117.006 58.446 117C58.4276 117 58.4092 117 58.3909 117C55.7323 116.986 53.5035 116.796 50.9455 116.482C50.6763 116.448 50.9796 116.583 50.6505 116.541C47.1524 116.087 43.7197 115.3 40.401 114.159C40.068 114.044 40.525 114.105 40.1945 113.985C38.1631 113.274 35.0974 111.827 33.7956 111.598C32.4779 110.975 30.9097 110.148 29.8108 109.443C29.1037 108.987 29.8553 109.315 28.945 108.832C28.7405 108.721 28.9606 108.943 28.6569 108.772C27.377 108.048 26.0432 107.155 24.8298 106.35C24.583 106.187 24.6082 106.291 24.5322 106.253C23.894 105.931 23.0555 105.088 22.8622 104.921C21.377 103.66 20.2698 102.771 18.9317 101.549C18.6225 101.263 18.9237 101.671 18.624 101.398C17.072 99.9797 15.5606 98.4042 14.2437 96.8234C13.9514 96.4713 14.2882 96.7363 14.152 96.5653C13.5551 95.81 13.3008 95.7432 12.7457 95.003C12.6292 94.8466 12.7522 94.8889 12.7359 94.8564C12.4834 94.3483 12.056 94.0702 11.9657 93.9585C10.8291 92.548 10.3084 91.4964 9.33792 90.0505C9.22226 89.8765 9.40284 90.3209 9.08267 89.828C6.95114 86.5429 5.10443 82.8048 3.80196 79.1582C3.59948 78.5904 3.81309 78.9699 3.80723 78.9314C3.70941 78.3084 3.41814 77.9937 3.34647 77.8101C2.78748 76.3642 2.50962 74.9402 2.03554 73.9801C0.69026 68.8835 -0.06352 63.6558 0.00414007 58.4167C0.0208787 57.1193 0.086535 55.8497 0.206243 54.563C0.213767 54.4806 0.287815 54.6339 0.302538 54.4697C0.49773 52.4962 0.343999 52.875 0.327408 51.5432C0.323795 51.207 0.647654 50.2341 0.675884 50.1497C0.773196 49.8371 0.849354 50.1865 0.874675 50.0809C1.08408 49.2124 0.649353 49.2867 0.856557 48.0887C0.863875 48.0514 0.910874 48.2217 0.936124 48.1228C1.01486 47.8155 1.04254 47.502 1.1272 47.2039C1.32389 46.5237 1.56763 46.315 1.69325 45.2382C1.7109 45.1021 1.42823 45.2506 1.69728 44.2014C1.79766 43.7838 2.3021 41.9311 2.47986 41.4277C2.65051 40.9211 2.61547 41.2942 2.62969 41.2587C3.15618 39.9133 3.03404 40.4476 3.39997 39.8116C3.77092 39.1802 3.3757 39.2542 3.43571 38.9638C3.49417 38.6731 3.93835 37.71 4.06054 37.4797C4.18063 37.2484 4.10888 37.5669 4.20711 37.3582C4.86622 35.9808 4.29228 36.6715 4.42931 36.1837C4.76176 35.0341 5.38124 34.2892 5.86933 33.3243C6.00243 33.0629 5.84498 33.2532 5.95398 33.0148C6.3908 32.0719 6.74524 31.5547 7.24218 30.4837C7.32252 30.3084 7.65154 29.3953 8.06562 28.921C8.12431 28.8542 8.05399 29.1006 8.29106 28.728C8.64337 28.1715 9.28397 27.1684 9.65586 26.5653C9.93012 26.1193 9.50967 26.5609 9.90223 26.0299C10.0777 25.7949 9.82714 26.2801 10.1528 25.8366C10.4746 25.3929 11.2802 24.2499 11.5983 23.8236C11.9131 23.3962 11.675 23.581 11.6961 23.5432C11.8246 23.3145 12.4171 22.4803 12.4746 22.4105C15.2881 18.821 18.3577 15.9169 21.762 13.0901C22.0302 12.869 21.7964 12.9478 21.8368 12.9134C22.7464 12.1427 22.1521 12.9039 22.852 12.4524C22.6512 12.3896 23.0551 12.1095 23.7161 11.594C24.035 11.3463 23.8185 11.423 23.844 11.3955C24.2666 10.9573 24.6857 10.8232 24.7886 10.7832C25.1693 10.635 25.4578 10.2936 25.7189 10.1965C25.979 10.1001 25.5205 10.5269 26.1842 10.0784C26.3369 9.9018 25.7503 10.0977 26.2437 9.73733C28.0926 8.34316 31.932 6.36844 33.6284 5.62631C35.3085 4.85905 35.8631 4.62883 36.8676 4.24578C38.6949 3.57838 37.99 3.7244 39.1078 3.26269C40.2372 2.81451 39.7748 3.28959 39.9597 3.29319C40.1415 3.29949 40.2975 3.17873 40.5103 3.14656C40.7222 3.11494 40.3002 3.29643 40.7771 3.15683C41.2544 3.01318 42.5187 2.5223 42.6736 2.41333C42.9961 2.17864 42.3605 2.19278 43.6542 1.90165C43.7287 1.88545 43.5092 2.02314 43.7933 1.9574C46.0373 1.43703 48.3995 0.980357 50.6854 0.730892C50.9998 0.696915 50.7309 0.81976 50.9138 0.801227C52.8222 0.625445 52.1292 0.565253 53.158 0.300542C52.9441 0.540368 53.5284 0.603737 54.98 0.51584C55.8559 0.46813 55.6952 0.383832 56.2575 0.294233C56.4259 0.267005 57.0457 0.314205 57.157 0.268188C57.525 0.118268 56.9348 -0.0446894 58.446 0.0110906C58.4467 0.0111174 58.4473 0.0111441 58.4479 0.0111709C58.4713 0.0122585 58.4602 0.0228346 58.446 0.0362893C58.4274 0.0539902 58.4036 0.0766745 58.446 0.0892581C58.4629 0.0942492 58.4901 0.0976568 58.5323 0.098601C60.012 0.141587 60.1873 -0.0080228 61.7825 0.0534082C63.0396 0.10088 65.2442 0.402725 66.6486 0.624937C66.5856 0.858833 67.9157 0.999906 68.4825 0.932867C69.3919 1.09698 70.3675 1.28162 71.2362 1.50024C71.5342 1.5754 71.3217 1.59974 71.3578 1.61566C71.9091 1.86295 72.3341 1.80032 72.529 1.8419C74.6407 2.30662 76.2863 2.94079 78.2628 3.52128C78.3326 3.54234 78.5025 3.42198 78.9776 3.73135C79.0077 3.75204 78.3434 3.58361 79.2491 3.93182C80.1558 4.27893 81.8054 5.0606 83.0537 5.5632C83.3557 5.68218 84.1608 5.91439 84.7035 6.30988C84.7755 6.36262 84.6677 6.36232 84.7689 6.44378C85.0952 6.7063 85.3734 6.65776 85.7314 7.01177C86.0877 7.36617 86.916 7.93305 88.125 8.53724C88.1634 8.55685 88.5072 8.60367 88.8697 8.82906C89.4481 9.18726 90.2443 9.73208 90.8319 10.1276C91.1135 10.3168 90.9806 10.1259 91.0303 10.1575C92.9463 11.409 94.2068 12.4494 96.0573 14.0488C96.3966 14.341 97.4446 15.1045 98.0181 15.7653C98.6424 16.4929 97.6646 16.1062 99.2857 17.5602C99.9301 18.1506 101.095 18.5941 101.948 19.9648C104.035 22.2301 105.644 24.5878 107.39 27.1276C107.469 27.2417 107.828 27.5346 107.998 27.8145C108.251 28.2299 108.329 28.4931 108.502 28.7927C109.223 30.0503 109.909 31.1894 110.527 32.4454C110.76 32.9231 110.616 32.7876 110.888 33.3592C111.155 33.9306 111.419 34.274 111.724 35.0778C111.953 35.6869 112.03 36.3537 112.324 37.1571C112.509 37.1186 112.728 37.667 113.132 38.6367C113.21 38.8228 113.198 38.5975 113.238 38.6845C113.401 39.0385 113.468 39.3957 113.621 39.7336C113.658 39.8159 113.72 39.7995 113.754 39.8658C114.045 40.4292 114.213 41.4598 114.237 41.6346C114.34 42.3093 114.505 42.5907 114.606 43.1022C114.705 43.613 114.458 42.8763 114.593 43.4671C114.872 44.6871 115.24 46.2573 115.471 47.5038C115.564 48.0018 115.584 47.6465 115.599 47.7174C115.814 48.7456 115.884 49.8136 116.131 50.3639C115.789 51.144 116.267 50.9828 116.34 52.4945C116.344 52.6122 116.153 52.7827 116.076 52.3348C115.999 51.8862 115.985 51.1952 115.853 50.58C115.824 50.4328 115.509 49.6237 115.478 49.5109C115.245 48.6277 115.524 48.4504 115.534 48.3992C115.624 47.8265 115.218 46.8458 115.146 46.5812C114.824 45.3634 114.616 44.3277 114.297 43.3244C114.087 42.6706 113.872 42.6626 113.729 42.1473C113.239 40.4425 113.304 39.7503 112.495 38.2584C112.317 37.9398 112.245 38.3507 111.936 37.089C111.918 37.0094 111.707 36.0634 111.391 35.5939C111.352 35.5351 111.293 35.5629 111.252 35.4811C110.974 34.9329 110.853 34.5389 110.547 33.9451C110.242 33.353 109.853 32.6466 109.522 31.9613C109.323 31.5476 109.15 30.9726 109.069 30.7643C108.845 30.1756 108.391 29.6655 108.285 29.2814C108.176 28.8931 108.703 29.4698 108.236 28.5546C108.072 28.6088 107.879 28.6237 107.702 28.6597C106.552 26.7491 105.352 24.9068 103.973 23.141C103.802 22.9226 103.905 23.202 103.719 22.97C102.934 21.9941 102.281 21.1107 101.397 20.1557C100.712 19.4171 99.8868 18.6788 99.1292 17.9521C98.8162 17.3583 97.6459 16.3168 96.8097 15.5511C96.5172 15.2818 96.5709 15.2612 96.3693 15.0618C95.6033 14.3147 95.8695 14.773 95.6304 14.6029C94.5977 13.8857 94.7623 13.5168 93.5829 12.6119C93.5209 12.5623 92.6306 12.1489 92.5165 12.0834C91.7912 11.6567 92.4475 11.943 92.0312 11.623C91.2681 11.0428 90.745 10.6212 89.77 10.0573C89.485 9.89258 88.7543 9.57928 88.2609 9.16539C88.196 9.11092 88.2708 9.07675 88.2152 9.03845C87.2008 8.35412 87.0612 8.5284 86.4204 8.24906C85.7785 7.96994 84.8991 7.34159 84.7215 7.2046C84.2611 6.84501 85.1342 7.36368 85.1657 7.37016C85.5485 7.42689 84.8433 7.07774 84.3092 6.79897C84.3262 6.57145 83.5608 6.21015 83.7541 6.51243C83.7766 6.54559 84.2057 6.73566 84.3092 6.79897C83.7436 6.74448 82.9102 6.36548 82.0578 5.77274C81.6568 5.49808 82.1172 5.57466 80.7614 5.03979C80.1454 4.80302 80.3264 5.03317 79.773 4.85292C78.5076 4.44136 76.933 3.73883 75.6125 3.35348C75.1366 3.21445 75.5747 3.432 75.2489 3.34043C74.3843 3.10003 73.6347 2.82847 72.7496 2.63288C72.6699 2.61551 72.8425 2.74458 72.5711 2.67676C70.5091 2.17013 68.6972 1.75669 66.4961 1.44265C65.4345 1.28604 63.5187 1.13153 62.4101 1.05421C61.1631 0.958288 59.7567 0.855382 58.446 0.827537C57.7234 0.811441 57.0428 0.816727 56.4572 0.847072C55.3853 0.906494 55.6275 0.983113 55.1687 1.0629C54.2853 1.21559 52.7121 1.16233 52.4975 1.15797C52.4917 1.15603 53.407 1.04953 52.9132 1.05363C52.6197 0.992935 52.5081 1.15659 52.4975 1.15797C52.3546 1.14577 50.5141 1.34808 50.1566 1.42401C49.961 1.46109 50.0824 1.52258 49.9804 1.54059C47.5444 1.97125 45.1403 2.5054 42.7216 3.15381C42.6788 3.16433 42.7187 3.06191 42.6182 3.08781C41.2166 3.45093 40.3604 3.84515 39.259 4.30006C38.1579 4.75822 37.2711 5.08799 36.5611 5.21747C35.7354 5.57461 34.5237 6.04246 33.835 6.32703C33.1451 6.61061 33.1269 6.814 33.0697 6.84498C31.2923 7.85321 30.213 8.33429 28.3944 9.42171C27.5269 9.93653 25.8752 11.0606 25.0051 11.7181C24.3153 12.2333 23.8761 12.5128 23.2634 13.0188C23.1807 13.0873 23.3129 13.0807 23.2888 13.1031C22.6486 13.7196 22.8688 13.3127 22.7045 13.3998C22.1117 13.72 21.7473 13.9273 20.9189 14.7099C20.7269 14.8907 20.3293 15.5937 19.9888 15.9249C19.5449 16.3563 19.6516 16.1274 19.1931 16.5868C19.1541 16.6264 19.2022 16.6607 18.9107 16.9343C17.5587 18.2053 16.1357 19.6504 14.8854 21.121C14.7146 21.3218 15.0049 21.1256 14.7602 21.4168C13.6129 22.7838 12.4195 24.3333 11.3919 25.7372C11.1388 26.0829 11.2378 25.825 11.1688 25.8904C10.7451 26.2947 10.4417 27.0666 10.3727 27.1803C8.71777 29.9 7.40487 31.9713 6.12636 34.9614C6.0542 35.1241 5.68095 36.4429 5.31311 36.9454C5.28784 36.9793 4.91309 37.4779 4.82712 38.0153C4.82212 38.0487 5.03165 37.7279 4.79295 38.3362C4.55405 38.9464 4.25709 39.9489 3.89535 40.7771C3.78064 41.0389 3.42147 41.633 3.30937 42.4843C3.2993 42.5402 3.22871 43.8768 2.92509 44.2794C2.87614 44.3448 2.68376 44.2144 2.55389 45.2254C2.53043 45.4186 2.65541 45.0873 2.56952 45.5903C2.43883 46.3616 2.17323 47.3629 2.09918 48.3226C2.08563 48.4903 2.10612 49.2142 1.91384 49.7623C1.88373 49.8477 1.83885 49.6698 1.78673 49.9657C1.53952 51.3743 1.42229 52.8787 1.27199 54.3249C1.21992 54.8395 1.12274 54.5678 1.06006 55.1063C0.996342 55.6466 0.92555 56.725 0.969267 57.2933C1.01258 57.8597 1.20139 57.245 1.20806 58.0908C1.20932 58.1994 1.21074 58.308 1.21231 58.4167C1.2645 61.9689 1.48549 65.4956 2.12197 68.9927C2.22098 69.5254 2.19818 69.0732 2.35486 69.8541C2.8933 72.7595 4.45891 77.5986 5.34429 80.0035C6.02981 81.9385 4.95445 79.5889 5.5228 81.0543C5.80188 81.7636 6.33764 82.4211 6.42085 82.5827C7.23864 84.1685 7.72916 85.3091 8.54494 86.6966C8.71439 86.9818 8.62753 86.6569 8.77124 86.8995C9.26299 87.7264 9.75757 88.6103 10.2623 89.3803C10.4893 89.7251 10.5026 89.6256 10.7071 89.945C11.1986 90.7073 11.6354 91.3833 12.1072 92.1356C12.1505 92.2043 11.763 91.8116 12.1579 92.3574C12.7981 93.2393 13.5844 94.3474 14.4401 95.2686C14.695 95.5413 14.8152 95.4571 15.2614 96.1279C15.3563 96.2673 15.0769 96.2292 15.8147 96.8206C15.9368 96.9238 17.1487 97.9281 17.5935 98.5641C17.7095 98.7333 17.9702 99.2046 18.3076 99.5012C18.3536 99.5409 18.2356 99.3139 18.5067 99.5669C19.4621 100.458 20.4707 101.385 21.5127 102.23C21.7912 102.456 21.4363 102.049 21.85 102.386C22.9864 103.311 24.4273 104.439 25.5877 105.281C26.0154 105.592 25.6766 105.439 25.7037 105.468C26.1432 105.922 26.5417 105.99 26.717 106.095C27.811 106.753 28.5984 107.333 29.6239 107.91C29.9074 108.069 29.7477 107.885 29.8071 107.911C30.4215 108.186 29.9186 108.06 30.2798 108.284C31.295 108.91 32.471 109.519 33.5617 110.034C33.9613 110.222 33.5535 109.925 33.9114 110.094C36.0323 111.087 38.2974 112.003 40.4517 112.766C40.8585 112.91 40.5789 112.892 40.6594 112.935C41.2168 113.237 42.131 113.352 42.3352 113.395C43.2647 113.595 43.6075 113.751 44.4224 113.947C48.4018 114.921 53.4316 115.603 57.3037 115.674C57.6898 115.684 58.0703 115.69 58.446 115.693C62.9557 115.706 66.6487 115.354 70.9897 114.391C71.2882 114.323 70.9667 114.3 71.2232 114.24C74.5306 113.462 77.7375 112.461 80.8612 111.103C81.1176 110.991 80.7126 111.069 81.122 110.885C81.9622 110.509 83.0148 110.025 83.8609 109.635C84.2727 109.444 83.7624 109.784 84.1763 109.59C85.1396 109.137 86.1472 108.601 87.0867 108.04C87.4856 107.801 86.8343 108.076 87.3551 107.771C90.8967 105.679 94.1444 103.256 97.2833 100.521C97.4978 100.334 97.8082 100.298 98.2236 99.8512C98.2213 99.7827 98.1779 99.7412 98.1545 99.6881C102.451 95.5104 106.133 90.7695 108.989 85.4698C109.109 85.2466 108.817 85.5868 109.047 85.1545C110.376 82.6432 111.46 80.1118 112.516 77.4028C112.619 77.1337 112.736 77.3315 112.983 76.5149C113.029 76.3719 113.396 75.1399 113.45 74.8124C113.458 74.7678 113.315 74.9686 113.43 74.573C114.096 72.2658 114.663 69.8249 115.085 67.4631C115.153 67.0811 115.173 67.5026 115.222 67.2302C115.566 65.3073 115.712 63.1827 115.88 61.3125C115.987 60.0684 116.112 60.5352 116.277 59.8713C116.301 59.7775 116.317 58.9957 116.401 58.9554C116.614 58.8525 116.842 59.2371 117.069 59.0827C117.12 59.0505 117.07 57.985 117.186 58.6161C117.195 58.6604 117.227 59.4327 117.261 59.6232C117.286 59.7561 117.377 59.5193 117.406 59.7903C117.435 60.0614 117.356 60.3559 117.379 60.8034C117.402 61.2525 117.512 61.0542 117.474 61.9552ZM30.7576 7.69317C30.1102 7.95654 30.1684 8.26786 30.7877 7.84338C30.8176 7.82263 30.7909 7.67954 30.7576 7.69317ZM105.508 24.8104C105.087 23.9954 104.555 23.6186 104.855 24.1907C105.151 24.7627 105.635 25.0583 105.508 24.8104ZM110.42 32.8207C110.038 31.8229 109.584 31.8707 110.168 32.8428C110.202 32.8995 110.442 32.8791 110.42 32.8207ZM116.16 62.9747C116.165 62.9657 116.21 62.4058 116.206 62.3919C116.133 62.0876 116.044 63.2055 116.16 62.9747ZM113.957 41.465C113.919 41.1321 113.561 40.2388 113.619 40.6544C113.669 40.9881 114.009 41.8797 113.957 41.465ZM6.01396 33.3611C6.0049 33.3689 5.82848 33.7316 5.85507 33.7352C5.93976 33.7446 6.16018 33.2292 6.01396 33.3611ZM116.463 57.1195C116.415 54.7821 116.644 53.3156 116.752 55.8922C116.766 56.3559 116.592 54.8985 116.589 55.4904C116.583 56.5678 116.822 57.2828 116.706 58.3963C116.687 58.5959 116.469 57.2515 116.463 57.1153C116.463 57.1167 116.463 57.1181 116.463 57.1195ZM30.233 7.57127C30.2185 7.57403 29.7289 7.84524 29.7195 7.85584C29.503 8.08711 30.4874 7.54122 30.233 7.57127ZM0.209524 56.067C0.196461 56.0966 0.151924 57.3967 0.162473 57.4402C0.299499 58.1193 0.387193 55.4977 0.209524 56.067ZM66.6698 0.634473C67.2862 0.623929 68.0195 0.729745 68.4798 0.932269C67.8809 0.821951 67.2717 0.725288 66.6698 0.634473Z" fill="#522324"/>
<path fill-rule="evenodd" clip-rule="evenodd" d="M57.8313 83.657C72.3076 83.657 84.043 71.9217 84.043 57.4454C84.043 42.9691 72.3076 31.2337 57.8313 31.2337C43.355 31.2337 31.6196 42.9691 31.6196 57.4454C31.6196 71.9217 43.355 83.657 57.8313 83.657Z" stroke="#522324" stroke-width="2" stroke-linecap="round" stroke-linejoin="round"/>
<path d="M46.0351 45.6504L69.6256 69.2409" stroke="#522324" stroke-width="2" stroke-linecap="round" stroke-linejoin="round"/>
</svg>
