<svg width="117" height="117" viewBox="0 0 117 117" fill="none" xmlns="http://www.w3.org/2000/svg">
<circle cx="58.3717" cy="58.3565" r="58.2193" fill="url(#paint0_radial_100_116)" fill-opacity="0.5"/>
<path d="M116.984 61.8707C116.884 63.9399 116.555 66.6272 116.167 68.6551C116.047 69.2891 116.079 68.9629 115.992 69.3989C115.82 70.2476 115.662 71.05 115.453 71.8832C115.383 72.1594 115.424 71.8048 115.351 72.0943C114.95 73.6786 114.537 75.172 114.009 76.7458C111.402 84.4822 107.265 91.5534 101.708 97.657C99.8816 99.6759 97.4558 101.933 95.2819 103.712C95.0287 103.921 95.2036 103.826 95.1571 103.868C94.4225 104.517 94.6296 104.255 94.1198 104.64C92.093 106.165 89.7452 107.732 87.639 108.963C86.7413 109.485 87.6831 109.034 86.7509 109.511C86.686 109.544 86.8973 109.382 86.6462 109.517C86.0774 109.825 84.9985 110.398 84.5477 110.618C83.6808 111.042 83.5375 111.11 82.7106 111.493C81.5769 112.014 80.2041 112.568 78.954 113.047C78.687 113.149 79.056 113.055 78.6306 113.22C78.2063 113.388 77.068 113.781 76.6769 113.896C76.2871 114.014 76.442 113.929 76.3713 113.945C75.7883 114.074 74.4821 114.549 74.3073 114.597C71.167 115.515 68.3861 116.003 65.3444 116.372C63.0469 116.649 60.5859 116.803 58.3717 116.798C58.3533 116.798 58.335 116.798 58.3167 116.798C55.6647 116.787 53.439 116.619 50.8865 116.302C50.6179 116.268 50.9265 116.356 50.5984 116.313C47.1109 115.855 43.6894 115.076 40.3689 113.968C40.0357 113.856 40.4791 113.957 40.1473 113.843C38.1106 113.165 35.0086 111.792 33.7852 111.401C32.4679 110.786 30.9008 109.967 29.786 109.294C29.0685 108.86 29.7967 109.226 28.8969 108.727C28.6947 108.613 28.9346 108.8 28.6331 108.626C27.363 107.892 26.0246 107.011 24.8251 106.191C24.5813 106.025 24.6268 106.1 24.5547 106.057C23.9486 105.694 23.0624 104.922 22.8652 104.76C21.3548 103.538 20.2599 102.636 18.9236 101.416C18.6147 101.132 18.9474 101.503 18.6494 101.23C17.1059 99.8104 15.596 98.2426 14.2662 96.6791C13.9709 96.3308 14.2764 96.6216 14.1371 96.4538C13.5266 95.7115 13.3314 95.5959 12.7648 94.8678C12.646 94.7139 12.7417 94.7777 12.7225 94.7476C12.4234 94.277 12.0629 93.9471 11.9745 93.8346C10.8607 92.412 10.2689 91.413 9.30919 89.9608C9.19501 89.7862 9.41211 90.2062 9.09397 89.7132C6.97642 86.4272 5.12365 82.7044 3.78982 79.0744C3.58253 78.5091 3.76505 78.8997 3.75542 78.8628C3.59805 78.2619 3.38673 77.9179 3.31824 77.7337C2.78182 76.2825 2.43559 74.8791 2.05953 73.8929C0.689102 68.8107 -0.0331315 63.5875 0.00109262 58.3565C0.0095709 57.0606 0.0629859 55.792 0.164731 54.505C0.171203 54.4225 0.203405 54.5731 0.216215 54.4087C0.387954 52.4329 0.299296 52.8162 0.36166 51.4957C0.377804 51.1628 0.606044 50.1789 0.627342 50.0931C0.698911 49.7769 0.713314 50.1175 0.733656 50.0111C0.904154 49.1354 0.673355 49.2413 0.88017 48.0459C0.887141 48.0086 0.896785 48.1721 0.918296 48.0726C0.985314 47.7635 1.02778 47.453 1.09954 47.1527C1.26636 46.4677 1.41223 46.2371 1.59494 45.1724C1.61996 45.0381 1.45141 45.2126 1.7146 44.1641C1.8126 43.7465 2.31813 41.8974 2.48839 41.3926C2.65156 40.8846 2.58064 41.2461 2.59327 41.2101C3.07197 39.8505 2.93023 40.3781 3.22643 39.7179C3.52828 39.0612 3.29874 39.193 3.37715 38.9092C3.45394 38.6253 3.85933 37.6484 3.96829 37.4127C4.07508 37.1761 3.9809 37.4861 4.07166 37.2744C4.68234 35.8755 4.23789 36.6194 4.40061 36.1423C4.79319 35.0199 5.29289 34.2241 5.77011 33.2524C5.90016 32.9893 5.76939 33.1925 5.88089 32.9553C6.32704 32.0174 6.64564 31.4811 7.17537 30.4278C7.26125 30.255 7.65774 29.3814 8.02187 28.8789C8.07341 28.8079 7.97512 29.0379 8.20597 28.6615C8.54895 28.0995 9.18398 27.0918 9.56508 26.4945C9.84611 26.0528 9.47026 26.5237 9.84884 25.9838C10.0181 25.7448 9.74156 26.2126 10.0579 25.7626C10.3705 25.3124 11.1778 24.1694 11.4969 23.7436C11.8128 23.3165 11.6071 23.5257 11.6304 23.4895C11.7715 23.2702 12.379 22.4485 12.4364 22.3788C15.25 18.7968 18.271 15.8444 21.691 13.0339C21.9602 12.8141 21.7533 12.9263 21.7941 12.8924C22.7141 12.1362 22.0494 12.8083 22.7266 12.3262C22.5789 12.332 22.9733 12.0394 23.6401 11.5314C23.9618 11.2875 23.7652 11.3913 23.7927 11.3665C24.2449 10.9697 24.6251 10.7826 24.7203 10.7315C25.0725 10.5428 25.3945 10.2494 25.6369 10.125C25.8787 10.0012 25.3921 10.3882 26.0573 9.93946C26.2272 9.78859 25.6858 10.0519 26.1863 9.7026C28.0604 8.3514 31.8635 6.32405 33.5584 5.57519C35.2355 4.80204 35.7923 4.57712 36.7925 4.18368C38.6127 3.4973 37.9293 3.69952 39.0551 3.26422C40.192 2.84262 39.683 3.1771 39.8577 3.15053C40.0297 3.12656 40.1964 3.0368 40.404 2.98789C40.6109 2.93949 40.1813 3.10073 40.6574 2.95449C41.1342 2.80408 42.4178 2.36657 42.5814 2.28971C42.9231 2.12289 42.3075 2.20831 43.5931 1.8924C43.6671 1.87472 43.4379 1.97472 43.721 1.90518C45.9575 1.35579 48.3204 0.896974 50.6044 0.621031C50.9185 0.583342 50.6437 0.663274 50.8266 0.642081C52.735 0.438376 52.0498 0.450845 53.086 0.266935C52.8621 0.399254 53.4412 0.396718 54.8968 0.307915C55.775 0.259659 55.6163 0.22249 56.1806 0.166074C56.3494 0.148854 56.9691 0.163662 57.0811 0.139816C57.4509 0.0623418 56.8622 -0.0194987 58.3717 0.00408253C58.3723 0.00409592 58.373 0.00410932 58.3736 0.00412275C58.397 0.00466892 58.3859 0.00996292 58.3717 0.0166991C58.3531 0.0255622 58.3292 0.0369234 58.3717 0.0432198C58.3885 0.0457193 58.4158 0.0474262 58.4579 0.0479288C59.9379 0.0751809 60.1115 0.00141653 61.7038 0.0718986C62.9583 0.126448 65.1646 0.381973 66.5699 0.596683C66.5233 0.71028 67.8524 0.879335 68.4045 0.894701C69.3141 1.05539 70.2884 1.24457 71.1593 1.45184C71.4581 1.52314 71.2534 1.51321 71.2904 1.52542C71.8555 1.71477 72.2622 1.7315 72.4561 1.77612C74.5592 2.27062 76.2238 2.84614 78.1804 3.48353C78.2495 3.50667 78.3901 3.46538 78.8861 3.71683C78.9178 3.73358 78.267 3.52922 79.1736 3.87462C80.0808 4.2187 81.7494 4.95932 82.9819 5.49765C83.2802 5.62534 84.0545 5.91871 84.6208 6.26616C84.6961 6.31241 84.5992 6.29052 84.7064 6.36C85.0527 6.58452 85.2915 6.61157 85.6835 6.90168C86.0739 7.19213 86.9322 7.71367 88.1189 8.36265C88.1567 8.3836 88.4661 8.48863 88.8294 8.71328C89.4093 9.07033 90.2142 9.60399 90.8025 10.0004C91.0844 10.1901 90.9277 10.0338 90.977 10.0661C92.8807 11.3376 94.1633 12.3478 96.0268 13.9369C96.3688 14.2274 97.3793 15.034 97.9838 15.662C98.6428 16.3544 97.8046 15.816 99.3989 17.3124C100.034 17.9212 101.009 18.5441 101.963 19.8253C104.028 22.1159 105.697 24.4373 107.407 27.0095C107.484 27.1251 107.781 27.4574 107.952 27.7368C108.207 28.1515 108.314 28.3972 108.489 28.6961C109.22 29.9503 109.881 31.1048 110.504 32.3598C110.739 32.8372 110.626 32.686 110.9 33.2577C111.17 33.8294 111.391 34.1924 111.718 34.988C111.963 35.5907 112.127 36.2222 112.432 37.0246C112.531 37.0207 112.752 37.5695 113.134 38.5491C113.207 38.7371 113.164 38.5226 113.2 38.611C113.348 38.9708 113.441 39.3194 113.576 39.6634C113.609 39.7472 113.641 39.741 113.67 39.809C113.916 40.3868 114.152 41.395 114.189 41.5667C114.337 42.2283 114.462 42.5217 114.581 43.0285C114.699 43.5349 114.474 42.7911 114.62 43.38C114.922 44.5963 115.287 46.1715 115.519 47.4203C115.613 47.9192 115.591 47.571 115.605 47.6423C115.809 48.6734 115.924 49.7368 116.087 50.2994C115.964 51.0512 116.203 50.9218 116.319 52.4288C116.327 52.5462 116.239 52.7072 116.178 52.2563C116.116 51.8045 116.069 51.1153 115.96 50.4953C115.936 50.3472 115.717 49.5207 115.692 49.4059C115.504 48.5105 115.63 48.3587 115.631 48.3091C115.63 47.7512 115.327 46.7491 115.262 46.4815C114.972 45.2524 114.741 44.2176 114.444 43.2045C114.249 42.5442 114.131 42.508 113.984 41.9904C113.48 40.2768 113.411 39.6302 112.715 38.0885C112.561 37.759 112.593 38.1317 112.2 36.8939C112.176 36.8155 111.889 35.8954 111.619 35.4034C111.585 35.3417 111.557 35.3566 111.517 35.2731C111.254 34.7142 111.109 34.3282 110.812 33.7254C110.516 33.1242 110.142 32.4043 109.798 31.7194C109.592 31.3058 109.364 30.756 109.27 30.554C109.006 29.9831 108.612 29.4355 108.46 29.0754C108.306 28.7121 108.765 29.3304 108.268 28.4302C108.176 28.4411 108.057 28.411 107.953 28.4029C106.792 26.4809 105.562 24.6428 104.178 22.8643C104.006 22.6442 104.146 22.8972 103.96 22.6625C103.175 21.6751 102.493 20.8067 101.613 19.8369C100.931 19.0868 100.135 18.3097 99.3802 17.5684C98.9954 17.039 97.8412 15.9677 96.9931 15.2031C96.6966 14.9343 96.7334 14.9331 96.525 14.7389C95.7339 14.0111 96.0577 14.4067 95.8258 14.2252C94.8223 13.4579 94.8642 13.2374 93.6828 12.325C93.6209 12.2751 92.7879 11.7764 92.6765 11.705C91.9711 11.2412 92.5857 11.5929 92.1622 11.277C91.3862 10.7046 90.8467 10.3015 89.8827 9.7089C89.6012 9.53582 88.8997 9.16529 88.3768 8.79141C88.3082 8.74221 88.3656 8.73721 88.3086 8.70042C87.2717 8.04118 87.1857 8.12334 86.5578 7.80982C85.9285 7.49635 85.007 6.929 84.8189 6.81045C84.3303 6.49808 85.2232 6.9916 85.2523 7.00297C85.6071 7.11735 84.9033 6.75649 84.3641 6.48122C84.3338 6.34688 83.5689 5.97886 83.8039 6.19796C83.831 6.22206 84.2579 6.42192 84.3641 6.48122C83.8425 6.33401 83.0066 5.93919 82.1096 5.43155C81.688 5.19691 82.1293 5.32225 80.7758 4.76754C80.1607 4.52176 80.3701 4.68574 79.8209 4.48603C78.5641 4.0297 76.9566 3.38673 75.6328 2.98934C75.1554 2.84582 75.6078 3.02653 75.2811 2.93054C74.414 2.67817 73.6516 2.43374 72.765 2.22212C72.685 2.20324 72.8692 2.29269 72.596 2.22387C70.5202 1.70886 68.6904 1.31882 66.4749 1.00349C65.4065 0.846206 63.4799 0.667683 62.3631 0.594434C61.1069 0.502845 59.6901 0.426249 58.3717 0.412865C57.6447 0.404759 56.9603 0.414387 56.371 0.439665C55.2924 0.49001 55.534 0.525382 55.0703 0.577268C54.1765 0.675937 52.599 0.721055 52.3855 0.731818C52.3798 0.730363 53.3016 0.633017 52.8069 0.65848C52.516 0.641856 52.3963 0.730623 52.3855 0.731818C52.2426 0.729394 50.3921 0.942336 50.0312 1.01083C49.8339 1.04383 49.9503 1.06653 49.8474 1.08315C47.3892 1.48169 44.962 2.01054 42.5302 2.68171C42.4873 2.69308 42.5396 2.63259 42.4389 2.65994C41.0337 3.04432 40.156 3.38927 39.0348 3.81744C37.9143 4.24883 37.0225 4.59202 36.3367 4.79274C35.5014 5.14356 34.2948 5.64551 33.6108 5.95013C32.9257 6.25374 32.8694 6.38102 32.811 6.41073C30.9956 7.3777 29.93 7.90684 28.103 9.0083C27.2313 9.53002 25.561 10.6516 24.6787 11.3065C23.9791 11.8195 23.5488 12.1172 22.9237 12.6167C22.8394 12.6844 22.949 12.6473 22.9238 12.6688C22.2497 13.2541 22.5302 12.9177 22.375 13.0187C21.8159 13.389 21.4708 13.6218 20.619 14.3873C20.4219 14.5638 19.9322 15.1701 19.583 15.4987C19.1285 15.9264 19.2691 15.7314 18.7988 16.1859C18.7589 16.225 18.7868 16.2378 18.4937 16.5147C17.1339 17.801 15.7119 19.27 14.449 20.7507C14.2766 20.9529 14.5332 20.7241 14.2854 21.0172C13.1233 22.3929 11.9198 23.9584 10.9015 25.3875C10.6507 25.7395 10.7781 25.4982 10.7166 25.5699C10.339 26.0109 9.96131 26.7403 9.89006 26.8544C8.18487 29.5763 6.92964 31.7033 5.60705 34.7014C5.53257 34.864 5.06967 36.1591 4.7725 36.6967C4.75183 36.7332 4.45017 37.2655 4.31139 37.7872C4.30306 37.8196 4.4751 37.4808 4.23826 38.0962C4.00132 38.7131 3.67485 39.7161 3.35394 40.566C3.25198 40.835 2.96811 41.457 2.79282 42.2965C2.77857 42.3506 2.56499 43.6618 2.35687 44.0938C2.32367 44.164 2.23386 44.0585 2.04961 45.0641C2.01559 45.2564 2.1183 44.9169 2.0171 45.4208C1.86274 46.194 1.62307 47.2093 1.50123 48.1692C1.47926 48.3366 1.42777 49.0562 1.28838 49.6184C1.26658 49.7059 1.25677 49.5317 1.20815 49.8309C0.977853 51.2544 0.835751 52.7696 0.708887 54.2302C0.665064 54.7498 0.62489 54.4797 0.577228 55.0228C0.528517 55.568 0.472142 56.6536 0.489762 57.2253C0.506964 57.7954 0.605006 57.1743 0.60434 58.0277C0.604664 58.1373 0.605218 58.2469 0.606007 58.3565C0.632316 61.9426 0.90675 65.4994 1.55623 69.0243C1.65728 69.5615 1.60177 69.1114 1.7593 69.8998C2.29986 72.8313 3.85224 77.7301 4.81081 80.1302C5.55386 82.0594 4.50963 79.6751 5.10304 81.1421C5.39371 81.8512 5.83579 82.5577 5.91679 82.7225C6.71059 84.3366 7.24777 85.4655 8.0573 86.8711C8.22553 87.1602 8.10012 86.8541 8.2433 87.1C8.73308 87.9383 9.24881 88.8201 9.755 89.5989C9.98256 89.9477 9.9682 89.8655 10.1767 90.1865C10.6777 90.9529 11.1303 91.6275 11.6314 92.368C11.6773 92.4355 11.3202 92.0154 11.7194 92.5646C12.3668 93.4523 13.1827 94.5493 14.0206 95.4977C14.2701 95.7786 14.3337 95.7433 14.8234 96.3855C14.9275 96.519 14.714 96.42 15.3987 97.0684C15.5115 97.1805 16.6571 98.2672 17.1554 98.8614C17.2855 99.0196 17.6009 99.4418 17.9325 99.7489C17.9776 99.7903 17.8301 99.5905 18.1006 99.8485C19.0548 100.757 20.0748 101.688 21.1174 102.551C21.3962 102.781 21.0108 102.403 21.4259 102.746C22.5664 103.687 24.0281 104.818 25.2069 105.658C25.6414 105.967 25.3194 105.784 25.349 105.81C25.8273 106.217 26.1819 106.354 26.3563 106.465C27.4443 107.153 28.26 107.705 29.2892 108.296C29.5739 108.458 29.3927 108.308 29.4509 108.337C30.054 108.645 29.5819 108.456 29.9503 108.674C30.9857 109.287 32.1698 109.904 33.2681 110.428C33.6705 110.619 33.2389 110.362 33.5997 110.533C35.7376 111.543 38.028 112.464 40.2104 113.21C40.6226 113.351 40.3514 113.299 40.4352 113.335C41.0144 113.585 41.913 113.775 42.1174 113.826C43.046 114.06 43.4007 114.187 44.2213 114.39C48.2306 115.402 53.3136 116.07 57.2192 116.128C57.6088 116.137 57.9927 116.142 58.3717 116.144C62.9214 116.139 66.6404 115.756 71.0186 114.794C71.3197 114.725 71.0059 114.748 71.2649 114.689C74.6058 113.914 77.8365 112.887 80.9939 111.529C81.2531 111.417 80.8618 111.536 81.2767 111.355C82.1281 110.98 83.1908 110.49 84.0389 110.082C84.4516 109.883 83.9191 110.192 84.3341 109.991C85.2996 109.521 86.3141 108.977 87.2656 108.418C87.6696 108.18 87.0355 108.497 87.5615 108.189C91.139 106.081 94.4268 103.638 97.5537 100.835C97.7675 100.642 98.0166 100.538 98.4472 100.101C98.4629 100.051 98.4402 100.031 98.4358 99.9975C102.782 95.7923 106.472 90.9879 109.347 85.6416C109.468 85.4163 109.217 85.7829 109.45 85.3465C110.79 82.8119 111.898 80.2594 112.917 77.5095C113.016 77.2364 113.052 77.4073 113.313 76.5889C113.362 76.4456 113.743 75.2079 113.816 74.8831C113.826 74.8389 113.721 75.0531 113.837 74.6543C114.515 72.3285 115.078 69.8626 115.479 67.4774C115.544 67.0917 115.522 67.5098 115.568 67.2349C115.892 65.295 116.072 63.1577 116.201 61.2721C116.283 60.0184 116.335 60.4855 116.428 59.8167C116.442 59.7223 116.456 58.9375 116.497 58.8968C116.604 58.793 116.716 59.1763 116.831 59.0208C116.858 58.9883 116.834 57.9263 116.892 58.5553C116.897 58.5994 116.909 59.3686 116.923 59.5578C116.934 59.6897 116.982 59.4533 116.994 59.7224C117.005 59.9916 116.962 60.2854 116.965 60.7298C116.967 61.1754 117.028 60.9762 116.984 61.8707ZM30.5584 7.40453C29.9283 7.70503 29.9125 7.88617 30.5532 7.49081C30.5842 7.47162 30.5908 7.38906 30.5584 7.40453ZM105.627 24.6126C105.15 23.8337 104.694 23.397 105.037 23.9412C105.376 24.4863 105.771 24.85 105.627 24.6126ZM110.514 32.6772C110.085 31.7002 109.819 31.6496 110.368 32.6469C110.4 32.7051 110.539 32.7344 110.514 32.6772ZM116.289 62.9305C116.292 62.9213 116.335 62.3593 116.333 62.3455C116.307 62.0432 116.222 63.1661 116.289 62.9305ZM114.013 41.3651C113.947 41.0401 113.62 40.1347 113.713 40.5403C113.79 40.8663 114.099 41.7707 114.013 41.3651ZM5.84884 33.2576C5.84178 33.2663 5.66689 33.6305 5.68207 33.6287C5.73002 33.6208 5.96141 33.109 5.84884 33.2576ZM116.523 57.0564C116.466 54.7117 116.52 53.2597 116.647 55.8333C116.665 56.2969 116.544 54.8369 116.557 55.4281C116.579 56.5058 116.708 57.2232 116.651 58.3361C116.643 58.5363 116.529 57.1893 116.522 57.0522C116.522 57.0536 116.523 57.055 116.523 57.0564ZM30.1195 7.44065C30.106 7.44515 29.6167 7.71836 29.6063 7.72726C29.3657 7.91755 30.3504 7.36713 30.1195 7.44065ZM0.127151 56.0065C0.118301 56.0363 0.0777068 57.3365 0.0843699 57.38C0.143661 58.0587 0.223257 55.4332 0.127151 56.0065ZM66.5916 0.603012C67.201 0.639781 67.9314 0.75083 68.4017 0.894163C67.8025 0.787028 67.1936 0.690872 66.5916 0.603012Z" fill="#522324"/>
<path d="M51.3694 53.1619C56.3819 53.1619 60.4453 49.033 60.4453 43.9397C60.4453 38.8464 56.3819 34.7174 51.3694 34.7174C46.357 34.7174 42.2936 38.8464 42.2936 43.9397C42.2936 49.033 46.357 53.1619 51.3694 53.1619Z" stroke="#522324" stroke-width="2" stroke-linecap="round" stroke-linejoin="round"/>
<path d="M31.922 80.5646V82.1456H70.8185V80.5646C70.8185 74.6619 70.8185 71.7105 69.688 69.4559C68.6936 67.4727 67.1067 65.8603 65.155 64.8498C62.9362 63.7011 60.0317 63.7011 54.2227 63.7011H48.5178C42.7088 63.7011 39.8042 63.7011 37.5854 64.8498C35.6337 65.8603 34.0469 67.4727 33.0525 69.4559C31.922 71.7105 31.922 74.6619 31.922 80.5646Z" stroke="#522324" stroke-width="2" stroke-linecap="round" stroke-linejoin="round"/>
<path d="M68.2235 51.8439H83.7821" stroke="#522324" stroke-width="2" stroke-linecap="round" stroke-linejoin="round"/>
<defs>
<radialGradient id="paint0_radial_100_116" cx="0" cy="0" r="1" gradientUnits="userSpaceOnUse" gradientTransform="translate(58.3723 58.357) rotate(90) scale(58.2193)">
<stop stop-color="#F5F6F7" stop-opacity="0"/>
<stop offset="1" stop-color="#522324"/>
</radialGradient>
</defs>
</svg>
