<svg width="62" height="63" viewBox="0 0 62 63" fill="none" xmlns="http://www.w3.org/2000/svg">
<path d="M24.0241 27.825C29.0177 27.825 33.0658 23.7116 33.0658 18.6375C33.0658 13.5633 29.0177 9.44995 24.0241 9.44995C19.0305 9.44995 14.9824 13.5633 14.9824 18.6375C14.9824 23.7116 19.0305 27.825 24.0241 27.825Z" stroke="#522324" stroke-width="2" stroke-linecap="round" stroke-linejoin="round"/>
<path d="M4.6499 55.1245V56.6995H43.3999V55.1245C43.3999 49.2439 43.3999 46.3037 42.2737 44.0576C41.283 42.0819 39.7021 40.4755 37.7578 39.4688C35.5473 38.3245 32.6538 38.3245 26.8666 38.3245H21.1832C15.3961 38.3245 12.5025 38.3245 10.292 39.4688C8.34766 40.4755 6.76685 42.0819 5.77617 44.0576C4.6499 46.3037 4.6499 49.2439 4.6499 55.1245Z" stroke="#522324" stroke-width="2" stroke-linecap="round" stroke-linejoin="round"/>
<path d="M40.8147 26.512H56.3147" stroke="#522324" stroke-width="2" stroke-linecap="round" stroke-linejoin="round"/>
</svg>
