<svg width="47" height="45" viewBox="0 0 47 45" fill="none" xmlns="http://www.w3.org/2000/svg">
<path d="M13.7083 26.0964C16.6458 26.0964 25.9479 27.4945 25.9479 30.7565C25.9479 34.0186 20.9483 33.309 18.6042 33.5526C16.5747 33.5526 11.75 33.5526 11.75 36.3486C11.75 40.0767 31.8667 41.0087 35.7396 41.0087" stroke="#B8ADE8" stroke-width="3" stroke-linecap="round" stroke-linejoin="round"/>
<path d="M30.3543 13.9802C30.3543 10.0036 26.1729 3.72803 20.3716 3.72803C14.5705 3.72803 10.1178 11.1842 8.36717 18.1433C6.61651 25.1023 6.8666 33.5526 6.8666 33.5526" stroke="#B8ADE8" stroke-width="3" stroke-linecap="round" stroke-linejoin="round"/>
<path d="M25.4583 22.3684C25.4583 20.0383 26.8291 15.8442 31.3333 15.8442C35.2499 15.8442 37.4041 19.6118 38.1874 22.8344C38.9708 26.0569 39.1666 30.7565 39.1666 30.7565" stroke="#B8ADE8" stroke-width="3" stroke-linecap="round" stroke-linejoin="round"/>
</svg>
