<svg width="20" height="20" viewBox="0 0 20 20" fill="none" xmlns="http://www.w3.org/2000/svg">
<g clip-path="url(#clip0_2_859)">
<path d="M9.99992 11.6666C10.9204 11.6666 11.6666 10.9204 11.6666 9.99992C11.6666 9.07946 10.9204 8.33325 9.99992 8.33325C9.07946 8.33325 8.33325 9.07946 8.33325 9.99992C8.33325 10.9204 9.07946 11.6666 9.99992 11.6666Z" stroke="#E8989B" stroke-width="1.6" stroke-linecap="round" stroke-linejoin="round"/>
<path d="M7.23526 5.83325C6.95518 6.01946 6.69493 6.23317 6.45843 6.47054C6.21014 6.71967 5.98797 6.99484 5.79639 7.29159" stroke="#E8989B" stroke-width="1.6" stroke-linecap="round" stroke-linejoin="round"/>
<path d="M5.08229 10.9084C5.02825 10.6138 5 10.3103 5 10.0001C5 9.68992 5.02825 9.38634 5.08229 9.0918" stroke="#E8989B" stroke-width="1.6" stroke-linecap="round" stroke-linejoin="round"/>
<path d="M7.23526 14.1666C6.95518 13.9804 6.69493 13.7667 6.45843 13.5293C6.21014 13.2802 5.98797 13.005 5.79639 12.7083" stroke="#E8989B" stroke-width="1.6" stroke-linecap="round" stroke-linejoin="round"/>
<path d="M10.9831 14.9033C10.6652 14.9667 10.3364 14.9999 9.99989 14.9999C9.66331 14.9999 9.33452 14.9667 9.0166 14.9033" stroke="#E8989B" stroke-width="1.6" stroke-linecap="round" stroke-linejoin="round"/>
<path d="M12.7649 14.1666C13.045 13.9804 13.3052 13.7667 13.5418 13.5293C13.79 13.2802 14.0122 13.005 14.2038 12.7083" stroke="#E8989B" stroke-width="1.6" stroke-linecap="round" stroke-linejoin="round"/>
<path d="M14.9177 10.9084C14.9718 10.6138 15.0001 10.3103 15.0001 10.0001C15.0001 9.68992 14.9718 9.38634 14.9177 9.0918" stroke="#E8989B" stroke-width="1.6" stroke-linecap="round" stroke-linejoin="round"/>
<path d="M12.7649 5.83325C13.045 6.01946 13.3052 6.23317 13.5418 6.47054C13.79 6.71967 14.0122 6.99484 14.2038 7.29159" stroke="#E8989B" stroke-width="1.6" stroke-linecap="round" stroke-linejoin="round"/>
<path d="M9.0166 5.09667C9.33452 5.03325 9.66331 5 9.99985 5C10.3364 5 10.6652 5.03325 10.9831 5.09667" stroke="#E8989B" stroke-width="1.6" stroke-linecap="round" stroke-linejoin="round"/>
<path d="M18.3334 10.0001C18.3334 9.71883 18.3195 9.44083 18.2922 9.16675C18.2642 8.88458 18.2222 8.60658 18.1667 8.33341M1.66675 10.0001C1.66675 9.71883 1.68068 9.44083 1.70789 9.16675C1.73591 8.88458 1.77799 8.60658 1.83344 8.33341M16.1026 15.675C15.9154 15.8762 15.7183 16.0682 15.5122 16.2501C15.3277 16.4129 15.136 16.5677 14.9375 16.7139M3.89759 15.675C4.0848 15.8762 4.28183 16.0682 4.48796 16.2501C4.67241 16.4129 4.86421 16.5677 5.06266 16.7139M6.54691 2.41364C6.27379 2.53817 6.00854 2.67702 5.75216 2.82922C5.51446 2.97034 5.28437 3.12294 5.06266 3.28626M13.4532 2.41364C13.7264 2.53817 13.9916 2.67702 14.248 2.82922C14.4857 2.97034 14.7158 3.12294 14.9375 3.28626M10.9361 1.71874C10.6289 1.68439 10.3165 1.66675 10.0001 1.66675C9.68362 1.66675 9.37129 1.68439 9.06404 1.71874M10.9361 18.2814C11.2497 18.2464 11.558 18.194 11.86 18.1251C12.1488 18.0592 12.4319 17.9784 12.7084 17.8834M9.06404 18.2814C8.7505 18.2464 8.44221 18.194 8.14016 18.1251C7.85137 18.0592 7.56825 17.9784 7.29175 17.8834M3.39798 4.91446C3.24019 5.119 3.0917 5.33108 2.95313 5.55004C2.82826 5.74737 2.71145 5.95029 2.60316 6.15837M16.6022 4.91446C16.76 5.119 16.9085 5.33108 17.047 5.55004C17.1719 5.74737 17.2887 5.95029 17.397 6.15837M2.60316 13.8418C2.48207 13.6091 2.37163 13.37 2.27249 13.1251C2.18154 12.9004 2.1001 12.6708 2.02868 12.4369M17.397 13.8418C17.5181 13.6091 17.6285 13.37 17.7277 13.1251C17.8186 12.9004 17.9001 12.6708 17.9715 12.4369" stroke="#E8989B" stroke-width="1.6" stroke-linecap="round" stroke-linejoin="round"/>
</g>
<defs>
<clipPath id="clip0_2_859">
<rect width="20" height="20" fill="white"/>
</clipPath>
</defs>
</svg>
