<svg width="20" height="20" viewBox="0 0 20 20" fill="none" xmlns="http://www.w3.org/2000/svg">
<path d="M5.83333 11.6667C7.08333 11.6667 11.0417 12.2917 11.0417 13.7501C11.0417 15.2084 8.91417 14.8912 7.91667 15.0001C7.05308 15.0001 5 15.0001 5 16.2501C5 17.9167 13.5603 18.3334 15.2083 18.3334" stroke="#578DCA" stroke-width="1.6" stroke-linecap="round" stroke-linejoin="round"/>
<path d="M12.9167 6.25008C12.9167 4.47229 11.1375 1.66675 8.66883 1.66675C6.20025 1.66675 4.3055 5.00008 3.56054 8.11121C2.81558 11.2223 2.922 15.0001 2.922 15.0001" stroke="#578DCA" stroke-width="1.6" stroke-linecap="round" stroke-linejoin="round"/>
<path d="M10.8333 9.99992C10.8333 8.95825 11.4166 7.08325 13.3333 7.08325C14.9999 7.08325 15.9166 8.76759 16.2499 10.2083C16.5833 11.6489 16.6666 13.7499 16.6666 13.7499" stroke="#578DCA" stroke-width="1.6" stroke-linecap="round" stroke-linejoin="round"/>
</svg>
