<svg width="96" height="96" viewBox="0 0 96 96" fill="none" xmlns="http://www.w3.org/2000/svg">
<mask id="path-1-inside-1_2_742" fill="white">
<path d="M95.6115 47.8058C95.6115 38.3507 92.8078 29.1079 87.5548 21.2463C82.3018 13.3847 74.8356 7.2573 66.1002 3.639C57.3649 0.0206919 47.7527 -0.926022 38.4793 0.918574C29.2059 2.76317 20.6877 7.31623 14.002 14.002C7.31623 20.6877 2.76317 29.2059 0.918574 38.4793C-0.926022 47.7527 0.0206921 57.3649 3.639 66.1002C7.2573 74.8356 13.3847 82.3018 21.2463 87.5548C29.1079 92.8078 38.3507 95.6115 47.8058 95.6115V79.8516C41.4677 79.8516 35.2719 77.9722 30.002 74.4509C24.7321 70.9297 20.6247 65.9248 18.1992 60.0692C15.7738 54.2136 15.1392 47.7702 16.3757 41.5539C17.6121 35.3376 20.6642 29.6276 25.1459 25.1459C29.6276 20.6642 35.3376 17.6121 41.5539 16.3757C47.7702 15.1392 54.2136 15.7738 60.0692 18.1992C65.9248 20.6247 70.9297 24.7321 74.4509 30.002C77.9722 35.2719 79.8516 41.4677 79.8516 47.8058H95.6115Z"/>
</mask>
<path d="M95.6115 47.8058C95.6115 38.3507 92.8078 29.1079 87.5548 21.2463C82.3018 13.3847 74.8356 7.2573 66.1002 3.639C57.3649 0.0206919 47.7527 -0.926022 38.4793 0.918574C29.2059 2.76317 20.6877 7.31623 14.002 14.002C7.31623 20.6877 2.76317 29.2059 0.918574 38.4793C-0.926022 47.7527 0.0206921 57.3649 3.639 66.1002C7.2573 74.8356 13.3847 82.3018 21.2463 87.5548C29.1079 92.8078 38.3507 95.6115 47.8058 95.6115V79.8516C41.4677 79.8516 35.2719 77.9722 30.002 74.4509C24.7321 70.9297 20.6247 65.9248 18.1992 60.0692C15.7738 54.2136 15.1392 47.7702 16.3757 41.5539C17.6121 35.3376 20.6642 29.6276 25.1459 25.1459C29.6276 20.6642 35.3376 17.6121 41.5539 16.3757C47.7702 15.1392 54.2136 15.7738 60.0692 18.1992C65.9248 20.6247 70.9297 24.7321 74.4509 30.002C77.9722 35.2719 79.8516 41.4677 79.8516 47.8058H95.6115Z" stroke="url(#paint0_linear_2_742)" stroke-width="40" mask="url(#path-1-inside-1_2_742)"/>
<defs>
<linearGradient id="paint0_linear_2_742" x1="47.8058" y1="0" x2="47.8058" y2="95.6115" gradientUnits="userSpaceOnUse">
<stop stop-color="#E19396"/>
<stop offset="1" stop-color="#F4F4F4"/>
</linearGradient>
</defs>
</svg>
