<svg width="38" height="38" viewBox="0 0 38 38" fill="none" xmlns="http://www.w3.org/2000/svg">
<path d="M19.0003 21.3749C14.5215 21.3749 11.1347 17.9371 11.1347 13.4583L11.0833 5.54159L15.042 8.70825L19.0003 3.95825L22.9586 8.70825L26.917 5.54159V13.4583C26.917 17.9371 23.4792 21.3749 19.0003 21.3749Z" stroke="#E28386" stroke-width="2" stroke-miterlimit="10" stroke-linecap="round" stroke-linejoin="round"/>
<path d="M18.5933 34.2901C19.8299 33.0534 18.3262 29.5447 15.2345 26.453C12.1429 23.3614 8.63411 21.8576 7.39743 23.0942C6.16077 24.3308 7.66452 27.8396 10.7562 30.9313C13.8479 34.023 17.3566 35.5267 18.5933 34.2901Z" stroke="#E28386" stroke-width="2" stroke-miterlimit="10" stroke-linecap="round" stroke-linejoin="round"/>
<path d="M19.6562 34.0183C20.8929 35.255 24.4016 33.7512 27.4933 30.6595C30.5849 27.5679 32.0887 24.0591 30.8521 22.8225C29.6154 21.5858 26.1066 23.0895 23.015 26.1812C19.9233 29.2728 18.4196 32.7817 19.6562 34.0183Z" stroke="#E28386" stroke-width="2" stroke-miterlimit="10" stroke-linecap="round" stroke-linejoin="round"/>
</svg>
