<svg width="24" height="24" viewBox="0 0 24 24" fill="none" xmlns="http://www.w3.org/2000/svg">
<path fill-rule="evenodd" clip-rule="evenodd" d="M12 22C17.1262 22 20 18.5229 20 13C20 7.47715 15.5658 2 12 2C8.4342 2 4 7.47715 4 13C4 18.5229 6.8738 22 12 22Z" stroke="#A19898" stroke-width="2"/>
<path d="M10.5 19C11.3284 19 12 18.3284 12 17.5C12 16.6715 11.3284 16 10.5 16C9.67155 16 9 16.6715 9 17.5C9 18.3284 9.67155 19 10.5 19Z" fill="#A19898"/>
<path fill-rule="evenodd" clip-rule="evenodd" d="M8 14.8337C8.5523 14.8337 9 14.386 9 13.8337C9 13.2814 8.5523 12.8337 8 12.8337C7.4477 12.8337 7 13.2814 7 13.8337C7 14.386 7.4477 14.8337 8 14.8337Z" fill="#A19898"/>
</svg>
