<svg width="120" height="120" viewBox="0 0 120 120" fill="none" xmlns="http://www.w3.org/2000/svg">
<mask id="path-1-inside-1_2_751" fill="white">
<path d="M120.002 60.0011C120.002 48.134 116.483 36.5334 109.89 26.6663C103.297 16.7991 93.9263 9.10865 82.9625 4.56731C71.9988 0.0259705 59.9345 -1.16225 48.2955 1.1529C36.6564 3.46806 25.9652 9.18261 17.5739 17.5739C9.18261 25.9652 3.46806 36.6564 1.1529 48.2955C-1.16225 59.9345 0.0259706 71.9988 4.56731 82.9625C9.10865 93.9263 16.7991 103.297 26.6663 109.89C36.5334 116.483 48.134 120.002 60.0011 120.002V102.519C51.5918 102.519 43.3713 100.026 36.3793 95.3537C29.3872 90.6817 23.9375 84.0413 20.7194 76.2721C17.5013 68.5029 16.6593 59.9539 18.2999 51.7062C19.9405 43.4585 23.9899 35.8825 29.9362 29.9362C35.8825 23.9899 43.4585 19.9405 51.7062 18.2999C59.9539 16.6593 68.5029 17.5013 76.2721 20.7194C84.0413 23.9375 90.6817 29.3872 95.3537 36.3793C100.026 43.3713 102.519 51.5918 102.519 60.0011H120.002Z"/>
</mask>
<path d="M120.002 60.0011C120.002 48.134 116.483 36.5334 109.89 26.6663C103.297 16.7991 93.9263 9.10865 82.9625 4.56731C71.9988 0.0259705 59.9345 -1.16225 48.2955 1.1529C36.6564 3.46806 25.9652 9.18261 17.5739 17.5739C9.18261 25.9652 3.46806 36.6564 1.1529 48.2955C-1.16225 59.9345 0.0259706 71.9988 4.56731 82.9625C9.10865 93.9263 16.7991 103.297 26.6663 109.89C36.5334 116.483 48.134 120.002 60.0011 120.002V102.519C51.5918 102.519 43.3713 100.026 36.3793 95.3537C29.3872 90.6817 23.9375 84.0413 20.7194 76.2721C17.5013 68.5029 16.6593 59.9539 18.2999 51.7062C19.9405 43.4585 23.9899 35.8825 29.9362 29.9362C35.8825 23.9899 43.4585 19.9405 51.7062 18.2999C59.9539 16.6593 68.5029 17.5013 76.2721 20.7194C84.0413 23.9375 90.6817 29.3872 95.3537 36.3793C100.026 43.3713 102.519 51.5918 102.519 60.0011H120.002Z" stroke="url(#paint0_linear_2_751)" stroke-width="40" mask="url(#path-1-inside-1_2_751)"/>
<defs>
<linearGradient id="paint0_linear_2_751" x1="60.0011" y1="0" x2="60.0011" y2="120.002" gradientUnits="userSpaceOnUse">
<stop stop-color="#B5ACDF"/>
<stop offset="1" stop-color="#F4F4F4"/>
</linearGradient>
</defs>
</svg>
