<svg width="37" height="36" viewBox="0 0 37 36" fill="none" xmlns="http://www.w3.org/2000/svg">
<path d="M26.2228 3.88668C23.5199 8.52351 20.3081 8.89428 17.5992 9.60484C13.8095 10.5989 5.60705 14.8073 10.1512 25.437C11.0707 27.5879 14.1051 30.7592 11.4815 35.2201" stroke="#E8989B" stroke-width="2" stroke-linecap="round"/>
<path d="M18.6061 0.0770081C16.7721 5.08416 18.6204 7.6117 19.8675 10.0084C21.6121 13.3614 23.7763 21.9883 12.4194 25.8405C10.1212 26.62 5.61499 26.5773 3.8661 31.411" stroke="#E8989B" stroke-width="2" stroke-linecap="round"/>
<path d="M11.9099 15.571L19.1117 18.8708" stroke="#E8989B" stroke-width="2" stroke-linecap="round"/>
<path d="M12.0095 20.0754L17.0135 22.4728" stroke="#E8989B" stroke-width="2" stroke-linecap="round"/>
<path d="M15.0115 12.4551L20.0154 14.8524" stroke="#E8989B" stroke-width="2" stroke-linecap="round"/>
<path d="M20.0154 2.92822L25.0193 5.32555" stroke="#E8989B" stroke-width="2" stroke-linecap="round"/>
<path d="M6.00562 29.53L10.0088 31.0464" stroke="#E8989B" stroke-width="2" stroke-linecap="round"/>
</svg>
