<svg width="20" height="20" viewBox="0 0 20 20" fill="none" xmlns="http://www.w3.org/2000/svg">
<path d="M3.75008 12.0833C4.90066 12.0833 5.83341 11.1506 5.83341 10C5.83341 11.1506 6.76616 12.0833 7.91675 12.0833C9.06733 12.0833 10.0001 11.1506 10.0001 10C10.0001 11.1506 10.9328 12.0833 12.0834 12.0833C13.234 12.0833 14.1667 11.1506 14.1667 10C14.1667 11.1506 15.0995 12.0833 16.2501 12.0833C17.4007 12.0833 18.3334 11.1506 18.3334 10C18.3334 14.6024 14.6025 18.3333 10.0001 18.3333C5.39771 18.3333 1.66675 14.6024 1.66675 10C1.66675 11.1506 2.59949 12.0833 3.75008 12.0833Z" stroke="#578DCA" stroke-width="1.6" stroke-linecap="round" stroke-linejoin="round"/>
<path d="M7.91675 2.08325L12.0834 6.24992" stroke="#578DCA" stroke-width="1.6" stroke-linecap="round" stroke-linejoin="round"/>
<path d="M12.0834 2.08325L7.91675 6.24992" stroke="#578DCA" stroke-width="1.6" stroke-linecap="round" stroke-linejoin="round"/>
</svg>
