<svg width="291" height="368" viewBox="0 0 291 368" fill="none" xmlns="http://www.w3.org/2000/svg">
<path d="M0 100C145.5 100 145.5 186 291 186" stroke="url(#paint0_linear_2_697)" stroke-width="24"/>
<path d="M0 124C145.5 124 145.5 277 291 277" stroke="url(#paint1_linear_2_697)" stroke-width="24"/>
<path d="M0 148C145.5 148 145.5 368 291 368" stroke="url(#paint2_linear_2_697)" stroke-width="24"/>
<path d="M0 76C145.5 76 145.5 92 291 92" stroke="url(#paint3_linear_2_697)" stroke-width="24"/>
<path d="M0 52C145.5 52 145.5 -2.26498e-06 291 -2.26498e-06" stroke="url(#paint4_linear_2_697)" stroke-width="24"/>
<defs>
<linearGradient id="paint0_linear_2_697" x1="0" y1="143" x2="291" y2="143" gradientUnits="userSpaceOnUse">
<stop stop-color="#E4C1C3"/>
<stop offset="1" stop-color="#F1F2F2"/>
</linearGradient>
<linearGradient id="paint1_linear_2_697" x1="0" y1="200.5" x2="291" y2="200.5" gradientUnits="userSpaceOnUse">
<stop stop-color="#E4C1C3"/>
<stop offset="1" stop-color="#F1F2F2"/>
</linearGradient>
<linearGradient id="paint2_linear_2_697" x1="0" y1="258" x2="291" y2="258" gradientUnits="userSpaceOnUse">
<stop stop-color="#E4C1C3"/>
<stop offset="1" stop-color="#F1F2F2"/>
</linearGradient>
<linearGradient id="paint3_linear_2_697" x1="0" y1="84" x2="291" y2="84" gradientUnits="userSpaceOnUse">
<stop stop-color="#E4C1C3"/>
<stop offset="1" stop-color="#F1F2F2"/>
</linearGradient>
<linearGradient id="paint4_linear_2_697" x1="0" y1="26" x2="291" y2="26" gradientUnits="userSpaceOnUse">
<stop stop-color="#E4C1C3"/>
<stop offset="1" stop-color="#F1F2F2"/>
</linearGradient>
</defs>
</svg>
