<svg width="36" height="36" viewBox="0 0 36 36" fill="none" xmlns="http://www.w3.org/2000/svg">
<path d="M20.0826 12.2531C20.3805 12.1655 20.8288 12.0875 21.0321 12C21.0713 12.079 21.3734 13.1509 21.3882 13.2248C21.403 13.2986 21.4223 13.3951 21.4469 13.4832C21.5293 13.9544 21.8197 14.4598 22 15C22.0632 15.1892 22 16 21.8119 16.6827C21.6925 17.116 21.6991 17.3555 21.651 17.5728C21.5872 17.8607 21.4846 18.1187 21.3828 18.3671C21.2948 18.582 21.2126 18.8197 21.144 19.0252C21.0707 19.2447 20.9907 19.4575 20.8656 19.6791C20.6314 20.0935 20.4073 20.3029 20.2417 20.4484C20.0365 20.6287 20.191 20.8462 20 21C19.7754 21.1809 19.2645 21.314 19.1012 21.4183C18.8555 21.5752 18.557 21.8322 18.212 21.9796C17.5399 22.2666 17.2262 22.3301 17.0194 22.3832C16.79 22.4421 16.2131 23.1424 16 23C15.8242 22.8826 15.7405 22.6026 15.6804 22.3832C15.6268 22.1879 15.289 21.8162 15.2415 21.3204C15.2172 21.0672 15.2125 20.8672 15.1242 20.6531C15.0417 20.453 14.9973 20.1382 14.9246 19.7901C14.8756 19.5557 14.9883 19.2514 14.9246 19.0252C14.8365 18.713 15.0187 18.2307 15 18C14.9709 17.642 15.0458 17.2169 15.1243 16.8245C15.1925 16.4837 15.2864 16.3163 15.3827 16.0938C15.4756 15.8795 15.6772 15.7643 15.802 15.4894C15.895 15.2845 15.9231 14.937 16.2752 14.5435C16.4408 14.3586 16.6237 14.2141 16.8897 14.1152C17.1527 14.0175 17.528 13.8092 17.7862 13.6374C17.9623 13.5203 18.1705 13.3672 18.3371 13.2476C18.5975 13.0605 18.9733 12.669 19.322 12.5553C19.5914 12.4674 19.8762 12.3138 20.0826 12.2531Z" fill="#E8989B"/>
<path d="M25.2982 8.53681C23.6674 11.5243 21.5719 11.4262 20.0374 12.1891C17.6383 13.3818 14.2038 15.8279 15.5627 22.4005C15.8683 23.879 18.0251 25.8722 16.4418 28.7461" stroke="#E8989B" stroke-width="1.4" stroke-linecap="round"/>
<path d="M20.5636 6.04797C19.4235 9.31782 20.9012 10.845 21.3476 12.5335C21.999 14.9971 22.498 20.4971 16.718 22.8725C15.3153 23.4489 12.4884 23.3536 11.4013 26.5102" stroke="#E8989B" stroke-width="1.4" stroke-linecap="round"/>
<path d="M16.4014 16.166L20.8779 18.3208" stroke="#F7F9FA" stroke-linecap="round"/>
<path d="M16.4639 19.1084L19.5743 20.6739" stroke="#F7F9FA" stroke-linecap="round"/>
<path d="M18.3298 14.1318L21.4403 15.6974" stroke="#F7F9FA" stroke-linecap="round"/>
<path d="M21.998 7.66211L24.2381 8.68195" stroke="#E8989B" stroke-linecap="round"/>
<path d="M12.7617 25.208L15.1861 26.3459" stroke="#E8989B" stroke-linecap="round"/>
<path d="M36.4623 19.1066C36.4398 19.7589 36.3264 20.6052 36.1914 21.2412C36.1496 21.44 36.1419 21.3341 36.111 21.4705C36.0499 21.7358 36.0089 21.9899 35.935 22.2499C35.9103 22.336 35.8952 22.218 35.8701 22.3083C35.7321 22.8021 35.6097 23.2721 35.4383 23.7636C34.5923 26.1787 33.2891 28.3826 31.5429 30.2816C30.9684 30.91 30.1936 31.595 29.5226 32.159C29.4445 32.2251 29.515 32.2153 29.5018 32.2299C29.2919 32.4579 29.3249 32.336 29.1616 32.4509C28.5125 32.9058 27.7805 33.3914 27.1284 33.7838C26.8505 33.9502 27.1692 33.8534 26.8642 33.9779C26.843 33.9864 26.8959 33.9123 26.8162 33.9518C26.6357 34.0422 26.3017 34.2252 26.1602 34.2917C25.888 34.4201 25.8435 34.4416 25.5856 34.5606C25.2319 34.7224 24.7992 34.8829 24.412 35.0376C24.3293 35.0708 24.454 35.0671 24.3229 35.1231C24.1921 35.1798 23.8359 35.3003 23.7118 35.3302C23.5881 35.3607 23.6298 35.3138 23.6062 35.3139C23.4121 35.3142 23.0227 35.5176 22.9681 35.534C21.9948 35.8439 21.1197 35.9641 20.1727 36.0789C19.4569 36.1652 18.6904 36.224 18 36.2212C17.9943 36.2212 17.9886 36.2212 17.9828 36.2212C17.1559 36.2158 16.4635 36.1485 15.6682 36.0524C15.5845 36.0419 15.6765 36.1015 15.5741 36.0886C14.4853 35.9495 13.4165 35.7023 12.3879 35.3361C12.2848 35.2991 12.4317 35.3034 12.3296 35.2641C11.7017 35.0304 10.7647 34.5541 10.3313 34.5446C9.92254 34.3483 9.43582 34.0886 9.10099 33.8573C8.88562 33.7079 9.12757 33.7951 8.84133 33.6513C8.77699 33.6185 8.83782 33.7002 8.74277 33.6481C8.34219 33.4279 7.93029 33.1461 7.54872 32.9025C7.47107 32.853 7.47117 32.8963 7.44616 32.8864C7.23614 32.8018 6.99412 32.5136 6.93559 32.46C6.48456 32.0541 6.13657 31.7836 5.7209 31.4032C5.62488 31.3145 5.70639 31.4543 5.61282 31.3698C5.12833 30.9306 4.65899 30.4392 4.25553 29.9424C4.16602 29.8318 4.28224 29.9041 4.24117 29.8499C4.06121 29.6108 3.96003 29.6085 3.79223 29.3744C3.75702 29.325 3.80545 29.33 3.80152 29.319C3.74081 29.1472 3.58293 29.0806 3.55424 29.0462C3.1931 28.6134 3.05858 28.2674 2.7535 27.8213C2.71708 27.7676 2.75928 27.9147 2.65922 27.7619C1.99291 26.7434 1.4225 25.5784 1.03044 24.4412C0.969465 24.2642 1.04745 24.3777 1.04706 24.3652C1.03923 24.1636 0.918691 24.077 0.895262 24.0204C0.713381 23.574 0.653051 23.1246 0.468986 22.8367C0.0612951 21.2507 -0.184384 19.6278 -0.150767 18C-0.142455 17.5971 -0.117468 17.203 -0.073556 16.8041C-0.0708252 16.7786 -0.0320489 16.8272 -0.0267602 16.7763C0.0426349 16.1652 -0.0296303 16.2809 -0.0646107 15.8637C-0.0731968 15.7581 0.0633706 15.4606 0.0747438 15.4349C0.11465 15.3394 0.161604 15.4511 0.171338 15.4186C0.250982 15.1519 0.0391027 15.1631 0.103508 14.7906C0.105908 14.779 0.134599 14.8344 0.143842 14.8039C0.172687 14.7093 0.175685 14.611 0.206811 14.5193C0.279099 14.3102 0.391671 14.2537 0.409052 13.9152C0.41174 13.8724 0.280958 13.9086 0.366606 13.583C0.398638 13.4534 0.554663 12.8775 0.612625 12.7219C0.66837 12.5654 0.671062 12.6855 0.676073 12.6746C0.857404 12.2628 0.826932 12.431 0.966768 12.2429C1.10791 12.0567 0.922745 12.0578 0.934396 11.9652C0.945602 11.8725 1.098 11.579 1.1409 11.5097C1.18317 11.44 1.16939 11.5419 1.20268 11.4784C1.42538 11.0593 1.19846 11.2534 1.23125 11.0981C1.31162 10.7313 1.549 10.5195 1.70447 10.2229C1.7469 10.1424 1.68799 10.1966 1.72085 10.1222C1.85279 9.82791 1.97625 9.67471 2.11796 9.33593C2.14079 9.2806 2.21733 8.98246 2.36462 8.84609C2.38551 8.82693 2.37429 8.90954 2.45015 8.7954C2.56294 8.62497 2.7637 8.31555 2.87555 8.12638C2.95805 7.98644 2.8108 8.11226 2.93782 7.95099C2.99457 7.87966 2.9267 8.03666 3.0312 7.90157C3.1345 7.76645 3.38369 7.41199 3.48194 7.27964C3.57916 7.14694 3.4931 7.195 3.4988 7.18269C3.53392 7.10825 3.71196 6.84484 3.72985 6.82317C4.60228 5.70716 5.57261 4.82476 6.62242 3.94196C6.70519 3.87287 6.62257 3.88476 6.63491 3.87387C6.91307 3.62934 6.75534 3.89912 6.981 3.77062C6.89864 3.72524 7.02748 3.64312 7.2303 3.48038C7.32813 3.40216 7.25349 3.41574 7.2606 3.40617C7.38044 3.25458 7.52518 3.23305 7.55995 3.22486C7.6888 3.19424 7.76559 3.0702 7.85364 3.05042C7.94121 3.03085 7.80965 3.17828 8.01494 3.03926C8.05573 2.97475 7.85679 3.01003 8.0071 2.89409C8.57093 2.44551 9.77532 1.853 10.302 1.62539C10.8241 1.38968 10.9953 1.31628 11.3084 1.20142C11.8778 1.00162 11.6511 1.02566 11.9947 0.872498C12.3422 0.723469 12.2163 0.923928 12.2775 0.93644C12.3376 0.949832 12.382 0.900673 12.4499 0.897021C12.5175 0.893555 12.3895 0.957493 12.5377 0.916707C12.6859 0.874713 13.0708 0.702318 13.1155 0.656386C13.2082 0.557963 13.0036 0.535411 13.4078 0.454489C13.4311 0.450026 13.3667 0.506971 13.4552 0.488016C14.1539 0.337609 14.8862 0.196795 15.5958 0.129437C15.6934 0.120303 15.6123 0.174615 15.669 0.169874C16.2608 0.125911 16.0429 0.0797874 16.3592 -0.0328365C16.2967 0.0821628 16.4799 0.126719 16.9284 0.0998027C17.1992 0.085213 17.1486 0.0412616 17.3223 0.000936068C17.3743 -0.0112896 17.5666 0.0155882 17.6008 -0.00705978C17.7143 -0.0809289 17.5307 -0.162117 18 -0.132652C18.0002 -0.132638 18.0004 -0.132625 18.0006 -0.132612C18.0079 -0.13207 18.0044 -0.126792 18 -0.12008C17.9942 -0.111251 17.9868 -0.0999399 18 -0.0936623C18.0052 -0.0911726 18.0137 -0.089473 18.0267 -0.0890132C18.4856 -0.0697372 18.5405 -0.144794 19.0363 -0.129164C19.4271 -0.117116 20.1102 -0.00600513 20.5454 0.0657411C20.5197 0.183735 20.9325 0.216911 21.1139 0.164981C21.3958 0.217171 21.6989 0.272713 21.9674 0.344799C22.0595 0.369567 21.9907 0.390066 22.0016 0.396403C22.1673 0.494988 22.306 0.445576 22.3668 0.457322C23.025 0.590187 23.5281 0.809017 24.1486 0.967537C24.1705 0.97328 24.2342 0.906072 24.3737 1.02391C24.3824 1.03181 24.1713 0.993156 24.4518 1.1022C24.7328 1.21099 25.2372 1.46891 25.6303 1.61128C25.7253 1.64488 25.9866 1.69378 26.146 1.83458C26.1672 1.85339 26.1296 1.86146 26.1587 1.89125C26.2524 1.98702 26.3535 1.9434 26.4516 2.07733C26.5493 2.2114 26.7948 2.40434 27.1782 2.57478C27.1903 2.58035 27.3099 2.57288 27.422 2.64305C27.6008 2.75457 27.8444 2.92775 28.0264 3.05003C28.1137 3.10855 28.0814 3.03627 28.097 3.04583C28.6959 3.42636 29.0784 3.76045 29.6473 4.26031C29.7515 4.35156 30.0907 4.57203 30.2568 4.78941C30.4373 5.02837 30.0813 4.96573 30.5942 5.40061C30.7976 5.57675 31.2307 5.64647 31.4568 6.10538C32.1125 6.79832 32.5891 7.54326 33.1442 8.31865C33.1692 8.35347 33.3036 8.4294 33.3562 8.51639C33.434 8.64547 33.4472 8.73366 33.5 8.82685C33.7198 9.21815 33.9419 9.56557 34.1319 9.95551C34.2036 10.1038 34.147 10.0677 34.2303 10.2449C34.3125 10.422 34.4101 10.521 34.4969 10.7734C34.562 10.9648 34.5523 11.1848 34.6391 11.4344C34.7294 11.4094 34.7965 11.5793 34.9305 11.8762C34.9562 11.9333 34.9641 11.8593 34.9778 11.8858C35.0344 11.9933 35.0456 12.1074 35.0996 12.2099C35.1126 12.2348 35.1433 12.2259 35.1557 12.2458C35.2629 12.4151 35.2891 12.7432 35.2922 12.7985C35.3066 13.0127 35.3728 13.0954 35.3974 13.2559C35.4212 13.4159 35.3363 13.1901 35.3739 13.3741C35.4514 13.7538 35.5673 14.2389 35.6382 14.6246C35.6667 14.7786 35.6889 14.6658 35.6939 14.6877C35.7645 15.0054 35.769 15.3383 35.8773 15.5044C35.6892 15.757 35.9277 15.6949 35.9336 16.1655C35.9337 16.2022 35.8352 16.2586 35.8058 16.1209C35.7763 15.9829 35.784 15.7679 35.7344 15.579C35.7231 15.5337 35.5893 15.2894 35.5775 15.2551C35.4886 14.9858 35.6329 14.9212 35.639 14.9048C35.7012 14.7216 35.5365 14.4255 35.5117 14.3446C35.4 13.9712 35.3438 13.6496 35.2367 13.3422C35.1663 13.1419 35.0626 13.1501 35.0196 12.9912C34.8728 12.4658 34.9439 12.2339 34.6503 11.7901C34.5861 11.6954 34.5241 11.8372 34.4605 11.4369C34.4569 11.4118 34.42 11.1087 34.305 10.9716C34.2906 10.9544 34.2612 10.9679 34.2475 10.9431C34.1559 10.7772 34.1277 10.6519 34.0293 10.4712C33.9311 10.2911 33.8053 10.0771 33.7072 9.86441C33.6482 9.73612 33.6154 9.54822 33.5954 9.4813C33.5404 9.29198 33.3775 9.14799 33.3619 9.01975C33.3453 8.88992 33.5337 9.05302 33.4002 8.7635C33.3221 8.79673 33.2344 8.8183 33.1524 8.84618C32.7996 8.25797 32.4389 7.68504 32.0132 7.14226C31.9603 7.07517 31.9783 7.17177 31.9207 7.10086C31.6771 6.80256 31.4858 6.5229 31.2102 6.23234C30.9966 6.0077 30.7295 5.79333 30.4936 5.57351C30.4237 5.36501 30.0546 5.05331 29.7998 4.81541C29.7107 4.73173 29.7337 4.71802 29.6737 4.65422C29.4457 4.41522 29.5064 4.58099 29.4296 4.53262C29.0983 4.32911 29.1957 4.15861 28.8307 3.88089C28.8114 3.86553 28.5137 3.7696 28.4773 3.75154C28.2448 3.63321 28.4641 3.69732 28.3377 3.59646C28.106 3.4136 27.9499 3.27588 27.6434 3.11187C27.5537 3.06394 27.316 2.9884 27.1742 2.84492C27.1555 2.82604 27.1852 2.80442 27.1685 2.79198C26.8625 2.57027 26.7989 2.65913 26.5953 2.58542C26.3915 2.51184 26.1347 2.29392 26.0836 2.24447C25.9515 2.11511 26.2148 2.28547 26.2254 2.28563C26.3547 2.28143 26.1355 2.17758 25.9718 2.08981C25.995 1.98404 25.7574 1.87453 25.8015 1.99971C25.8068 2.01341 25.9407 2.06867 25.9718 2.08981C25.7797 2.10795 25.5223 1.99639 25.2747 1.78041C25.1581 1.68012 25.3082 1.68544 24.8868 1.52707C24.6955 1.45704 24.7409 1.55342 24.5677 1.50487C24.172 1.39416 23.6961 1.15378 23.2878 1.03883C23.1408 0.997416 23.2713 1.0788 23.1706 1.05208C22.9034 0.982044 22.6758 0.887575 22.4019 0.832978C22.3772 0.828165 22.4264 0.883166 22.3429 0.86251C21.7086 0.708564 21.1535 0.571504 20.4764 0.474601C20.1497 0.426291 19.5597 0.387446 19.219 0.361929C18.8357 0.330546 18.4035 0.288691 18 0.274591C17.7776 0.26658 17.5679 0.266579 17.3877 0.277904C17.0578 0.299762 17.1331 0.339109 16.9927 0.374393C16.7227 0.442159 16.2365 0.388466 16.1695 0.381399C16.1677 0.380614 16.449 0.344134 16.2963 0.33733C16.2042 0.301853 16.1727 0.380907 16.1695 0.381399C16.1252 0.373922 15.5582 0.432645 15.4486 0.459003C15.3886 0.472049 15.4281 0.50577 15.3969 0.511879C14.6498 0.657577 13.9129 0.825227 13.1678 1.01771C13.1546 1.02065 13.1622 0.973044 13.1312 0.980525C12.6979 1.0851 12.4405 1.22597 12.1064 1.37715C11.7723 1.52935 11.4991 1.62655 11.2698 1.63979C11.0174 1.75293 10.6397 1.88513 10.4243 1.9658C10.2086 2.04618 10.2173 2.13801 10.2 2.1481C9.66316 2.47636 9.32329 2.60738 8.76249 2.93931C8.49505 3.09636 7.98989 3.44587 7.72463 3.6508C7.51439 3.81141 7.37483 3.89117 7.18952 4.05055C7.16451 4.07213 7.21406 4.08158 7.207 4.08891C7.02124 4.29183 7.0668 4.13899 7.01234 4.16079C6.81574 4.24119 6.69544 4.29578 6.44742 4.545C6.38979 4.60263 6.3013 4.85716 6.199 4.96088C6.06536 5.09607 6.08566 5.01231 5.94788 5.15664C5.93617 5.16904 5.95868 5.18786 5.8689 5.27144C5.45259 5.65982 5.01092 6.09892 4.6279 6.55119C4.57556 6.61289 4.6783 6.56438 4.60362 6.65401C4.25338 7.0746 3.8871 7.54906 3.56497 7.97492C3.48556 8.07976 3.50557 7.99348 3.48132 8.01144C3.33247 8.12295 3.26651 8.3784 3.24593 8.4135C2.7517 9.25607 2.32275 9.8774 1.94292 10.8016C1.92142 10.8521 1.83955 11.2701 1.69877 11.4127C1.68919 11.4222 1.54536 11.564 1.53865 11.7367C1.53836 11.7474 1.61751 11.6547 1.54278 11.8407C1.46795 12.0274 1.38701 12.338 1.2594 12.5867C1.21901 12.6652 1.07918 12.8389 1.06829 13.1073C1.06674 13.1253 1.09888 13.5495 0.968635 13.6632C0.947508 13.6817 0.849088 13.6318 0.829358 13.9474C0.826081 14.0076 0.87325 13.908 0.8524 14.0637C0.820819 14.3021 0.728645 14.6073 0.723743 14.9049C0.722722 14.957 0.756279 15.1831 0.67666 15.3478C0.664189 15.3735 0.637013 15.3169 0.619523 15.4074C0.536471 15.8386 0.509516 16.3011 0.454052 16.7441C0.434782 16.9019 0.383105 16.817 0.357993 16.9822C0.332563 17.1479 0.30516 17.4796 0.32858 17.6546C0.351881 17.8288 0.444732 17.6406 0.449574 17.9001C0.450319 17.9334 0.451083 17.9667 0.451869 18C0.477831 19.0889 0.52617 20.1711 0.718638 21.2451C0.748575 21.4086 0.753863 21.2676 0.802133 21.507C0.96831 22.3981 1.45883 23.8762 1.70574 24.6238C1.89659 25.2261 1.55134 24.5105 1.71813 24.9644C1.8003 25.1845 2.00185 25.3698 2.02848 25.4188C2.29117 25.8998 2.42565 26.258 2.681 26.6814C2.73401 26.7684 2.72164 26.6605 2.7664 26.7346C2.91965 26.9866 3.06504 27.2615 3.22101 27.497C3.29117 27.6024 3.3058 27.565 3.36764 27.6635C3.51649 27.8983 3.64597 28.1085 3.78123 28.3463C3.79366 28.368 3.66204 28.2566 3.78285 28.4246C3.97869 28.6959 4.21133 29.0437 4.48345 29.3191C4.56455 29.4006 4.62317 29.356 4.74511 29.5748C4.77109 29.6203 4.65954 29.6315 4.90839 29.7933C4.94982 29.822 5.35063 30.1023 5.46837 30.3153C5.49903 30.3719 5.55919 30.5366 5.66602 30.6247C5.68065 30.6364 5.65521 30.5557 5.73948 30.6323C6.03624 30.9023 6.34469 31.1878 6.66759 31.4437C6.7539 31.5118 6.65533 31.375 6.7831 31.477C7.134 31.7573 7.57294 32.1062 7.92589 32.3686C8.05596 32.4655 7.9445 32.4295 7.95199 32.4393C8.07362 32.5981 8.21383 32.5928 8.26853 32.6236C8.61004 32.8162 8.84351 33.0064 9.16016 33.18C9.24764 33.2278 9.20622 33.1584 9.22511 33.1654C9.4199 33.2382 9.25229 33.223 9.3616 33.2942C9.66882 33.4937 10.0304 33.6797 10.3658 33.8358C10.4887 33.8928 10.3712 33.7861 10.4811 33.8373C11.1324 34.1391 11.8253 34.4209 12.4827 34.6641C12.6069 34.71 12.517 34.7172 12.5407 34.7334C12.7053 34.8465 12.9948 34.854 13.058 34.8645C13.3466 34.9136 13.4484 34.9727 13.6989 35.0306C14.9217 35.3186 16.4615 35.5353 17.6495 35.562C17.768 35.5656 17.8847 35.568 18 35.5694C19.3834 35.5801 20.5188 35.4826 21.851 35.184C21.9426 35.1629 21.84 35.1383 21.9186 35.1195C22.9316 34.8768 23.9171 34.5766 24.8731 34.1552C24.9515 34.1205 24.8207 34.1287 24.9457 34.0715C25.202 33.9538 25.5246 33.8066 25.7862 33.6918C25.9136 33.6357 25.7637 33.753 25.8917 33.6956C26.1896 33.5616 26.4994 33.398 26.7863 33.2237C26.908 33.1494 26.6996 33.2186 26.8591 33.1249C27.9438 32.4819 28.9359 31.7382 29.9138 30.9162C29.9806 30.8598 30.1 30.8745 30.2231 30.7323C30.2156 30.7042 30.1943 30.6832 30.1799 30.6593C31.4935 29.3742 32.6323 27.9279 33.5108 26.302C33.5476 26.2336 33.4417 26.329 33.5123 26.1965C33.92 25.4266 34.2471 24.6495 34.5885 23.8249C34.6219 23.7429 34.6889 23.8144 34.7599 23.5619C34.7732 23.5176 34.8819 23.1377 34.8917 23.0352C34.8929 23.0212 34.8345 23.0784 34.8692 22.9569C35.0712 22.2484 35.2485 21.5009 35.3873 20.7773C35.4097 20.6603 35.4321 20.7922 35.4483 20.7087C35.5628 20.1188 35.5953 19.4647 35.6615 18.8906C35.7045 18.5084 35.7712 18.6531 35.8496 18.449C35.8609 18.4201 35.8665 18.1788 35.9082 18.1665C36.0142 18.1349 36.1287 18.2547 36.2419 18.2072C36.2669 18.1973 36.2414 17.8656 36.2997 18.0621C36.3039 18.0759 36.321 18.3166 36.3393 18.3762C36.3522 18.4177 36.3965 18.3441 36.4123 18.4289C36.4279 18.5137 36.3896 18.6053 36.4048 18.7453C36.4196 18.8858 36.4723 18.8247 36.4623 19.1066ZM9.46054 2.35612C9.25325 2.42376 9.2992 2.5695 9.48322 2.42686C9.49207 2.41983 9.47118 2.35259 9.46054 2.35612ZM32.5221 7.63015C32.4123 7.36377 32.2185 7.26954 32.2952 7.45751C32.3706 7.64509 32.555 7.711 32.5221 7.63015ZM34.054 10.0938C33.9536 9.77643 33.7417 9.82841 33.9364 10.1204C33.9476 10.1374 34.0598 10.1123 34.054 10.0938ZM35.8211 19.4075C35.8235 19.4048 35.8381 19.2319 35.8362 19.2276C35.7954 19.1325 35.7667 19.4772 35.8211 19.4075ZM35.1659 12.758C35.1642 12.6518 35.0415 12.3793 35.0468 12.512C35.0516 12.6184 35.1688 12.8901 35.1659 12.758ZM1.77423 10.2463C1.77066 10.2483 1.71537 10.3602 1.72793 10.3634C1.76807 10.3728 1.83229 10.2116 1.77423 10.2463ZM35.9417 17.5988C35.9299 16.8767 36.067 16.4165 36.0928 17.2167C36.0959 17.3605 36.0224 16.9095 36.0154 17.0933C36.0025 17.4273 36.1182 17.6481 36.0601 17.9937C36.0501 18.0553 35.943 17.6394 35.9414 17.5976C35.9415 17.598 35.9416 17.5984 35.9417 17.5988ZM9.26542 2.2586C9.26058 2.2588 9.10864 2.34215 9.1061 2.34608C9.04806 2.43328 9.35322 2.26571 9.26542 2.2586ZM-0.0570979 17.2715C-0.0627411 17.2806 -0.0780428 17.6837 -0.073303 17.6972C-0.00143465 17.9079 0.0288208 17.0965 -0.0570979 17.2715ZM20.5518 0.0699108C20.7456 0.0487624 20.9741 0.0795997 21.113 0.164773C20.9274 0.129359 20.7385 0.0991906 20.5518 0.0699108Z" fill="#D18A8E"/>
</svg>
