<svg width="1865" height="1080" viewBox="0 0 1865 1080" fill="none" xmlns="http://www.w3.org/2000/svg">
<path d="M59.976 499.24H61.384V515.24H59.976V499.24ZM74.6315 508.152L75.8155 508.728C75.3035 509.88 74.7115 510.888 74.0235 511.736L72.8875 510.936C73.5595 510.152 74.1355 509.224 74.6315 508.152ZM80.5835 508.024C81.4315 509.144 82.0875 510.136 82.5355 510.984L81.3515 511.816C80.8875 510.888 80.2475 509.848 79.4475 508.728L80.5835 508.024ZM77.1755 499.912H78.3915C79.2555 501.288 80.7755 502.488 82.9195 503.544L82.1195 504.76C81.5755 504.504 81.0955 504.232 80.6635 503.96V504.92H78.5995V506.328H82.3275V507.688H78.5995V510.712C78.5995 511.704 78.1195 512.216 77.1595 512.216H75.7675L75.4315 510.792C75.8475 510.856 76.2635 510.888 76.6475 510.888C76.9675 510.888 77.1435 510.696 77.1435 510.344V507.688H73.3995V506.328H77.1435V504.92H74.9035V504.088C74.4555 504.376 74.0075 504.632 73.5275 504.872L72.7275 503.672C74.6475 502.712 76.1355 501.448 77.1755 499.912ZM75.5915 503.592H80.1195C79.1435 502.888 78.3595 502.12 77.7835 501.288C77.1435 502.184 76.4075 502.952 75.5915 503.592ZM69.8475 500.04C70.9355 500.888 71.8475 501.736 72.5835 502.568L71.5115 503.624C70.8715 502.824 69.9755 501.96 68.8075 501.032L69.8475 500.04ZM79.0635 514.376C78.1835 514.376 77.2235 514.36 76.1835 514.344C75.1435 514.328 74.2955 514.232 73.6395 514.072C72.9995 513.88 72.4235 513.496 71.9435 512.952C71.7195 512.68 71.5275 512.552 71.3355 512.552C70.9995 512.552 70.4235 513.272 69.6075 514.712L68.4875 513.672C69.2875 512.376 70.0075 511.56 70.6475 511.24V506.712H68.5035V505.304H72.0715V511.352C72.1515 511.416 72.2315 511.496 72.3115 511.592C72.6955 512.024 73.0795 512.344 73.4635 512.552C73.9435 512.776 74.6635 512.92 75.6075 512.952C76.5195 512.968 77.6075 512.984 78.8555 512.984C79.6235 512.984 80.4235 512.968 81.2235 512.952C82.0235 512.936 82.6315 512.904 83.0635 512.872L82.6955 514.376H79.0635ZM93.2395 509.672H89.9915V508.232H97.8795V509.672H94.7595V512.904H98.8715V514.328H88.9835V512.904H93.2395V509.672ZM94.5835 505.144C93.3675 506.168 91.8635 507.032 90.0555 507.736L89.1435 506.536C92.1355 505.448 94.2155 503.912 95.3835 501.944H89.8955V500.472H97.1755V501.672C96.7915 502.568 96.2635 503.4 95.5915 504.152C96.9035 504.984 98.0235 505.8 98.9675 506.6L97.8795 507.688C97.0635 506.888 95.9595 506.04 94.5835 505.144ZM87.4635 499.784L88.8075 500.408C88.0075 502.168 86.6635 503.768 84.7595 505.176L84.2955 503.704C85.7355 502.584 86.7915 501.272 87.4635 499.784ZM87.9915 503.944L89.2875 504.552C88.9195 505.336 88.4555 506.072 87.8955 506.776V514.568H86.4075V508.344C85.9275 508.776 85.4155 509.192 84.8875 509.576L84.4395 508.136C86.0395 506.92 87.2235 505.528 87.9915 503.944ZM103.72 503.032H111.64V504.408H108.456V506.376H111.144V507.72H108.456V509.944H110.088C109.8 509.304 109.496 508.76 109.176 508.28L110.376 507.896C110.744 508.408 111.064 508.952 111.336 509.56L110.472 509.944H112.104V511.32H103.288V509.944H106.92V507.72H104.232V506.376H106.92V504.408H103.72V503.032ZM114.408 500.488V514.616H112.872V514.008H102.504V514.616H100.968V500.488H114.408ZM102.504 512.584H112.872V501.928H102.504V512.584ZM126.136 508.536C125.896 508.6 125.656 508.648 125.432 508.712C125.672 509.448 125.8 510.248 125.816 511.112C125.816 512.392 125.624 513.288 125.272 513.768C124.856 514.344 123.928 514.632 122.472 514.632H121.96L121.448 513.288H122.264C123.16 513.288 123.72 513.16 123.944 512.92C124.2 512.6 124.344 512.008 124.344 511.112C124.344 510.952 124.328 510.792 124.328 510.648C122.6 511.944 120.328 513.016 117.544 513.88L116.776 512.584C119.896 511.704 122.328 510.568 124.072 509.192C123.976 508.872 123.848 508.552 123.72 508.264C122.216 509.384 120.216 510.296 117.736 511.016L116.984 509.704C119.592 509.032 121.624 508.184 123.08 507.144C122.92 506.936 122.776 506.744 122.616 506.552C122.552 506.584 122.504 506.6 122.456 506.632C121.416 507.128 119.944 507.656 118.056 508.216L117.288 506.952C118.76 506.648 120.136 506.232 121.416 505.704C121.8 505.544 122.168 505.384 122.52 505.208H118.936V503.8H128.44V505.208H124.888C124.503 505.464 124.135 505.704 123.784 505.928C124.248 506.44 124.632 506.984 124.952 507.56C126.36 507.144 127.704 506.536 128.984 505.72L130.008 506.744C129.176 507.272 128.296 507.72 127.352 508.104C128.088 509.976 129.288 511.48 130.92 512.632L129.832 513.896C128.136 512.472 126.904 510.68 126.136 508.536ZM124.056 499.768C124.232 500.184 124.392 500.648 124.552 501.16H130.552V504.136H129.032V502.568H118.344V504.136H116.824V501.16H123.016C122.856 500.744 122.68 500.376 122.504 500.04L124.056 499.768ZM142.36 503.656C142.296 503.912 142.232 504.152 142.168 504.376C142.52 506.04 142.984 507.496 143.544 508.744C144.072 507.272 144.36 505.576 144.424 503.656H142.36ZM142.856 510.296C142.312 509.192 141.832 507.944 141.432 506.552C141.176 507.128 140.92 507.672 140.632 508.152L139.672 506.968C140.568 505.208 141.176 502.84 141.496 499.864L142.984 500.12C142.888 500.856 142.792 501.544 142.664 502.2H146.728V503.656H145.8C145.704 506.264 145.224 508.488 144.36 510.328C145.16 511.656 146.088 512.696 147.176 513.432L146.328 514.664C145.288 513.912 144.392 512.92 143.624 511.688C142.872 512.856 141.928 513.848 140.808 514.648L140.024 513.384C141.208 512.584 142.152 511.56 142.856 510.296ZM135.272 507.304L136.696 507.48C136.6 507.736 136.52 507.976 136.424 508.232H139.688V509.464C139.4 510.424 138.888 511.272 138.152 512.008C138.808 512.296 139.448 512.616 140.056 512.936L139.24 514.12C138.616 513.736 137.864 513.352 136.984 512.952C135.928 513.64 134.6 514.184 133.016 514.6L132.312 513.352C133.512 513.064 134.552 512.712 135.416 512.264C134.76 511.992 134.056 511.72 133.32 511.432C133.704 510.76 134.056 510.136 134.36 509.528H132.68V508.232H134.936C135.064 507.912 135.176 507.592 135.272 507.304ZM136.76 511.432C137.464 510.872 137.976 510.232 138.328 509.528H135.848C135.624 509.976 135.384 510.408 135.128 510.824C135.688 511.016 136.232 511.208 136.76 511.432ZM134.168 500.12C134.52 500.728 134.824 501.368 135.096 502.072L134.008 502.568C133.688 501.8 133.336 501.112 132.968 500.52L134.168 500.12ZM138.76 500.104L139.832 500.616C139.512 501.288 139.112 501.96 138.616 502.616L137.56 502.072C138.072 501.4 138.472 500.744 138.76 500.104ZM132.712 502.84H135.736V499.896H137.128V502.84H139.911V504.168H137.128V504.248C137.976 504.6 138.84 505.016 139.72 505.48L138.92 506.68C138.216 506.12 137.624 505.672 137.128 505.352V507.144H135.736V504.44C135.208 505.592 134.328 506.6 133.096 507.464L132.344 506.232C133.464 505.592 134.248 504.904 134.728 504.168H132.712V502.84ZM160.984 499.768H162.408C161.736 500.856 161.224 501.96 160.872 503.08C160.392 504.456 160.168 505.848 160.168 507.24C160.168 508.616 160.392 510.008 160.872 511.4C161.224 512.504 161.736 513.608 162.408 514.712H160.984C160.232 513.656 159.656 512.568 159.256 511.448C158.76 510.088 158.52 508.696 158.52 507.256C158.52 505.8 158.76 504.392 159.256 503.048C159.656 501.896 160.232 500.808 160.984 499.768ZM170.92 504.648H172.456V514.632H170.92V504.648ZM171.016 499.88H172.36C173.688 502.024 175.96 503.928 179.176 505.56L178.264 506.952C175.32 505.432 173.128 503.544 171.688 501.304C169.96 503.752 167.768 505.64 165.112 506.968L164.2 505.592C167.144 504.12 169.416 502.216 171.016 499.88ZM180.968 499.768H182.392C183.128 500.808 183.704 501.896 184.12 503.048C184.6 504.392 184.856 505.8 184.856 507.256C184.856 508.696 184.6 510.088 184.12 511.448C183.704 512.568 183.128 513.656 182.392 514.712H180.968C181.624 513.608 182.136 512.504 182.504 511.4C182.968 510.008 183.208 508.616 183.208 507.24C183.208 505.848 182.968 504.456 182.504 503.08C182.136 501.96 181.624 500.856 180.968 499.768Z" fill="#6B5F5F"/>
<path d="M132.12 180.696H142.584V181.784H132.12V180.696ZM137.336 169.752L138.568 169.912C138.44 170.488 138.28 171.016 138.056 171.512H143.48C143.336 174.216 143.144 175.816 142.888 176.328C142.6 176.824 142.088 177.08 141.336 177.08H140.312L139.976 176.056C140.488 176.056 140.952 176.072 141.336 176.072C141.64 176.072 141.848 175.928 141.976 175.672C142.104 175.384 142.2 174.36 142.28 172.6H135.272V177.896H145.752C145.72 181.224 145.448 183.16 144.92 183.704C144.392 184.2 143.512 184.456 142.28 184.456H140.84L140.488 183.32C141.208 183.336 141.816 183.352 142.312 183.352C143.096 183.352 143.64 183.192 143.96 182.888C144.312 182.536 144.504 181.224 144.504 178.984H134.12V171.512H136.84C137.064 170.936 137.224 170.36 137.336 169.752ZM137.544 173.432C138.376 174.104 139.096 174.776 139.672 175.448L138.872 176.248C138.36 175.608 137.656 174.92 136.76 174.184L137.544 173.432ZM157.416 169.992H158.584V172.808H161.768V180.056H160.648V179.24H158.584V184.6H157.416V179.24H155.416V180.056H154.312V172.808H157.416V169.992ZM155.416 178.168H157.416V173.896H155.416V178.168ZM158.584 178.168H160.648V173.896H158.584V178.168ZM148.104 172.2L147.88 171.128C149.832 170.936 151.576 170.584 153.096 170.04L153.496 171.112C152.84 171.32 152.152 171.512 151.416 171.672V174.312H153.48V175.416H151.416V176.216C152.216 176.968 153.016 177.816 153.832 178.76L153.192 179.72C152.504 178.696 151.912 177.864 151.416 177.224V184.664H150.296V177.304C149.72 178.84 148.968 180.248 148.008 181.512L147.528 180.312C148.776 178.872 149.656 177.24 150.184 175.416H147.832V174.312H150.296V171.896C149.592 172.008 148.872 172.104 148.104 172.2ZM173.528 173.48L173.32 174.312C173.72 176.184 174.232 177.8 174.872 179.144C175.496 177.528 175.832 175.64 175.896 173.48H173.528ZM174.344 180.296C173.72 179.064 173.192 177.656 172.76 176.056C172.472 176.792 172.152 177.448 171.816 178.024L171.096 177.144C172.04 175.352 172.68 172.936 173 169.896L174.12 170.088C174.024 170.904 173.896 171.672 173.768 172.376H177.992V173.48H176.952C176.872 176.152 176.376 178.44 175.48 180.328C176.312 181.768 177.288 182.872 178.44 183.656L177.816 184.6C176.696 183.8 175.736 182.712 174.936 181.368C174.168 182.648 173.176 183.72 171.976 184.584L171.384 183.624C172.632 182.76 173.608 181.656 174.344 180.296ZM166.76 177.368L167.832 177.496C167.72 177.8 167.608 178.088 167.512 178.376H170.856V179.32C170.504 180.376 169.912 181.288 169.08 182.056C169.848 182.408 170.584 182.76 171.288 183.144L170.664 184.04C169.96 183.624 169.144 183.192 168.2 182.776C167.144 183.512 165.816 184.104 164.216 184.552L163.672 183.592C164.984 183.24 166.12 182.808 167.048 182.28C166.344 181.976 165.608 181.672 164.824 181.384C165.24 180.68 165.608 180.024 165.928 179.384H164.04V178.376H166.376C166.52 178.024 166.648 177.688 166.76 177.368ZM168.024 181.608C168.824 180.968 169.432 180.216 169.816 179.384H167.064C166.808 179.928 166.52 180.44 166.2 180.92C166.84 181.144 167.448 181.368 168.024 181.608ZM165.304 170.232C165.688 170.856 166.008 171.528 166.296 172.232L165.464 172.616C165.128 171.832 164.776 171.144 164.392 170.536L165.304 170.232ZM170.168 170.184L171 170.568C170.68 171.272 170.28 171.96 169.768 172.632L168.952 172.216C169.464 171.528 169.88 170.856 170.168 170.184ZM164.072 173H167.192V169.944H168.264V173H171.176V174.008H168.264V174.184C169.128 174.616 170.024 175.112 170.92 175.656L170.328 176.552C169.528 175.912 168.84 175.4 168.264 175.016V177.096H167.192V174.056C166.664 175.32 165.704 176.408 164.328 177.336L163.768 176.408C165 175.688 165.864 174.888 166.344 174.008H164.072V173ZM192.6 169.768H193.72C193.08 170.824 192.568 171.928 192.2 173.08C191.72 174.488 191.496 175.864 191.496 177.24C191.496 178.6 191.72 179.992 192.2 181.4C192.568 182.536 193.08 183.64 193.72 184.712H192.6C191.896 183.672 191.352 182.568 190.952 181.416C190.472 180.04 190.248 178.648 190.248 177.256C190.248 175.832 190.472 174.44 190.952 173.064C191.352 171.896 191.896 170.792 192.6 169.768ZM195.992 171.016H210.008V172.12H201.768V172.824C201.752 173.8 201.704 174.712 201.608 175.56H208.504C208.472 179.784 208.296 182.328 207.944 183.16C207.56 183.992 206.92 184.408 206.024 184.408C205.384 184.408 204.6 184.376 203.704 184.344L203.416 183.24C204.36 183.272 205.128 183.304 205.736 183.32C206.408 183.288 206.84 182.92 207.032 182.2C207.192 181.496 207.304 179.624 207.336 176.616H201.48C201.256 178.088 200.92 179.368 200.44 180.44C199.608 182.216 198.248 183.592 196.392 184.568L195.752 183.56C197.576 182.568 198.84 181.224 199.56 179.56C200.232 177.832 200.584 175.592 200.632 172.824V172.12H195.992V171.016ZM221.416 169.992H222.584V172.808H225.768V180.056H224.648V179.24H222.584V184.6H221.416V179.24H219.416V180.056H218.312V172.808H221.416V169.992ZM219.416 178.168H221.416V173.896H219.416V178.168ZM222.584 178.168H224.648V173.896H222.584V178.168ZM212.104 172.2L211.88 171.128C213.832 170.936 215.576 170.584 217.096 170.04L217.496 171.112C216.84 171.32 216.152 171.512 215.416 171.672V174.312H217.48V175.416H215.416V176.216C216.216 176.968 217.016 177.816 217.832 178.76L217.192 179.72C216.504 178.696 215.912 177.864 215.416 177.224V184.664H214.296V177.304C213.72 178.84 212.968 180.248 212.008 181.512L211.528 180.312C212.776 178.872 213.656 177.24 214.184 175.416H211.832V174.312H214.296V171.896C213.592 172.008 212.872 172.104 212.104 172.2ZM228.28 169.768H229.4C230.088 170.792 230.632 171.896 231.048 173.064C231.512 174.44 231.752 175.832 231.752 177.256C231.752 178.648 231.512 180.04 231.048 181.416C230.632 182.568 230.088 183.672 229.4 184.712H228.28C228.92 183.64 229.416 182.536 229.8 181.4C230.264 179.992 230.504 178.6 230.504 177.24C230.504 175.864 230.264 174.488 229.8 173.08C229.416 171.928 228.92 170.824 228.28 169.768Z" fill="#8F7F7F"/>
<path d="M145.34 549.808C146.264 549.808 147.02 550.074 147.622 550.606C148.21 551.138 148.518 551.852 148.518 552.72C148.518 553.588 148.182 554.372 147.538 555.072C147.188 555.436 146.502 555.982 145.466 556.682C144.192 557.536 143.464 558.306 143.282 558.978H148.532V560H141.868C141.868 559.09 142.19 558.264 142.862 557.522C143.254 557.074 143.968 556.472 145.032 555.744C145.816 555.184 146.334 554.778 146.6 554.498C147.104 553.952 147.37 553.35 147.37 552.706C147.37 552.09 147.188 551.628 146.824 551.292C146.46 550.956 145.942 550.788 145.298 550.788C144.612 550.788 144.08 551.012 143.716 551.488C143.324 551.936 143.114 552.608 143.1 553.49H141.952C141.952 552.37 142.274 551.474 142.89 550.816C143.506 550.144 144.332 549.808 145.34 549.808ZM153.735 549.808C154.659 549.808 155.415 550.074 156.017 550.606C156.605 551.138 156.913 551.852 156.913 552.72C156.913 553.588 156.577 554.372 155.933 555.072C155.583 555.436 154.897 555.982 153.861 556.682C152.587 557.536 151.859 558.306 151.677 558.978H156.927V560H150.263C150.263 559.09 150.585 558.264 151.257 557.522C151.649 557.074 152.363 556.472 153.427 555.744C154.211 555.184 154.729 554.778 154.995 554.498C155.499 553.952 155.765 553.35 155.765 552.706C155.765 552.09 155.583 551.628 155.219 551.292C154.855 550.956 154.337 550.788 153.693 550.788C153.007 550.788 152.475 551.012 152.111 551.488C151.719 551.936 151.509 552.608 151.495 553.49H150.347C150.347 552.37 150.669 551.474 151.285 550.816C151.901 550.144 152.727 549.808 153.735 549.808Z" fill="#AA151B"/>
<path d="M144.22 714.004H145.116V724H143.968V715.404C143.338 716.048 142.554 716.496 141.616 716.776V715.628C142.064 715.502 142.54 715.306 143.016 715.026C143.492 714.718 143.884 714.382 144.22 714.004ZM150.819 713.808C152.009 713.808 152.905 714.326 153.521 715.39C154.053 716.286 154.319 717.49 154.319 719.002C154.319 720.514 154.053 721.718 153.521 722.614C152.905 723.664 152.009 724.196 150.819 724.196C149.615 724.196 148.719 723.664 148.117 722.614C147.585 721.718 147.319 720.514 147.319 719.002C147.319 717.49 147.585 716.286 148.117 715.39C148.719 714.326 149.615 713.808 150.819 713.808ZM150.819 714.788C149.923 714.788 149.279 715.264 148.887 716.23C148.607 716.902 148.467 717.826 148.467 719.002C148.467 720.164 148.607 721.088 148.887 721.774C149.279 722.726 149.923 723.216 150.819 723.216C151.715 723.216 152.359 722.726 152.751 721.774C153.031 721.088 153.185 720.164 153.185 719.002C153.185 717.826 153.031 716.902 152.751 716.23C152.359 715.264 151.715 714.788 150.819 714.788ZM158.78 716.846H159.732V719.898H162.784V720.85H159.732V723.916H158.78V720.85H155.714V719.898H158.78V716.846Z" fill="#1564C2"/>
<path d="M144.22 727.004H145.116V737H143.968V728.404C143.338 729.048 142.554 729.496 141.616 729.776V728.628C142.064 728.502 142.54 728.306 143.016 728.026C143.492 727.718 143.884 727.382 144.22 727.004ZM148.089 727.004H153.899V728.026H149.027L148.691 731.372H148.747C149.027 731.036 149.391 730.784 149.825 730.616C150.217 730.448 150.637 730.378 151.099 730.378C152.051 730.378 152.821 730.672 153.409 731.274C153.997 731.89 154.305 732.73 154.305 733.808C154.305 734.816 153.941 735.642 153.227 736.286C152.555 736.888 151.715 737.196 150.735 737.196C149.853 737.196 149.097 736.958 148.481 736.482C147.781 735.95 147.403 735.222 147.333 734.312H148.467C148.523 734.942 148.775 735.432 149.223 735.768C149.615 736.062 150.133 736.216 150.749 736.216C151.449 736.216 152.023 735.992 152.485 735.544C152.933 735.096 153.171 734.522 153.171 733.822C153.171 733.024 152.947 732.408 152.527 731.974C152.121 731.526 151.547 731.316 150.819 731.316C150.343 731.316 149.923 731.414 149.545 731.624C149.153 731.82 148.845 732.128 148.649 732.52H147.557L148.089 727.004ZM158.78 729.846H159.732V732.898H162.784V733.85H159.732V736.916H158.78V733.85H155.714V732.898H158.78V729.846Z" fill="#7164C5"/>
<path d="M144.22 806.004H145.116V816H143.968V807.404C143.338 808.048 142.554 808.496 141.616 808.776V807.628C142.064 807.502 142.54 807.306 143.016 807.026C143.492 806.718 143.884 806.382 144.22 806.004ZM150.819 805.808C152.009 805.808 152.905 806.326 153.521 807.39C154.053 808.286 154.319 809.49 154.319 811.002C154.319 812.514 154.053 813.718 153.521 814.614C152.905 815.664 152.009 816.196 150.819 816.196C149.615 816.196 148.719 815.664 148.117 814.614C147.585 813.718 147.319 812.514 147.319 811.002C147.319 809.49 147.585 808.286 148.117 807.39C148.719 806.326 149.615 805.808 150.819 805.808ZM150.819 806.788C149.923 806.788 149.279 807.264 148.887 808.23C148.607 808.902 148.467 809.826 148.467 811.002C148.467 812.164 148.607 813.088 148.887 813.774C149.279 814.726 149.923 815.216 150.819 815.216C151.715 815.216 152.359 814.726 152.751 813.774C153.031 813.088 153.185 812.164 153.185 811.002C153.185 809.826 153.031 808.902 152.751 808.23C152.359 807.264 151.715 806.788 150.819 806.788ZM158.78 808.846H159.732V811.898H162.784V812.85H159.732V815.916H158.78V812.85H155.714V811.898H158.78V808.846Z" fill="#DD575B"/>
<path d="M499.061 978.064C498.705 978.476 498.077 978.507 497.683 978.131C394.063 879.18 325.925 745.783 304.563 600.013C283.199 454.226 309.907 304.827 380.248 176.545C380.502 176.08 381.093 175.921 381.547 176.195C381.976 176.454 382.124 177.005 381.883 177.445C311.728 305.356 285.089 454.332 306.392 599.705C327.694 745.068 395.651 878.09 498.997 976.75C499.364 977.101 499.393 977.679 499.061 978.064Z" fill="#D7E0E9"/>
<path d="M414.201 964.402C413.824 964.793 413.196 964.788 412.824 964.391C317.311 862.214 257.032 729.339 241.482 586.661C225.932 443.969 256.005 299.591 326.956 176.239C327.221 175.779 327.816 175.632 328.265 175.916C328.688 176.184 328.824 176.739 328.574 177.173C257.81 300.169 227.814 444.139 243.32 586.428C258.826 728.709 318.948 861.212 414.211 963.091C414.557 963.461 414.553 964.038 414.201 964.402Z" fill="#D7E0E9"/>
<path d="M329.715 947.571C329.316 947.938 328.691 947.897 328.345 947.48C241.513 842.888 189.233 711.453 179.266 572.646C169.3 433.828 202.186 295.044 273.036 176.862C273.31 176.406 273.908 176.27 274.352 176.563C274.77 176.839 274.896 177.396 274.638 177.826C203.974 295.668 171.172 434.06 181.111 572.488C191.05 710.909 243.194 841.978 329.801 946.267C330.124 946.655 330.086 947.229 329.715 947.571Z" fill="#D7E0E9"/>
<circle cx="199.015" cy="316.838" r="44.4681" transform="rotate(4.69853 199.015 316.838)" fill="url(#paint0_linear_11_5)" fill-opacity="0.4"/>
<circle cx="274.807" cy="384.043" r="27.9695" transform="rotate(4.69853 274.807 384.043)" fill="url(#paint1_linear_11_5)" fill-opacity="0.4"/>
<circle cx="326.859" cy="236.068" r="11" transform="rotate(4.69853 326.859 236.068)" fill="url(#paint2_linear_11_5)" fill-opacity="0.4"/>
<circle cx="326.75" cy="308.71" r="22" transform="rotate(4.69853 326.75 308.71)" fill="url(#paint3_linear_11_5)" fill-opacity="0.4"/>
<path d="M287.004 875.742C284.295 877.65 280.54 876.905 278.792 874.09C220.826 780.748 186.925 673.068 180.39 561.523C180.208 558.407 182.59 555.741 185.705 555.547C188.874 555.349 191.591 557.781 191.778 560.95C198.236 670.499 231.587 776.243 288.584 867.881C290.218 870.508 289.534 873.961 287.004 875.742Z" fill="url(#paint4_linear_11_5)" fill-opacity="0.5"/>
<path d="M326.299 859.821C323.555 861.67 319.82 860.852 318.131 858.007C293.742 816.947 273.84 773.106 258.798 727.309C257.835 724.374 259.397 721.214 262.304 720.171C265.361 719.075 268.716 720.734 269.731 723.818C284.523 768.735 304.079 811.732 328.034 851.998C329.615 854.656 328.863 858.092 326.299 859.821Z" fill="url(#paint5_linear_11_5)" fill-opacity="0.5"/>
<path d="M420.619 912.229C418.104 914.417 414.268 914.057 412.233 911.417C389.996 882.562 370.18 851.73 353.006 819.262C351.562 816.532 352.552 813.156 355.227 811.612C358.079 809.967 361.725 811.036 363.267 813.945C380.13 845.749 399.577 875.951 421.394 904.215C423.292 906.674 422.962 910.19 420.619 912.229Z" fill="url(#paint6_linear_11_5)" fill-opacity="0.5"/>
<path d="M402.494 868.965C399.846 870.969 396.059 870.351 394.214 867.591C367.51 827.642 345.221 784.61 327.774 739.319C326.665 736.438 328.059 733.205 330.904 732.008C333.911 730.744 337.363 732.233 338.538 735.275C355.688 779.685 377.584 821.878 403.807 861.045C405.53 863.619 404.964 867.096 402.494 868.965Z" fill="url(#paint7_linear_11_5)" fill-opacity="0.5"/>
<path d="M467.532 865.111C436.013 881.003 401.963 888.664 372.872 886.407C343.781 884.15 322.033 872.162 312.411 853.078C302.789 833.995 306.082 809.38 321.565 784.649C337.049 759.918 363.454 737.096 394.973 721.204L396.228 723.694C381.162 731.291 367.149 740.609 354.99 751.119C342.83 761.628 332.762 773.122 325.361 784.943C310.413 808.819 305.547 833.685 314.836 852.108C324.125 870.531 346.808 881.002 374.892 883.18C402.977 885.359 435.848 877.963 466.276 862.621L467.532 865.111Z" fill="#1564C2" fill-opacity="0.6"/>
<path d="M512.349 924.586C495.213 935.876 474.328 939.949 454.289 935.908C434.25 931.868 416.698 920.044 405.494 903.04C394.289 886.035 390.351 865.241 394.546 845.234C398.74 825.226 410.723 807.643 427.859 796.353L429.321 798.572C421.13 803.969 414.074 810.914 408.556 819.01C403.037 827.107 399.165 836.197 397.16 845.761C393.111 865.076 396.913 885.15 407.729 901.567C418.546 917.983 435.491 929.397 454.836 933.298C474.182 937.199 494.344 933.267 510.887 922.367L512.349 924.586Z" fill="#DD575B" fill-opacity="0.6"/>
<path d="M467.626 865.148C425.706 886.284 381.694 898.999 345.271 900.496C308.849 901.992 282.999 892.148 273.409 873.128C263.82 854.109 271.275 827.472 294.136 799.077C316.996 770.683 353.389 742.857 395.309 721.721L396.56 724.203C376.522 734.306 357.583 746.101 340.824 758.915C324.066 771.728 309.276 784.729 298.348 798.302C276.279 825.714 266.366 853.58 275.624 871.941C284.882 890.302 313.259 898.638 348.421 897.194C383.583 895.749 425.905 883.071 466.374 862.666L467.626 865.148Z" fill="#AA151B" fill-opacity="0.6"/>
<path d="M357.871 415.595C342.617 412.258 327.915 407.114 314.603 400.458C301.292 393.802 289.633 385.763 280.291 376.801C270.949 367.839 264.108 358.129 260.157 348.226C256.207 338.323 255.225 328.42 257.268 319.083C259.311 309.746 264.338 301.158 272.063 293.809C279.787 286.46 290.058 280.494 302.289 276.252C314.52 272.01 328.471 269.574 343.345 269.084C358.22 268.595 373.727 270.06 388.981 273.397L388.443 275.858C373.717 272.636 358.746 271.221 344.386 271.694C330.026 272.167 316.377 274.322 304.569 278.417C280.723 286.689 263.831 301.029 259.849 319.233C255.866 337.437 265.439 358.806 283.653 376.28C301.867 393.753 328.668 406.628 358.409 413.135L357.871 415.595Z" fill="#1564C2" fill-opacity="0.6"/>
<path d="M368.966 345.332C361.085 342.621 353.871 338.218 347.738 332.376C341.604 326.533 336.671 319.365 333.22 311.28C329.768 303.195 327.866 294.353 327.622 285.256C327.377 276.16 328.796 266.989 331.796 258.267C334.797 249.544 339.32 241.441 345.108 234.42C350.896 227.399 357.835 221.597 365.53 217.346C373.224 213.096 381.523 210.479 389.953 209.645C398.383 208.812 406.778 209.778 414.66 212.489L413.869 214.788C406.26 212.171 398.155 211.238 390.017 212.042C381.879 212.847 373.868 215.373 366.439 219.477C351.437 227.765 339.723 241.975 333.873 258.981C328.023 275.988 328.518 294.397 335.247 310.16C341.977 325.923 354.39 337.748 369.757 343.033L368.966 345.332Z" fill="#DD575B" fill-opacity="0.6"/>
<path d="M370.215 344.725C363.165 342.715 356.446 339.803 350.442 336.155C344.439 332.507 339.269 328.195 335.226 323.465C331.184 318.734 328.349 313.678 326.884 308.585C325.418 303.492 325.351 298.462 326.685 293.783C328.019 289.103 330.729 284.864 334.659 281.31C338.59 277.755 343.665 274.954 349.594 273.066C355.522 271.178 362.189 270.24 369.214 270.306C376.238 270.372 383.483 271.441 390.533 273.451L390.182 274.684C383.375 272.743 376.382 271.712 369.6 271.648C362.819 271.584 357.217 272.808 351.493 274.631C339.933 278.312 331.81 285.14 329.209 294.265C326.608 303.389 328.908 313.744 336.789 322.967C344.67 332.19 356.82 339.573 370.567 343.492L370.215 344.725Z" fill="#7164C5" fill-opacity="0.6"/>
<path d="M358.588 416.223C339.157 411.972 320.318 405.923 303.147 398.423C285.976 390.922 270.81 382.116 258.514 372.508C246.218 362.9 237.034 352.677 231.485 342.424C225.936 332.171 224.131 322.088 226.174 312.752C228.217 303.415 234.067 295.007 243.39 288.008C252.713 281.008 265.328 275.555 280.512 271.959C295.697 268.363 313.155 266.695 331.889 267.049C350.623 267.404 370.267 269.774 389.698 274.026L389.35 276.013C370.591 271.908 351.108 269.329 333.022 268.986C314.936 268.644 298.124 269.918 283.465 273.39C253.859 280.401 231.918 294.843 227.935 313.047C223.953 331.251 237.8 354.013 261.773 372.746C285.746 391.48 321.241 405.474 359.127 413.763L358.588 416.223Z" fill="#AA151B" fill-opacity="0.6"/>
<path d="M467.921 864.544C452.761 873.575 436.115 878.698 421.645 878.788C407.175 878.879 396.067 873.928 390.764 865.025C385.461 856.122 386.397 843.996 393.367 831.315C400.337 818.635 412.77 806.438 427.93 797.407L428.622 798.569C421.375 802.885 414.698 807.998 408.973 813.615C403.248 819.231 398.587 825.242 395.255 831.304C388.526 843.546 388.063 854.728 393.183 863.322C398.302 871.917 409.267 876.591 423.236 876.504C437.205 876.417 452.593 872.1 467.229 863.383L467.921 864.544Z" fill="#7164C5" fill-opacity="0.6"/>
<path d="M523.132 918.488C522.518 915.231 519.381 913.089 516.125 913.703C512.868 914.317 510.726 917.454 511.34 920.711C511.954 923.967 515.091 926.109 518.348 925.495C521.604 924.881 523.746 921.744 523.132 918.488Z" stroke="#D7E0E9" stroke-width="1.6"/>
<path d="M570.026 966.713C569.412 963.457 566.275 961.314 563.018 961.928C559.762 962.542 557.62 965.68 558.234 968.936C558.848 972.192 561.985 974.334 565.241 973.721C568.498 973.107 570.64 969.969 570.026 966.713Z" stroke="#D7E0E9" stroke-width="1.6"/>
<path d="M479.49 860.856C478.876 857.6 475.739 855.458 472.482 856.072C469.226 856.686 467.084 859.823 467.698 863.079C468.312 866.336 471.449 868.478 474.705 867.864C477.962 867.25 480.104 864.113 479.49 860.856Z" stroke="#D7E0E9" stroke-width="1.6"/>
<path d="M439.579 794.83C438.965 791.574 435.828 789.431 432.572 790.045C429.315 790.659 427.173 793.797 427.787 797.053C428.401 800.309 431.538 802.451 434.794 801.838C438.051 801.224 440.193 798.086 439.579 794.83Z" stroke="#D7E0E9" stroke-width="1.6"/>
<path d="M407.031 720.63C406.417 717.374 403.28 715.232 400.023 715.845C396.767 716.459 394.625 719.597 395.238 722.853C395.852 726.109 398.99 728.252 402.246 727.638C405.502 727.024 407.645 723.887 407.031 720.63Z" stroke="#D7E0E9" stroke-width="1.6"/>
<path d="M384.874 646.493C384.26 643.237 381.123 641.095 377.867 641.709C374.61 642.323 372.468 645.46 373.082 648.716C373.696 651.973 376.833 654.115 380.09 653.501C383.346 652.887 385.488 649.75 384.874 646.493Z" stroke="#D7E0E9" stroke-width="1.6"/>
<path d="M400.964 275.395C401.597 278.648 399.473 281.798 396.221 282.431C392.968 283.064 389.818 280.941 389.185 277.688C388.552 274.436 390.675 271.286 393.928 270.652C397.18 270.019 400.331 272.143 400.964 275.395Z" stroke="#D7E0E9" stroke-width="1.6"/>
<path d="M424.986 214.799C425.619 218.051 423.496 221.201 420.243 221.835C416.991 222.468 413.841 220.344 413.207 217.092C412.574 213.839 414.698 210.689 417.95 210.056C421.203 209.423 424.353 211.546 424.986 214.799Z" stroke="#D7E0E9" stroke-width="1.6"/>
<path d="M381.39 344.291C382.023 347.543 379.899 350.694 376.647 351.327C373.394 351.96 370.244 349.837 369.611 346.584C368.978 343.331 371.101 340.181 374.354 339.548C377.606 338.915 380.757 341.038 381.39 344.291Z" stroke="#D7E0E9" stroke-width="1.6"/>
<path d="M370.708 415.149C371.341 418.402 369.218 421.552 365.965 422.185C362.712 422.819 359.562 420.695 358.929 417.442C358.296 414.19 360.419 411.04 363.672 410.406C366.924 409.773 370.075 411.897 370.708 415.149Z" stroke="#D7E0E9" stroke-width="1.6"/>
<path d="M366.389 491.266C367.023 494.518 364.899 497.669 361.646 498.302C358.394 498.935 355.244 496.812 354.61 493.559C353.977 490.306 356.101 487.156 359.353 486.523C362.606 485.89 365.756 488.013 366.389 491.266Z" stroke="#D7E0E9" stroke-width="1.6"/>
<path d="M371.049 567.788C371.683 571.04 369.559 574.19 366.307 574.824C363.054 575.457 359.904 573.333 359.271 570.081C358.637 566.828 360.761 563.678 364.013 563.045C367.266 562.411 370.416 564.535 371.049 567.788Z" stroke="#D7E0E9" stroke-width="1.6"/>
<path d="M577.137 987.556C576.8 987.986 576.173 988.046 575.761 987.689C465.399 892.014 390.5 758.649 363.994 610.574C337.485 462.481 361.045 308.98 430.596 176.536C430.842 176.067 431.428 175.898 431.887 176.162C432.321 176.413 432.479 176.962 432.246 177.406C362.879 309.466 339.378 462.532 365.812 610.203C392.244 757.863 466.942 890.851 577.01 986.243C577.396 986.577 577.452 987.155 577.137 987.556Z" fill="#D7E0E9"/>
<line x1="242.759" y1="176.178" x2="432.159" y2="176.178" stroke="#D7E0E9" stroke-width="1.6" stroke-linecap="round"/>
<path d="M270.414 159.274C271.602 157.859 272.961 157.611 274.514 158.548L273.785 159.417C272.762 158.85 271.892 159.016 271.145 159.906C270.641 160.507 270.535 161.222 270.847 162.069C271.117 162.88 271.701 163.644 272.569 164.373C272.612 164.409 272.709 164.49 272.857 164.596L272.893 164.553C272.658 164.027 272.572 163.498 272.664 162.953C272.726 162.421 272.952 161.934 273.33 161.484C273.942 160.754 274.673 160.363 275.523 160.308C276.364 160.264 277.153 160.543 277.904 161.173C278.655 161.803 279.08 162.581 279.169 163.477C279.248 164.384 278.993 165.212 278.363 165.962C277.58 166.895 276.641 167.296 275.559 167.192C274.526 167.093 273.435 166.543 272.266 165.562C271.043 164.536 270.244 163.463 269.887 162.341C269.506 161.162 269.685 160.143 270.414 159.274ZM273.915 162.267C273.492 162.771 273.313 163.334 273.377 163.954C273.441 164.574 273.735 165.095 274.272 165.545C274.808 165.995 275.374 166.214 275.987 166.18C276.621 166.164 277.155 165.899 277.605 165.363C278.037 164.848 278.205 164.277 278.132 163.667C278.037 163.04 277.722 162.501 277.175 162.042C276.628 161.583 276.064 161.384 275.481 161.425C274.868 161.459 274.356 161.742 273.915 162.267ZM275.72 152.951C276.485 152.04 277.458 151.686 278.669 151.898C279.697 152.067 280.79 152.637 281.948 153.609C283.107 154.58 283.858 155.558 284.202 156.542C284.611 157.688 284.442 158.717 283.678 159.628C282.904 160.551 281.92 160.895 280.729 160.681C279.701 160.513 278.607 159.943 277.449 158.971C276.291 157.999 275.539 157.021 275.195 156.038C274.767 154.893 274.946 153.873 275.72 152.951ZM276.471 153.581C275.895 154.267 275.845 155.067 276.333 155.988C276.668 156.634 277.286 157.336 278.187 158.091C279.077 158.838 279.875 159.325 280.58 159.552C281.562 159.863 282.351 159.685 282.927 158.998C283.503 158.312 283.541 157.504 283.064 156.592C282.719 155.936 282.11 155.224 281.22 154.477C280.319 153.721 279.512 153.245 278.817 153.028C277.825 152.707 277.047 152.895 276.471 153.581ZM281.116 146.521C281.881 145.609 282.853 145.256 284.064 145.468C285.093 145.636 286.186 146.206 287.344 147.178C288.503 148.15 289.254 149.128 289.598 150.111C290.007 151.258 289.838 152.286 289.073 153.198C288.3 154.12 287.316 154.465 286.125 154.251C285.096 154.082 284.003 153.512 282.845 152.54C281.687 151.568 280.935 150.591 280.591 149.607C280.163 148.462 280.342 147.443 281.116 146.521ZM281.867 147.15C281.291 147.837 281.241 148.636 281.729 149.557C282.064 150.204 282.682 150.905 283.583 151.661C284.473 152.408 285.271 152.894 285.976 153.121C286.957 153.433 287.747 153.254 288.323 152.568C288.899 151.881 288.937 151.073 288.46 150.161C288.114 149.506 287.506 148.794 286.615 148.047C285.715 147.291 284.908 146.815 284.213 146.597C283.221 146.277 282.442 146.464 281.867 147.15Z" fill="#8F7F7F"/>
<path d="M323.23 158.607L323.923 157.781L329.124 162.146L330.168 160.901L330.887 161.504L329.843 162.748L331.58 164.206L330.878 165.043L329.141 163.585L325.91 167.435L325.074 166.733L323.23 158.607ZM324.342 159.613L325.813 166.092L328.422 162.982L324.369 159.58L324.342 159.613ZM327.72 152.951C328.485 152.04 329.458 151.686 330.669 151.898C331.697 152.067 332.79 152.637 333.948 153.609C335.107 154.58 335.858 155.558 336.202 156.542C336.611 157.688 336.442 158.717 335.678 159.628C334.904 160.551 333.92 160.895 332.729 160.681C331.701 160.513 330.607 159.943 329.449 158.971C328.291 157.999 327.539 157.021 327.195 156.038C326.767 154.893 326.946 153.873 327.72 152.951ZM328.471 153.581C327.895 154.267 327.845 155.067 328.333 155.988C328.668 156.634 329.286 157.336 330.187 158.091C331.077 158.838 331.875 159.325 332.58 159.552C333.562 159.863 334.351 159.685 334.927 158.998C335.503 158.312 335.541 157.504 335.064 156.592C334.719 155.936 334.11 155.224 333.22 154.477C332.319 153.721 331.512 153.245 330.817 153.028C329.825 152.707 329.047 152.895 328.471 153.581ZM333.116 146.521C333.881 145.609 334.853 145.256 336.064 145.468C337.093 145.636 338.186 146.206 339.344 147.178C340.503 148.15 341.254 149.128 341.598 150.111C342.007 151.258 341.838 152.286 341.073 153.198C340.3 154.12 339.316 154.465 338.125 154.251C337.096 154.082 336.003 153.512 334.845 152.54C333.687 151.568 332.935 150.591 332.591 149.607C332.163 148.462 332.342 147.443 333.116 146.521ZM333.867 147.15C333.291 147.837 333.241 148.636 333.729 149.557C334.064 150.204 334.682 150.905 335.583 151.661C336.473 152.408 337.271 152.894 337.976 153.121C338.957 153.433 339.747 153.254 340.323 152.568C340.899 151.881 340.937 151.073 340.46 150.161C340.114 149.506 339.506 148.794 338.615 148.047C337.715 147.291 336.908 146.815 336.213 146.597C335.221 146.277 334.442 146.464 333.867 147.15Z" fill="#8F7F7F"/>
<path d="M374.414 159.274C375.008 158.567 375.698 158.158 376.492 158.039C377.278 157.931 378.023 158.154 378.687 158.712C379.352 159.27 379.737 160.031 379.859 160.974C379.913 161.476 379.89 162.353 379.761 163.596C379.596 165.121 379.718 166.174 380.116 166.745L383.49 162.724L384.273 163.381L379.99 168.485C379.293 167.9 378.867 167.123 378.73 166.131C378.639 165.543 378.637 164.609 378.763 163.326C378.838 162.365 378.86 161.708 378.817 161.324C378.722 160.587 378.432 159.996 377.939 159.582C377.467 159.186 376.996 159.029 376.505 159.092C376.013 159.154 375.552 159.443 375.138 159.937C374.697 160.462 374.526 161.014 374.657 161.598C374.748 162.187 375.128 162.779 375.795 163.357L375.057 164.237C374.199 163.517 373.719 162.694 373.611 161.799C373.492 160.895 373.766 160.047 374.414 159.274ZM379.72 152.951C380.485 152.04 381.458 151.686 382.669 151.898C383.697 152.067 384.79 152.637 385.948 153.609C387.107 154.58 387.858 155.558 388.202 156.542C388.611 157.688 388.442 158.717 387.678 159.628C386.904 160.551 385.92 160.895 384.729 160.681C383.701 160.513 382.607 159.943 381.449 158.971C380.291 157.999 379.539 157.021 379.195 156.038C378.767 154.893 378.946 153.873 379.72 152.951ZM380.471 153.581C379.895 154.267 379.845 155.067 380.333 155.988C380.668 156.634 381.286 157.336 382.187 158.091C383.077 158.838 383.875 159.325 384.58 159.552C385.562 159.863 386.351 159.685 386.927 158.998C387.503 158.312 387.541 157.504 387.064 156.592C386.719 155.936 386.11 155.224 385.22 154.477C384.319 153.721 383.512 153.245 382.817 153.028C381.825 152.707 381.047 152.895 380.471 153.581ZM385.116 146.521C385.881 145.609 386.853 145.256 388.064 145.468C389.093 145.636 390.186 146.206 391.344 147.178C392.503 148.15 393.254 149.128 393.598 150.111C394.007 151.258 393.838 152.286 393.073 153.198C392.3 154.12 391.316 154.465 390.125 154.251C389.096 154.082 388.003 153.512 386.845 152.54C385.687 151.568 384.935 150.591 384.591 149.607C384.163 148.462 384.342 147.443 385.116 146.521ZM385.867 147.15C385.291 147.837 385.241 148.636 385.729 149.557C386.064 150.204 386.682 150.905 387.583 151.661C388.473 152.408 389.271 152.894 389.976 153.121C390.957 153.433 391.747 153.254 392.323 152.568C392.899 151.881 392.937 151.073 392.46 150.161C392.114 149.506 391.506 148.794 390.615 148.047C389.715 147.291 388.908 146.815 388.213 146.597C387.221 146.277 386.442 146.464 385.867 147.15Z" fill="#8F7F7F"/>
<path d="M436.181 210.983H437.077V220.979H435.929V212.383C435.299 213.027 434.515 213.475 433.577 213.755V212.607C434.025 212.481 434.501 212.285 434.977 212.005C435.453 211.697 435.845 211.361 436.181 210.983ZM442.92 210.787C443.844 210.787 444.6 211.053 445.202 211.585C445.79 212.117 446.098 212.831 446.098 213.699C446.098 214.567 445.762 215.351 445.118 216.051C444.768 216.415 444.082 216.961 443.046 217.661C441.772 218.515 441.044 219.285 440.862 219.957H446.112V220.979H439.448C439.448 220.069 439.77 219.243 440.442 218.501C440.834 218.053 441.548 217.451 442.612 216.723C443.396 216.163 443.914 215.757 444.18 215.477C444.684 214.931 444.95 214.329 444.95 213.685C444.95 213.069 444.768 212.607 444.404 212.271C444.04 211.935 443.522 211.767 442.878 211.767C442.192 211.767 441.66 211.991 441.296 212.467C440.904 212.915 440.694 213.587 440.68 214.469H439.532C439.532 213.349 439.854 212.453 440.47 211.795C441.086 211.123 441.912 210.787 442.92 210.787ZM451.356 214.455V216.975H457.334V214.455H451.356ZM457.334 213.517V211.067H451.356V213.517H457.334ZM451.3 217.913C451.132 219.733 450.6 221.231 449.69 222.421L448.92 221.721C449.844 220.461 450.306 218.865 450.334 216.933V210.101H458.356V221.049C458.356 221.847 457.95 222.253 457.166 222.253H455.36L455.08 221.259C455.724 221.287 456.312 221.315 456.844 221.315C457.166 221.315 457.334 221.105 457.334 220.699V217.913H451.3Z" fill="#8F7F7F"/>
<path d="M411.181 271.983H412.077V281.979H410.929V273.383C410.299 274.027 409.515 274.475 408.577 274.755V273.607C409.025 273.481 409.501 273.285 409.977 273.005C410.453 272.697 410.845 272.361 411.181 271.983ZM416.8 271.983H417.696V281.979H416.548V273.383C415.918 274.027 415.134 274.475 414.196 274.755V273.607C414.644 273.481 415.12 273.285 415.596 273.005C416.072 272.697 416.464 272.361 416.8 271.983ZM423.581 275.455V277.975H429.559V275.455H423.581ZM429.559 274.517V272.067H423.581V274.517H429.559ZM423.525 278.913C423.357 280.733 422.825 282.231 421.915 283.421L421.145 282.721C422.069 281.461 422.531 279.865 422.559 277.933V271.101H430.581V282.049C430.581 282.847 430.175 283.253 429.391 283.253H427.585L427.305 282.259C427.949 282.287 428.537 282.315 429.069 282.315C429.391 282.315 429.559 282.105 429.559 281.699V278.913H423.525Z" fill="#8F7F7F"/>
<path d="M391.181 339.983H392.077V349.979H390.929V341.383C390.299 342.027 389.515 342.475 388.577 342.755V341.607C389.025 341.481 389.501 341.285 389.977 341.005C390.453 340.697 390.845 340.361 391.181 339.983ZM397.78 339.787C398.97 339.787 399.866 340.305 400.482 341.369C401.014 342.265 401.28 343.469 401.28 344.981C401.28 346.493 401.014 347.697 400.482 348.593C399.866 349.643 398.97 350.175 397.78 350.175C396.576 350.175 395.68 349.643 395.078 348.593C394.546 347.697 394.28 346.493 394.28 344.981C394.28 343.469 394.546 342.265 395.078 341.369C395.68 340.305 396.576 339.787 397.78 339.787ZM397.78 340.767C396.884 340.767 396.24 341.243 395.848 342.209C395.568 342.881 395.428 343.805 395.428 344.981C395.428 346.143 395.568 347.067 395.848 347.753C396.24 348.705 396.884 349.195 397.78 349.195C398.676 349.195 399.32 348.705 399.712 347.753C399.992 347.067 400.146 346.143 400.146 344.981C400.146 343.805 399.992 342.881 399.712 342.209C399.32 341.243 398.676 340.767 397.78 340.767ZM406.356 343.455V345.975H412.334V343.455H406.356ZM412.334 342.517V340.067H406.356V342.517H412.334ZM406.3 346.913C406.132 348.733 405.6 350.231 404.69 351.421L403.92 350.721C404.844 349.461 405.306 347.865 405.334 345.933V339.101H413.356V350.049C413.356 350.847 412.95 351.253 412.166 351.253H410.36L410.08 350.259C410.724 350.287 411.312 350.315 411.844 350.315C412.166 350.315 412.334 350.105 412.334 349.699V346.913H406.3Z" fill="#8F7F7F"/>
<path d="M380.049 411.787C381.253 411.787 382.163 412.235 382.779 413.131C383.367 413.971 383.661 415.175 383.661 416.715C383.661 418.311 383.339 419.599 382.723 420.607C382.051 421.643 381.155 422.175 380.035 422.175C378.173 422.175 377.109 421.279 376.843 419.501H377.977C378.187 420.635 378.873 421.209 380.049 421.209C380.819 421.209 381.435 420.817 381.897 420.047C382.331 419.305 382.555 418.367 382.555 417.247C382.555 417.177 382.541 417.051 382.541 416.883H382.485C382.233 417.387 381.869 417.793 381.407 418.087C380.959 418.367 380.441 418.521 379.853 418.521C378.887 418.521 378.117 418.199 377.529 417.569C376.955 416.967 376.675 416.183 376.675 415.217C376.675 414.223 376.983 413.411 377.627 412.767C378.257 412.109 379.069 411.787 380.049 411.787ZM380.077 412.753C379.391 412.753 378.845 412.977 378.425 413.439C378.005 413.901 377.809 414.489 377.809 415.217C377.809 415.917 378.005 416.491 378.425 416.911C378.831 417.345 379.377 417.569 380.077 417.569C380.721 417.569 381.267 417.345 381.715 416.897C382.135 416.449 382.359 415.875 382.359 415.189C382.359 414.489 382.149 413.915 381.743 413.467C381.323 412.991 380.763 412.753 380.077 412.753ZM388.737 415.455V417.975H394.715V415.455H388.737ZM394.715 414.517V412.067H388.737V414.517H394.715ZM388.681 418.913C388.513 420.733 387.981 422.231 387.071 423.421L386.301 422.721C387.225 421.461 387.687 419.865 387.715 417.933V411.101H395.737V422.049C395.737 422.847 395.331 423.253 394.547 423.253H392.741L392.461 422.259C393.105 422.287 393.693 422.315 394.225 422.315C394.547 422.315 394.715 422.105 394.715 421.699V418.913H388.681Z" fill="#8F7F7F"/>
<path d="M380.161 487.787C381.197 487.787 382.023 488.053 382.611 488.599C383.143 489.089 383.423 489.705 383.423 490.433C383.423 490.965 383.297 491.413 383.045 491.777C382.765 492.169 382.373 492.463 381.855 492.645V492.673C382.373 492.799 382.821 493.093 383.185 493.541C383.577 494.017 383.773 494.577 383.773 495.221C383.773 496.103 383.465 496.817 382.849 497.349C382.205 497.895 381.309 498.175 380.161 498.175C378.999 498.175 378.103 497.895 377.473 497.349C376.857 496.817 376.549 496.103 376.549 495.221C376.549 494.577 376.745 494.017 377.137 493.541C377.501 493.093 377.935 492.799 378.467 492.673V492.645C377.935 492.463 377.543 492.169 377.277 491.777C377.025 491.413 376.899 490.965 376.899 490.433C376.899 489.705 377.165 489.089 377.711 488.599C378.299 488.053 379.111 487.787 380.161 487.787ZM380.161 488.725C379.447 488.725 378.887 488.907 378.495 489.271C378.145 489.579 377.977 489.985 377.977 490.475C377.977 490.979 378.131 491.399 378.439 491.707C378.803 492.071 379.377 492.267 380.161 492.267C380.931 492.267 381.505 492.071 381.883 491.707C382.191 491.399 382.345 490.979 382.345 490.475C382.345 489.985 382.163 489.579 381.827 489.271C381.421 488.907 380.861 488.725 380.161 488.725ZM380.161 493.163C379.349 493.163 378.733 493.359 378.299 493.765C377.879 494.129 377.683 494.619 377.683 495.221C377.683 495.809 377.879 496.299 378.299 496.663C378.719 497.041 379.349 497.237 380.161 497.237C380.973 497.237 381.589 497.041 382.037 496.649C382.429 496.285 382.639 495.809 382.639 495.221C382.639 494.619 382.429 494.129 382.037 493.765C381.589 493.359 380.959 493.163 380.161 493.163ZM388.737 491.455V493.975H394.715V491.455H388.737ZM394.715 490.517V488.067H388.737V490.517H394.715ZM388.681 494.913C388.513 496.733 387.981 498.231 387.071 499.421L386.301 498.721C387.225 497.461 387.687 495.865 387.715 493.933V487.101H395.737V498.049C395.737 498.847 395.331 499.253 394.547 499.253H392.741L392.461 498.259C393.105 498.287 393.693 498.315 394.225 498.315C394.547 498.315 394.715 498.105 394.715 497.699V494.913H388.681Z" fill="#8F7F7F"/>
<path d="M376.437 563.983H383.003V564.921L379.321 573.979H378.103L381.827 565.033H376.437V563.983ZM387.999 567.455V569.975H393.977V567.455H387.999ZM393.977 566.517V564.067H387.999V566.517H393.977ZM387.943 570.913C387.775 572.733 387.243 574.231 386.333 575.421L385.563 574.721C386.487 573.461 386.949 571.865 386.977 569.933V563.101H394.999V574.049C394.999 574.847 394.593 575.253 393.809 575.253H392.003L391.723 574.259C392.367 574.287 392.955 574.315 393.487 574.315C393.809 574.315 393.977 574.105 393.977 573.699V570.913H387.943Z" fill="#8F7F7F"/>
<path d="M396.301 642.787C398.149 642.787 399.213 643.669 399.493 645.461H398.359C398.135 644.313 397.449 643.753 396.287 643.753C395.503 643.753 394.887 644.131 394.439 644.915C393.991 645.643 393.781 646.581 393.781 647.715C393.781 647.771 393.781 647.897 393.795 648.079H393.851C394.103 647.561 394.453 647.155 394.929 646.875C395.377 646.581 395.895 646.441 396.483 646.441C397.435 646.441 398.205 646.749 398.793 647.365C399.367 647.981 399.661 648.765 399.661 649.745C399.661 650.725 399.339 651.551 398.709 652.195C398.065 652.839 397.267 653.175 396.287 653.175C395.069 653.175 394.159 652.713 393.543 651.817C392.955 650.963 392.675 649.773 392.675 648.247C392.675 646.651 392.983 645.349 393.613 644.355C394.271 643.305 395.167 642.787 396.301 642.787ZM396.259 647.393C395.601 647.393 395.055 647.617 394.621 648.065C394.187 648.513 393.977 649.073 393.977 649.773C393.977 650.473 394.173 651.047 394.593 651.495C395.013 651.971 395.559 652.209 396.259 652.209C396.931 652.209 397.477 651.971 397.897 651.523C398.317 651.047 398.527 650.459 398.527 649.745C398.527 649.031 398.317 648.471 397.911 648.051C397.491 647.603 396.945 647.393 396.259 647.393ZM404.737 646.455V648.975H410.715V646.455H404.737ZM410.715 645.517V643.067H404.737V645.517H410.715ZM404.681 649.913C404.513 651.733 403.981 653.231 403.071 654.421L402.301 653.721C403.225 652.461 403.687 650.865 403.715 648.933V642.101H411.737V653.049C411.737 653.847 411.331 654.253 410.547 654.253H408.741L408.461 653.259C409.105 653.287 409.693 653.315 410.225 653.315C410.547 653.315 410.715 653.105 410.715 652.699V649.913H404.681Z" fill="#8F7F7F"/>
<path d="M416.431 717.983H422.241V719.005H417.369L417.033 722.351H417.089C417.369 722.015 417.733 721.763 418.167 721.595C418.559 721.427 418.979 721.357 419.441 721.357C420.393 721.357 421.163 721.651 421.751 722.253C422.339 722.869 422.647 723.709 422.647 724.787C422.647 725.795 422.283 726.621 421.569 727.265C420.897 727.867 420.057 728.175 419.077 728.175C418.195 728.175 417.439 727.937 416.823 727.461C416.123 726.929 415.745 726.201 415.675 725.291H416.809C416.865 725.921 417.117 726.411 417.565 726.747C417.957 727.041 418.475 727.195 419.091 727.195C419.791 727.195 420.365 726.971 420.827 726.523C421.275 726.075 421.513 725.501 421.513 724.801C421.513 724.003 421.289 723.387 420.869 722.953C420.463 722.505 419.889 722.295 419.161 722.295C418.685 722.295 418.265 722.393 417.887 722.603C417.495 722.799 417.187 723.107 416.991 723.499H415.899L416.431 717.983ZM427.737 721.455V723.975H433.715V721.455H427.737ZM433.715 720.517V718.067H427.737V720.517H433.715ZM427.681 724.913C427.513 726.733 426.981 728.231 426.071 729.421L425.301 728.721C426.225 727.461 426.687 725.865 426.715 723.933V717.101H434.737V728.049C434.737 728.847 434.331 729.253 433.547 729.253H431.741L431.461 728.259C432.105 728.287 432.693 728.315 433.225 728.315C433.547 728.315 433.715 728.105 433.715 727.699V724.913H427.681Z" fill="#8F7F7F"/>
<path d="M454.337 789.983H455.415V796.773H457.039V797.711H455.415V799.979H454.323V797.711H449.297V796.619L454.337 789.983ZM454.281 791.481L450.263 796.773H454.323V791.481H454.281ZM461.737 793.455V795.975H467.715V793.455H461.737ZM467.715 792.517V790.067H461.737V792.517H467.715ZM461.681 796.913C461.513 798.733 460.981 800.231 460.071 801.421L459.301 800.721C460.225 799.461 460.687 797.865 460.715 795.933V789.101H468.737V800.049C468.737 800.847 468.331 801.253 467.547 801.253H465.741L465.461 800.259C466.105 800.287 466.693 800.315 467.225 800.315C467.547 800.315 467.715 800.105 467.715 799.699V796.913H461.681Z" fill="#8F7F7F"/>
<path d="M491.259 856.787C492.211 856.787 492.995 857.025 493.583 857.515C494.157 858.005 494.451 858.663 494.451 859.503C494.451 860.623 493.905 861.379 492.813 861.743C493.401 861.925 493.849 862.205 494.157 862.597C494.493 862.989 494.661 863.479 494.661 864.067C494.661 864.977 494.339 865.719 493.709 866.293C493.065 866.881 492.225 867.175 491.189 867.175C490.237 867.175 489.467 866.923 488.865 866.447C488.151 865.859 487.759 865.005 487.675 863.885H488.837C488.865 864.669 489.131 865.271 489.621 865.677C490.041 866.013 490.559 866.195 491.189 866.195C491.903 866.195 492.477 865.985 492.911 865.579C493.303 865.187 493.513 864.697 493.513 864.109C493.513 863.507 493.317 863.045 492.925 862.709C492.533 862.373 492.001 862.219 491.301 862.219H490.489V861.323H491.259C491.931 861.323 492.435 861.169 492.785 860.875C493.135 860.567 493.317 860.133 493.317 859.573C493.317 859.013 493.135 858.579 492.799 858.271C492.435 857.935 491.917 857.781 491.273 857.781C490.601 857.781 490.083 857.949 489.705 858.313C489.313 858.677 489.089 859.195 489.019 859.867H487.885C487.969 858.901 488.333 858.145 488.949 857.599C489.537 857.053 490.307 856.787 491.259 856.787ZM499.737 860.455V862.975H505.715V860.455H499.737ZM505.715 859.517V857.067H499.737V859.517H505.715ZM499.681 863.913C499.513 865.733 498.981 867.231 498.071 868.421L497.301 867.721C498.225 866.461 498.687 864.865 498.715 862.933V856.101H506.737V867.049C506.737 867.847 506.331 868.253 505.547 868.253H503.741L503.461 867.259C504.105 867.287 504.693 867.315 505.225 867.315C505.547 867.315 505.715 867.105 505.715 866.699V863.913H499.681Z" fill="#8F7F7F"/>
<path d="M534.301 914.787C535.225 914.787 535.981 915.053 536.583 915.585C537.171 916.117 537.479 916.831 537.479 917.699C537.479 918.567 537.143 919.351 536.499 920.051C536.149 920.415 535.463 920.961 534.427 921.661C533.153 922.515 532.425 923.285 532.243 923.957H537.493V924.979H530.829C530.829 924.069 531.151 923.243 531.823 922.501C532.215 922.053 532.929 921.451 533.993 920.723C534.777 920.163 535.295 919.757 535.561 919.477C536.065 918.931 536.331 918.329 536.331 917.685C536.331 917.069 536.149 916.607 535.785 916.271C535.421 915.935 534.903 915.767 534.259 915.767C533.573 915.767 533.041 915.991 532.677 916.467C532.285 916.915 532.075 917.587 532.061 918.469H530.913C530.913 917.349 531.235 916.453 531.851 915.795C532.467 915.123 533.293 914.787 534.301 914.787ZM542.737 918.455V920.975H548.715V918.455H542.737ZM548.715 917.517V915.067H542.737V917.517H548.715ZM542.681 921.913C542.513 923.733 541.981 925.231 541.071 926.421L540.301 925.721C541.225 924.461 541.687 922.865 541.715 920.933V914.101H549.737V925.049C549.737 925.847 549.331 926.253 548.547 926.253H546.741L546.461 925.259C547.105 925.287 547.693 925.315 548.225 925.315C548.547 925.315 548.715 925.105 548.715 924.699V921.913H542.681Z" fill="#8F7F7F"/>
<path d="M578.181 962.983H579.077V972.979H577.929V964.383C577.299 965.027 576.515 965.475 575.577 965.755V964.607C576.025 964.481 576.501 964.285 576.977 964.005C577.453 963.697 577.845 963.361 578.181 962.983ZM584.962 966.455V968.975H590.94V966.455H584.962ZM590.94 965.517V963.067H584.962V965.517H590.94ZM584.906 969.913C584.738 971.733 584.206 973.231 583.296 974.421L582.526 973.721C583.45 972.461 583.912 970.865 583.94 968.933V962.101H591.962V973.049C591.962 973.847 591.556 974.253 590.772 974.253H588.966L588.686 973.259C589.33 973.287 589.918 973.315 590.45 973.315C590.772 973.315 590.94 973.105 590.94 972.699V969.913H584.906Z" fill="#8F7F7F"/>
<line x1="167" y1="555.2" x2="190" y2="555.2" stroke="#AA151B" stroke-width="1.6" stroke-dasharray="3.2 3.2"/>
<line x1="168" y1="719.2" x2="265" y2="719.2" stroke="#1564C2" stroke-width="1.6" stroke-dasharray="3.2 3.2"/>
<line x1="168" y1="811.2" x2="359" y2="811.2" stroke="#DD575B" stroke-width="1.6" stroke-dasharray="3.2 3.2"/>
<line x1="168" y1="732.2" x2="332" y2="732.2" stroke="#7164C5" stroke-width="1.6" stroke-dasharray="3.2 3.2"/>
<rect x="49.5" y="488.5" width="150" height="37" stroke="#889CC5"/>
<defs>
<linearGradient id="paint0_linear_11_5" x1="199.015" y1="272.37" x2="199.015" y2="361.307" gradientUnits="userSpaceOnUse">
<stop stop-color="#AA151B"/>
<stop offset="1" stop-color="#E0D9D9"/>
</linearGradient>
<linearGradient id="paint1_linear_11_5" x1="274.807" y1="356.074" x2="274.807" y2="412.013" gradientUnits="userSpaceOnUse">
<stop stop-color="#1564C2"/>
<stop offset="1" stop-color="#E0D9D9"/>
</linearGradient>
<linearGradient id="paint2_linear_11_5" x1="326.859" y1="225.068" x2="326.859" y2="247.068" gradientUnits="userSpaceOnUse">
<stop stop-color="#DD575B"/>
<stop offset="1" stop-color="#E0D9D9"/>
</linearGradient>
<linearGradient id="paint3_linear_11_5" x1="326.75" y1="286.71" x2="326.75" y2="330.71" gradientUnits="userSpaceOnUse">
<stop stop-color="#7164C5"/>
<stop offset="1" stop-color="#E0D9D9"/>
</linearGradient>
<linearGradient id="paint4_linear_11_5" x1="752.5" y1="548.5" x2="750.5" y2="871.5" gradientUnits="userSpaceOnUse">
<stop stop-color="#AA151B"/>
<stop offset="1" stop-color="#E0D9D9"/>
</linearGradient>
<linearGradient id="paint5_linear_11_5" x1="795.001" y1="717.5" x2="795.001" y2="875" gradientUnits="userSpaceOnUse">
<stop stop-color="#1564C2"/>
<stop offset="1" stop-color="#E0D9D9"/>
</linearGradient>
<linearGradient id="paint6_linear_11_5" x1="842.5" y1="810.5" x2="839.5" y2="921.5" gradientUnits="userSpaceOnUse">
<stop stop-color="#DD575B"/>
<stop offset="1" stop-color="#E0D9D9"/>
</linearGradient>
<linearGradient id="paint7_linear_11_5" x1="854.999" y1="732.5" x2="856.999" y2="884" gradientUnits="userSpaceOnUse">
<stop stop-color="#7164C5"/>
<stop offset="1" stop-color="#E0D9D9"/>
</linearGradient>
</defs>
</svg>
